M48
; DRILL file {KiCad 9.0.7} date 2026-04-02T22:20:32+0200
; FORMAT={-:-/ absolute / metric / decimal}
; #@! TF.CreationDate,2026-04-02T22:20:32+02:00
; #@! TF.GenerationSoftware,Kicad,Pcbnew,9.0.7
; #@! TF.FileFunction,Plated,1,2,PTH
FMAT,2
METRIC
; #@! TA.AperFunction,Plated,PTH,ViaDrill
T1C0.300
; #@! TA.AperFunction,Plated,PTH,ComponentDrill
T2C0.800
; #@! TA.AperFunction,Plated,PTH,ComponentDrill
T3C1.000
; #@! TA.AperFunction,Plated,PTH,ComponentDrill
T4C1.500
; #@! TA.AperFunction,Plated,PTH,ViaDrill
T5C1.700
%
G90
G05
T1
X144.75Y-121.75
X145.5Y-116.0
X149.25Y-100.75
X149.5Y-135.0
X152.5Y-117.5
X152.75Y-112.5
X154.25Y-112.25
X154.32Y-104.0
X154.5Y-108.5
X154.5Y-109.5
X154.5Y-111.0
X154.82Y-107.5
X155.07Y-120.75
X158.47Y-110.569
X159.5Y-105.5
X160.25Y-129.0
X163.5Y-106.0
X163.82Y-121.75
X164.0Y-104.5
X164.5Y-126.75
X165.064Y-125.314
X165.57Y-109.75
X166.32Y-112.25
X166.32Y-118.25
X167.0Y-115.25
X167.0Y-125.25
X167.0Y-129.0
X167.07Y-110.5
X167.75Y-118.5
X168.57Y-111.5
X168.75Y-118.5
X169.0Y-101.75
X170.32Y-133.5
X170.5Y-120.75
X170.5Y-129.5
X170.82Y-105.75
X173.5Y-128.0
X175.25Y-118.0
X175.5Y-103.25
X176.07Y-132.25
X177.25Y-130.951
X178.25Y-113.75
X178.25Y-115.75
X179.07Y-110.25
X181.57Y-112.75
X182.82Y-135.5
X183.5Y-96.25
X184.0Y-123.75
X189.25Y-130.5
T2
X144.257Y-105.5
X144.257Y-107.5
X144.257Y-109.5
T3
X149.982Y-115.525
X149.982Y-123.125
X155.14Y-95.52
X155.14Y-126.0
X157.68Y-95.52
X157.68Y-126.0
X160.22Y-95.52
X162.76Y-95.52
X163.78Y-123.25
X165.3Y-95.52
X166.32Y-123.25
X167.84Y-95.52
X168.86Y-123.25
X170.38Y-95.52
X171.4Y-123.25
X172.57Y-104.25
X172.92Y-95.52
X173.94Y-123.25
X175.46Y-95.52
X175.46Y-126.0
X176.48Y-123.25
X178.0Y-95.52
X178.0Y-126.0
X178.07Y-105.0
X179.02Y-123.25
X183.845Y-105.5
X183.845Y-108.04
X183.845Y-115.5
X183.845Y-118.04
T4
X144.257Y-103.4
X144.257Y-111.6
T5
X144.337Y-95.5
X145.0Y-130.0
X145.0Y-134.5
X189.0Y-95.5
X189.0Y-100.0
X189.0Y-123.0
M30
