%TF.GenerationSoftware,KiCad,Pcbnew,9.0.7*%
%TF.CreationDate,2026-04-02T22:20:24+02:00*%
%TF.ProjectId,flow_monitor,666c6f77-5f6d-46f6-9e69-746f722e6b69,rev?*%
%TF.SameCoordinates,Original*%
%TF.FileFunction,Soldermask,Bot*%
%TF.FilePolarity,Negative*%
%FSLAX46Y46*%
G04 Gerber Fmt 4.6, Leading zero omitted, Abs format (unit mm)*
G04 Created by KiCad (PCBNEW 9.0.7) date 2026-04-02 22:20:24*
%MOMM*%
%LPD*%
G01*
G04 APERTURE LIST*
G04 Aperture macros list*
%AMRoundRect*
0 Rectangle with rounded corners*
0 $1 Rounding radius*
0 $2 $3 $4 $5 $6 $7 $8 $9 X,Y pos of 4 corners*
0 Add a 4 corners polygon primitive as box body*
4,1,4,$2,$3,$4,$5,$6,$7,$8,$9,$2,$3,0*
0 Add four circle primitives for the rounded corners*
1,1,$1+$1,$2,$3*
1,1,$1+$1,$4,$5*
1,1,$1+$1,$6,$7*
1,1,$1+$1,$8,$9*
0 Add four rect primitives between the rounded corners*
20,1,$1+$1,$2,$3,$4,$5,0*
20,1,$1+$1,$4,$5,$6,$7,0*
20,1,$1+$1,$6,$7,$8,$9,0*
20,1,$1+$1,$8,$9,$2,$3,0*%
G04 Aperture macros list end*
%ADD10C,2.000000*%
%ADD11R,1.700000X1.700000*%
%ADD12C,1.700000*%
%ADD13O,3.500000X2.200000*%
%ADD14R,2.500000X1.500000*%
%ADD15O,2.500000X1.500000*%
%ADD16R,2.000000X2.000000*%
%ADD17RoundRect,0.250000X0.525000X0.250000X-0.525000X0.250000X-0.525000X-0.250000X0.525000X-0.250000X0*%
%ADD18R,1.500000X1.500000*%
%ADD19C,1.500000*%
%ADD20C,3.200000*%
G04 APERTURE END LIST*
D10*
%TO.C,BOT*%
X172570000Y-104250000D03*
%TD*%
D11*
%TO.C,J1*%
X163780000Y-123250000D03*
D12*
X166320000Y-123250000D03*
X168860000Y-123250000D03*
X171400000Y-123250000D03*
X173940000Y-123250000D03*
X176480000Y-123250000D03*
X179020000Y-123250000D03*
%TD*%
D11*
%TO.C,J3*%
X183845000Y-105500000D03*
D12*
X183845000Y-108040000D03*
%TD*%
D13*
%TO.C,SW1*%
X144257500Y-103400000D03*
X144257500Y-111600000D03*
D14*
X144257500Y-105500000D03*
D15*
X144257500Y-107500000D03*
X144257500Y-109500000D03*
%TD*%
D10*
%TO.C,TP1*%
X178070000Y-105000000D03*
%TD*%
D16*
%TO.C,BZ1*%
X149982500Y-115525000D03*
D10*
X149982500Y-123125000D03*
%TD*%
D11*
%TO.C,J2*%
X183845000Y-115500000D03*
D12*
X183845000Y-118040000D03*
%TD*%
D17*
%TO.C,S3*%
X157645000Y-130150000D03*
X152395000Y-130150000D03*
X157645000Y-133350000D03*
X152395000Y-133350000D03*
%TD*%
D18*
%TO.C,U3*%
X178000000Y-126000000D03*
D19*
X175460000Y-126000000D03*
X157680000Y-126000000D03*
X155140000Y-126000000D03*
X155140000Y-95520000D03*
X157680000Y-95520000D03*
X160220000Y-95520000D03*
X162760000Y-95520000D03*
X165300000Y-95520000D03*
X167840000Y-95520000D03*
X170380000Y-95520000D03*
X172920000Y-95520000D03*
X175460000Y-95520000D03*
X178000000Y-95520000D03*
%TD*%
D17*
%TO.C,S2*%
X169195000Y-131400000D03*
X163945000Y-131400000D03*
X169195000Y-134600000D03*
X163945000Y-134600000D03*
%TD*%
%TO.C,S1*%
X180745000Y-130150000D03*
X175495000Y-130150000D03*
X180745000Y-133350000D03*
X175495000Y-133350000D03*
%TD*%
D20*
X145000000Y-134500000D03*
X189000000Y-95500000D03*
D10*
X145000000Y-130000000D03*
D20*
X144336941Y-95500000D03*
D10*
X189000000Y-100000000D03*
D20*
X189000000Y-123000000D03*
M02*
