%TF.GenerationSoftware,KiCad,Pcbnew,9.0.7*%
%TF.CreationDate,2026-04-02T22:20:24+02:00*%
%TF.ProjectId,flow_monitor,666c6f77-5f6d-46f6-9e69-746f722e6b69,rev?*%
%TF.SameCoordinates,Original*%
%TF.FileFunction,Legend,Bot*%
%TF.FilePolarity,Positive*%
%FSLAX46Y46*%
G04 Gerber Fmt 4.6, Leading zero omitted, Abs format (unit mm)*
G04 Created by KiCad (PCBNEW 9.0.7) date 2026-04-02 22:20:24*
%MOMM*%
%LPD*%
G01*
G04 APERTURE LIST*
%ADD10C,0.150000*%
%ADD11C,0.120000*%
G04 APERTURE END LIST*
D10*
X155781904Y-135907200D02*
X155639047Y-135954819D01*
X155639047Y-135954819D02*
X155400952Y-135954819D01*
X155400952Y-135954819D02*
X155305714Y-135907200D01*
X155305714Y-135907200D02*
X155258095Y-135859580D01*
X155258095Y-135859580D02*
X155210476Y-135764342D01*
X155210476Y-135764342D02*
X155210476Y-135669104D01*
X155210476Y-135669104D02*
X155258095Y-135573866D01*
X155258095Y-135573866D02*
X155305714Y-135526247D01*
X155305714Y-135526247D02*
X155400952Y-135478628D01*
X155400952Y-135478628D02*
X155591428Y-135431009D01*
X155591428Y-135431009D02*
X155686666Y-135383390D01*
X155686666Y-135383390D02*
X155734285Y-135335771D01*
X155734285Y-135335771D02*
X155781904Y-135240533D01*
X155781904Y-135240533D02*
X155781904Y-135145295D01*
X155781904Y-135145295D02*
X155734285Y-135050057D01*
X155734285Y-135050057D02*
X155686666Y-135002438D01*
X155686666Y-135002438D02*
X155591428Y-134954819D01*
X155591428Y-134954819D02*
X155353333Y-134954819D01*
X155353333Y-134954819D02*
X155210476Y-135002438D01*
X154877142Y-134954819D02*
X154258095Y-134954819D01*
X154258095Y-134954819D02*
X154591428Y-135335771D01*
X154591428Y-135335771D02*
X154448571Y-135335771D01*
X154448571Y-135335771D02*
X154353333Y-135383390D01*
X154353333Y-135383390D02*
X154305714Y-135431009D01*
X154305714Y-135431009D02*
X154258095Y-135526247D01*
X154258095Y-135526247D02*
X154258095Y-135764342D01*
X154258095Y-135764342D02*
X154305714Y-135859580D01*
X154305714Y-135859580D02*
X154353333Y-135907200D01*
X154353333Y-135907200D02*
X154448571Y-135954819D01*
X154448571Y-135954819D02*
X154734285Y-135954819D01*
X154734285Y-135954819D02*
X154829523Y-135907200D01*
X154829523Y-135907200D02*
X154877142Y-135859580D01*
X178761904Y-127454819D02*
X178761904Y-128264342D01*
X178761904Y-128264342D02*
X178714285Y-128359580D01*
X178714285Y-128359580D02*
X178666666Y-128407200D01*
X178666666Y-128407200D02*
X178571428Y-128454819D01*
X178571428Y-128454819D02*
X178380952Y-128454819D01*
X178380952Y-128454819D02*
X178285714Y-128407200D01*
X178285714Y-128407200D02*
X178238095Y-128359580D01*
X178238095Y-128359580D02*
X178190476Y-128264342D01*
X178190476Y-128264342D02*
X178190476Y-127454819D01*
X177809523Y-127454819D02*
X177190476Y-127454819D01*
X177190476Y-127454819D02*
X177523809Y-127835771D01*
X177523809Y-127835771D02*
X177380952Y-127835771D01*
X177380952Y-127835771D02*
X177285714Y-127883390D01*
X177285714Y-127883390D02*
X177238095Y-127931009D01*
X177238095Y-127931009D02*
X177190476Y-128026247D01*
X177190476Y-128026247D02*
X177190476Y-128264342D01*
X177190476Y-128264342D02*
X177238095Y-128359580D01*
X177238095Y-128359580D02*
X177285714Y-128407200D01*
X177285714Y-128407200D02*
X177380952Y-128454819D01*
X177380952Y-128454819D02*
X177666666Y-128454819D01*
X177666666Y-128454819D02*
X177761904Y-128407200D01*
X177761904Y-128407200D02*
X177809523Y-128359580D01*
X167331904Y-136907200D02*
X167189047Y-136954819D01*
X167189047Y-136954819D02*
X166950952Y-136954819D01*
X166950952Y-136954819D02*
X166855714Y-136907200D01*
X166855714Y-136907200D02*
X166808095Y-136859580D01*
X166808095Y-136859580D02*
X166760476Y-136764342D01*
X166760476Y-136764342D02*
X166760476Y-136669104D01*
X166760476Y-136669104D02*
X166808095Y-136573866D01*
X166808095Y-136573866D02*
X166855714Y-136526247D01*
X166855714Y-136526247D02*
X166950952Y-136478628D01*
X166950952Y-136478628D02*
X167141428Y-136431009D01*
X167141428Y-136431009D02*
X167236666Y-136383390D01*
X167236666Y-136383390D02*
X167284285Y-136335771D01*
X167284285Y-136335771D02*
X167331904Y-136240533D01*
X167331904Y-136240533D02*
X167331904Y-136145295D01*
X167331904Y-136145295D02*
X167284285Y-136050057D01*
X167284285Y-136050057D02*
X167236666Y-136002438D01*
X167236666Y-136002438D02*
X167141428Y-135954819D01*
X167141428Y-135954819D02*
X166903333Y-135954819D01*
X166903333Y-135954819D02*
X166760476Y-136002438D01*
X166379523Y-136050057D02*
X166331904Y-136002438D01*
X166331904Y-136002438D02*
X166236666Y-135954819D01*
X166236666Y-135954819D02*
X165998571Y-135954819D01*
X165998571Y-135954819D02*
X165903333Y-136002438D01*
X165903333Y-136002438D02*
X165855714Y-136050057D01*
X165855714Y-136050057D02*
X165808095Y-136145295D01*
X165808095Y-136145295D02*
X165808095Y-136240533D01*
X165808095Y-136240533D02*
X165855714Y-136383390D01*
X165855714Y-136383390D02*
X166427142Y-136954819D01*
X166427142Y-136954819D02*
X165808095Y-136954819D01*
X178881904Y-135907200D02*
X178739047Y-135954819D01*
X178739047Y-135954819D02*
X178500952Y-135954819D01*
X178500952Y-135954819D02*
X178405714Y-135907200D01*
X178405714Y-135907200D02*
X178358095Y-135859580D01*
X178358095Y-135859580D02*
X178310476Y-135764342D01*
X178310476Y-135764342D02*
X178310476Y-135669104D01*
X178310476Y-135669104D02*
X178358095Y-135573866D01*
X178358095Y-135573866D02*
X178405714Y-135526247D01*
X178405714Y-135526247D02*
X178500952Y-135478628D01*
X178500952Y-135478628D02*
X178691428Y-135431009D01*
X178691428Y-135431009D02*
X178786666Y-135383390D01*
X178786666Y-135383390D02*
X178834285Y-135335771D01*
X178834285Y-135335771D02*
X178881904Y-135240533D01*
X178881904Y-135240533D02*
X178881904Y-135145295D01*
X178881904Y-135145295D02*
X178834285Y-135050057D01*
X178834285Y-135050057D02*
X178786666Y-135002438D01*
X178786666Y-135002438D02*
X178691428Y-134954819D01*
X178691428Y-134954819D02*
X178453333Y-134954819D01*
X178453333Y-134954819D02*
X178310476Y-135002438D01*
X177358095Y-135954819D02*
X177929523Y-135954819D01*
X177643809Y-135954819D02*
X177643809Y-134954819D01*
X177643809Y-134954819D02*
X177739047Y-135097676D01*
X177739047Y-135097676D02*
X177834285Y-135192914D01*
X177834285Y-135192914D02*
X177929523Y-135240533D01*
D11*
%TO.C,S3*%
X152570000Y-129300000D02*
X152570000Y-129350000D01*
X152570000Y-131000000D02*
X152570000Y-132500000D01*
X152570000Y-134200000D02*
X152570000Y-134150000D01*
X157470000Y-129300000D02*
X152570000Y-129300000D01*
X157470000Y-129300000D02*
X157470000Y-129350000D01*
X157470000Y-131000000D02*
X157470000Y-132500000D01*
X157470000Y-134200000D02*
X152570000Y-134200000D01*
X157470000Y-134200000D02*
X157470000Y-134150000D01*
%TO.C,U3*%
X146420000Y-95520000D02*
X146420000Y-126000000D01*
X150627500Y-104347500D02*
X182812500Y-104347500D01*
X150627500Y-119212500D02*
X150627500Y-104347500D01*
X153500000Y-95520000D02*
X146420000Y-95520000D01*
X153500000Y-126000000D02*
X146420000Y-126000000D01*
X174000000Y-126000000D02*
X159000000Y-126000000D01*
X179250000Y-127250000D02*
X177000000Y-127250000D01*
X179250000Y-127250000D02*
X179250000Y-126000000D01*
X180000000Y-126000000D02*
X186720000Y-126000000D01*
X182812500Y-104347500D02*
X182812500Y-119212500D01*
X182812500Y-119212500D02*
X150627500Y-119212500D01*
X186720000Y-95520000D02*
X180000000Y-95520000D01*
X186720000Y-126000000D02*
X186720000Y-95520000D01*
%TO.C,S2*%
X164120000Y-130550000D02*
X164120000Y-130600000D01*
X164120000Y-132250000D02*
X164120000Y-133750000D01*
X164120000Y-135450000D02*
X164120000Y-135400000D01*
X169020000Y-130550000D02*
X164120000Y-130550000D01*
X169020000Y-130550000D02*
X169020000Y-130600000D01*
X169020000Y-132250000D02*
X169020000Y-133750000D01*
X169020000Y-135450000D02*
X164120000Y-135450000D01*
X169020000Y-135450000D02*
X169020000Y-135400000D01*
%TO.C,S1*%
X175670000Y-129300000D02*
X175670000Y-129350000D01*
X175670000Y-131000000D02*
X175670000Y-132500000D01*
X175670000Y-134200000D02*
X175670000Y-134150000D01*
X180570000Y-129300000D02*
X175670000Y-129300000D01*
X180570000Y-129300000D02*
X180570000Y-129350000D01*
X180570000Y-131000000D02*
X180570000Y-132500000D01*
X180570000Y-134200000D02*
X175670000Y-134200000D01*
X180570000Y-134200000D02*
X180570000Y-134150000D01*
%TD*%
M02*
