%TF.GenerationSoftware,KiCad,Pcbnew,9.0.7*%
%TF.CreationDate,2026-04-02T22:20:24+02:00*%
%TF.ProjectId,flow_monitor,666c6f77-5f6d-46f6-9e69-746f722e6b69,rev?*%
%TF.SameCoordinates,Original*%
%TF.FileFunction,Copper,L2,Bot*%
%TF.FilePolarity,Positive*%
%FSLAX46Y46*%
G04 Gerber Fmt 4.6, Leading zero omitted, Abs format (unit mm)*
G04 Created by KiCad (PCBNEW 9.0.7) date 2026-04-02 22:20:24*
%MOMM*%
%LPD*%
G01*
G04 APERTURE LIST*
G04 Aperture macros list*
%AMRoundRect*
0 Rectangle with rounded corners*
0 $1 Rounding radius*
0 $2 $3 $4 $5 $6 $7 $8 $9 X,Y pos of 4 corners*
0 Add a 4 corners polygon primitive as box body*
4,1,4,$2,$3,$4,$5,$6,$7,$8,$9,$2,$3,0*
0 Add four circle primitives for the rounded corners*
1,1,$1+$1,$2,$3*
1,1,$1+$1,$4,$5*
1,1,$1+$1,$6,$7*
1,1,$1+$1,$8,$9*
0 Add four rect primitives between the rounded corners*
20,1,$1+$1,$2,$3,$4,$5,0*
20,1,$1+$1,$4,$5,$6,$7,0*
20,1,$1+$1,$6,$7,$8,$9,0*
20,1,$1+$1,$8,$9,$2,$3,0*%
G04 Aperture macros list end*
%TA.AperFunction,ComponentPad*%
%ADD10C,2.000000*%
%TD*%
%TA.AperFunction,ComponentPad*%
%ADD11R,1.700000X1.700000*%
%TD*%
%TA.AperFunction,ComponentPad*%
%ADD12C,1.700000*%
%TD*%
%TA.AperFunction,ComponentPad*%
%ADD13O,3.500000X2.200000*%
%TD*%
%TA.AperFunction,ComponentPad*%
%ADD14R,2.500000X1.500000*%
%TD*%
%TA.AperFunction,ComponentPad*%
%ADD15O,2.500000X1.500000*%
%TD*%
%TA.AperFunction,ComponentPad*%
%ADD16R,2.000000X2.000000*%
%TD*%
%TA.AperFunction,SMDPad,CuDef*%
%ADD17RoundRect,0.250000X0.525000X0.250000X-0.525000X0.250000X-0.525000X-0.250000X0.525000X-0.250000X0*%
%TD*%
%TA.AperFunction,ComponentPad*%
%ADD18R,1.500000X1.500000*%
%TD*%
%TA.AperFunction,ComponentPad*%
%ADD19C,1.500000*%
%TD*%
%TA.AperFunction,ViaPad*%
%ADD20C,0.600000*%
%TD*%
%TA.AperFunction,ViaPad*%
%ADD21C,3.200000*%
%TD*%
%TA.AperFunction,ViaPad*%
%ADD22C,2.000000*%
%TD*%
%TA.AperFunction,Conductor*%
%ADD23C,0.200000*%
%TD*%
%TA.AperFunction,Conductor*%
%ADD24C,0.400000*%
%TD*%
%TA.AperFunction,Conductor*%
%ADD25C,0.250000*%
%TD*%
G04 APERTURE END LIST*
D10*
%TO.P,BOT,1,1*%
%TO.N,ADC_IR_DETECTOR_BOT*%
X172570000Y-104250000D03*
%TD*%
D11*
%TO.P,J1,1,Pin_1*%
%TO.N,NRST*%
X163780000Y-123250000D03*
D12*
%TO.P,J1,2,Pin_2*%
%TO.N,UART1_TX*%
X166320000Y-123250000D03*
%TO.P,J1,3,Pin_3*%
%TO.N,UART1_RX*%
X168860000Y-123250000D03*
%TO.P,J1,4,Pin_4*%
%TO.N,SWDIO*%
X171400000Y-123250000D03*
%TO.P,J1,5,Pin_5*%
%TO.N,BOOT0*%
X173940000Y-123250000D03*
%TO.P,J1,6,Pin_6*%
%TO.N,+3.3V*%
X176480000Y-123250000D03*
%TO.P,J1,7,Pin_7*%
%TO.N,GND*%
X179020000Y-123250000D03*
%TD*%
D11*
%TO.P,J3,1,Pin_1*%
%TO.N,PD_BIAS_TOP*%
X183845000Y-105500000D03*
D12*
%TO.P,J3,2,Pin_2*%
%TO.N,GND*%
X183845000Y-108040000D03*
%TD*%
D13*
%TO.P,SW1,*%
%TO.N,*%
X144257500Y-103400000D03*
X144257500Y-111600000D03*
D14*
%TO.P,SW1,1,A*%
%TO.N,unconnected-(SW1-A-Pad1)*%
X144257500Y-105500000D03*
D15*
%TO.P,SW1,2,B*%
%TO.N,BAT+*%
X144257500Y-107500000D03*
%TO.P,SW1,3,C*%
%TO.N,VBAT_SW*%
X144257500Y-109500000D03*
%TD*%
D10*
%TO.P,TP1,1,1*%
%TO.N,ADC_IR_DETECTOR_TOP*%
X178070000Y-105000000D03*
%TD*%
D16*
%TO.P,BZ1,1,+*%
%TO.N,+3.3V*%
X149982500Y-115525000D03*
D10*
%TO.P,BZ1,2,-*%
%TO.N,BZ_DRN*%
X149982500Y-123125000D03*
%TD*%
D11*
%TO.P,J2,1,Pin_1*%
%TO.N,PD_BIAS_BOT*%
X183845000Y-115500000D03*
D12*
%TO.P,J2,2,Pin_2*%
%TO.N,GND*%
X183845000Y-118040000D03*
%TD*%
D17*
%TO.P,S3,1,NO_1*%
%TO.N,BTN_MUTE*%
X157645000Y-130150000D03*
%TO.N,GND*%
X152395000Y-130150000D03*
%TO.P,S3,2,NO_2*%
%TO.N,unconnected-(S3-NO_2-Pad2)_1*%
X157645000Y-133350000D03*
%TO.N,unconnected-(S3-NO_2-Pad2)*%
X152395000Y-133350000D03*
%TD*%
D18*
%TO.P,U3,1,NC*%
%TO.N,unconnected-(U3-NC-Pad1)*%
X178000000Y-126000000D03*
D19*
%TO.P,U3,2,NC*%
%TO.N,unconnected-(U3-NC-Pad2)*%
X175460000Y-126000000D03*
%TO.P,U3,9,NC*%
%TO.N,unconnected-(U3-NC-Pad9)*%
X157680000Y-126000000D03*
%TO.P,U3,10,NC*%
%TO.N,unconnected-(U3-NC-Pad10)*%
X155140000Y-126000000D03*
%TO.P,U3,11,VOUT*%
%TO.N,/LCD_VOUT*%
X155140000Y-95520000D03*
%TO.P,U3,12,IM1*%
%TO.N,+3.3V*%
X157680000Y-95520000D03*
%TO.P,U3,13,VDD*%
X160220000Y-95520000D03*
%TO.P,U3,14,VSS*%
%TO.N,GND*%
X162760000Y-95520000D03*
%TO.P,U3,15,SOD*%
%TO.N,LCD_MISO*%
X165300000Y-95520000D03*
%TO.P,U3,16,SID*%
%TO.N,LCD_MOSI*%
X167840000Y-95520000D03*
%TO.P,U3,17,SCLK*%
%TO.N,LCD_SCK*%
X170380000Y-95520000D03*
%TO.P,U3,18,CS*%
%TO.N,LCD_CS*%
X172920000Y-95520000D03*
%TO.P,U3,19,SA0*%
%TO.N,GND*%
X175460000Y-95520000D03*
%TO.P,U3,20,RST*%
%TO.N,LCD_RST*%
X178000000Y-95520000D03*
%TD*%
D17*
%TO.P,S2,1,NO_1*%
%TO.N,BTN_RES*%
X169195000Y-131400000D03*
%TO.N,GND*%
X163945000Y-131400000D03*
%TO.P,S2,2,NO_2*%
%TO.N,unconnected-(S2-NO_2-Pad2)_1*%
X169195000Y-134600000D03*
%TO.N,unconnected-(S2-NO_2-Pad2)*%
X163945000Y-134600000D03*
%TD*%
%TO.P,S1,1,NO_1*%
%TO.N,BTN_MODE*%
X180745000Y-130150000D03*
%TO.N,GND*%
X175495000Y-130150000D03*
%TO.P,S1,2,NO_2*%
%TO.N,unconnected-(S1-NO_2-Pad2)_1*%
X180745000Y-133350000D03*
%TO.N,unconnected-(S1-NO_2-Pad2)*%
X175495000Y-133350000D03*
%TD*%
D20*
%TO.N,GND*%
X163500000Y-106000000D03*
X178250000Y-115750000D03*
X167000000Y-129000000D03*
X154500000Y-108500000D03*
X155070000Y-120750000D03*
X178250000Y-113750000D03*
D21*
X145000000Y-134500000D03*
D20*
X183500000Y-96250000D03*
X164500000Y-126750000D03*
X154500000Y-111000000D03*
X144750000Y-121750000D03*
D21*
X189000000Y-95500000D03*
D20*
X164000000Y-104500000D03*
X169000000Y-101750000D03*
D22*
X145000000Y-130000000D03*
D20*
X189250000Y-130500000D03*
X166320000Y-112250000D03*
X152500000Y-117500000D03*
X175250000Y-118000000D03*
X159500000Y-105500000D03*
X154250000Y-112250000D03*
X184000000Y-123750000D03*
X145500000Y-116000000D03*
X152750000Y-112500000D03*
X170500000Y-120750000D03*
X154320000Y-104000000D03*
X149500000Y-135000000D03*
X170320000Y-133500000D03*
X176070000Y-132250000D03*
D21*
X144336941Y-95500000D03*
D22*
X189000000Y-100000000D03*
D20*
X175500000Y-103250000D03*
D21*
X189000000Y-123000000D03*
D20*
X167000000Y-125250000D03*
X179070000Y-110250000D03*
X154500000Y-109500000D03*
X149250000Y-100750000D03*
%TO.N,ADC_V_BAT*%
X154820000Y-107500000D03*
X165570000Y-109750000D03*
%TO.N,NRST*%
X163820000Y-121750000D03*
X168570000Y-111500000D03*
%TO.N,ADC_IR_DETECTOR_BOT*%
X181570000Y-112750000D03*
X170820000Y-105750000D03*
%TO.N,BAT+*%
X182820000Y-135500000D03*
%TO.N,BTN_MODE*%
X168750000Y-118500000D03*
%TO.N,BTN_MUTE*%
X160250000Y-129000000D03*
X167750000Y-118500000D03*
X165064266Y-125314266D03*
%TO.N,BTN_RES*%
X173500000Y-128000000D03*
%TO.N,LED_CTRL_BOT*%
X177250000Y-130951000D03*
X167000000Y-115250000D03*
%TO.N,LED_CTRL_TOP*%
X170500000Y-129500000D03*
X166320000Y-118250000D03*
%TO.N,BST_MODE*%
X167070000Y-110500000D03*
X158469702Y-110568954D03*
%TD*%
D23*
%TO.N,ADC_V_BAT*%
X160820000Y-107500000D02*
X154820000Y-107500000D01*
X165570000Y-109750000D02*
X163070000Y-109750000D01*
X163070000Y-109750000D02*
X160820000Y-107500000D01*
%TO.N,NRST*%
X169070000Y-112000000D02*
X169070000Y-115680000D01*
X168570000Y-111500000D02*
X169070000Y-112000000D01*
X166568943Y-118851000D02*
X166286100Y-118851000D01*
X166921000Y-118001057D02*
X166921000Y-118498943D01*
X166921000Y-118498943D02*
X166568943Y-118851000D01*
X169070000Y-115680000D02*
X166834971Y-117915029D01*
X166834971Y-117915029D02*
X166921000Y-118001057D01*
X166286100Y-118851000D02*
X163820000Y-121317100D01*
X163820000Y-121317100D02*
X163820000Y-121750000D01*
%TO.N,ADC_IR_DETECTOR_BOT*%
X181570000Y-112750000D02*
X181570000Y-111900057D01*
X181570000Y-111900057D02*
X174419943Y-104750000D01*
X173070000Y-104750000D02*
X171820000Y-104750000D01*
X171820000Y-104750000D02*
X170820000Y-105750000D01*
X174419943Y-104750000D02*
X173070000Y-104750000D01*
D24*
%TO.N,BAT+*%
X142500000Y-134500000D02*
X142271000Y-134271000D01*
X142271000Y-134271000D02*
X142271000Y-116359235D01*
X182820000Y-135500000D02*
X181320000Y-137000000D01*
X146408500Y-109523240D02*
X144385260Y-107500000D01*
X144500000Y-137000000D02*
X142500000Y-135000000D01*
X181320000Y-137000000D02*
X144500000Y-137000000D01*
X142271000Y-116359235D02*
X146408500Y-112221735D01*
X146408500Y-112221735D02*
X146408500Y-109523240D01*
X144385260Y-107500000D02*
X144257500Y-107500000D01*
X142500000Y-135000000D02*
X142500000Y-134500000D01*
D23*
%TO.N,BTN_MODE*%
X168785000Y-118785000D02*
X167570000Y-120000000D01*
X167820000Y-124250000D02*
X167820000Y-124750000D01*
X170121000Y-127051000D02*
X177646000Y-127051000D01*
X167570000Y-120000000D02*
X167570000Y-124000000D01*
X167820000Y-124750000D02*
X170121000Y-127051000D01*
X177646000Y-127051000D02*
X180745000Y-130150000D01*
X167570000Y-124000000D02*
X167820000Y-124250000D01*
%TO.N,BTN_MUTE*%
X160250000Y-129000000D02*
X158795000Y-129000000D01*
X167112900Y-119137100D02*
X167000000Y-119137100D01*
X165064266Y-125314266D02*
X165070000Y-125308532D01*
X167000000Y-119820000D02*
X165070000Y-121750000D01*
D25*
X158795000Y-129000000D02*
X157795000Y-130000000D01*
D23*
X167750000Y-118500000D02*
X167112900Y-119137100D01*
X167000000Y-119137100D02*
X167000000Y-119820000D01*
X165070000Y-125308532D02*
X165070000Y-121750000D01*
%TO.N,BTN_RES*%
X170100000Y-131400000D02*
X169195000Y-131400000D01*
X173500000Y-128000000D02*
X170100000Y-131400000D01*
%TO.N,LED_CTRL_BOT*%
X166240632Y-115555322D02*
X165750000Y-116045954D01*
X169955160Y-132201000D02*
X171205160Y-130951000D01*
X162228000Y-120067954D02*
X162228000Y-125994160D01*
X177250000Y-130951000D02*
X177369000Y-130951000D01*
X171205160Y-130951000D02*
X177250000Y-130951000D01*
X168434840Y-132201000D02*
X169955160Y-132201000D01*
X166740632Y-115509368D02*
X167000000Y-115250000D01*
X166295954Y-115509368D02*
X166740632Y-115509368D01*
X165750000Y-116545954D02*
X162228000Y-120067954D01*
X162228000Y-125994160D02*
X168434840Y-132201000D01*
X165750000Y-116045954D02*
X165750000Y-116545954D01*
X166295954Y-115509368D02*
X166250000Y-115555322D01*
X166250000Y-115555322D02*
X166240632Y-115555322D01*
%TO.N,LED_CTRL_TOP*%
X170500000Y-129500000D02*
X168371000Y-127371000D01*
X165417735Y-126597735D02*
X165324322Y-126597735D01*
X162629000Y-124401000D02*
X162629000Y-121941000D01*
X168242000Y-127371000D02*
X166191000Y-127371000D01*
X166320000Y-118250000D02*
X166445000Y-118125000D01*
X168371000Y-127371000D02*
X168242000Y-127371000D01*
X162629000Y-121941000D02*
X166320000Y-118250000D01*
X165324322Y-126597735D02*
X164972265Y-126245678D01*
X164972265Y-126245678D02*
X164972265Y-126152265D01*
X164972265Y-126152265D02*
X163221000Y-124401000D01*
X163221000Y-124401000D02*
X162629000Y-124401000D01*
X166191000Y-127371000D02*
X165417735Y-126597735D01*
%TO.N,BST_MODE*%
X167001046Y-110568954D02*
X167070000Y-110500000D01*
X158469702Y-110568954D02*
X167001046Y-110568954D01*
%TD*%
%TA.AperFunction,Conductor*%
%TO.N,GND*%
G36*
X167215445Y-123936929D02*
G01*
X167258710Y-123980194D01*
X167269500Y-124025139D01*
X167269500Y-124039564D01*
X167289977Y-124115985D01*
X167289979Y-124115989D01*
X167325914Y-124178231D01*
X167329540Y-124184511D01*
X167490505Y-124345476D01*
X167518281Y-124399991D01*
X167519500Y-124415478D01*
X167519500Y-124789564D01*
X167539978Y-124865987D01*
X167567563Y-124913766D01*
X167567562Y-124913766D01*
X167579538Y-124934508D01*
X167579540Y-124934511D01*
X169880540Y-127235511D01*
X169880539Y-127235511D01*
X169936489Y-127291460D01*
X170005007Y-127331019D01*
X170005011Y-127331021D01*
X170081435Y-127351499D01*
X170081437Y-127351500D01*
X170081438Y-127351500D01*
X170160562Y-127351500D01*
X173252761Y-127351500D01*
X173310952Y-127370407D01*
X173346916Y-127419907D01*
X173346916Y-127481093D01*
X173310952Y-127530593D01*
X173302261Y-127536236D01*
X173192690Y-127599496D01*
X173099496Y-127692690D01*
X173033609Y-127806809D01*
X172999500Y-127934109D01*
X172999500Y-128034520D01*
X172980593Y-128092711D01*
X172970504Y-128104524D01*
X170210558Y-130864469D01*
X170156041Y-130892246D01*
X170095609Y-130882675D01*
X170060899Y-130853254D01*
X170056759Y-130847644D01*
X170042150Y-130827850D01*
X170042146Y-130827847D01*
X170042144Y-130827845D01*
X169932883Y-130747207D01*
X169804703Y-130702355D01*
X169804694Y-130702353D01*
X169774274Y-130699500D01*
X169774266Y-130699500D01*
X168615734Y-130699500D01*
X168615725Y-130699500D01*
X168585305Y-130702353D01*
X168585296Y-130702355D01*
X168457116Y-130747207D01*
X168347855Y-130827845D01*
X168347845Y-130827855D01*
X168267207Y-130937116D01*
X168222355Y-131065296D01*
X168222353Y-131065305D01*
X168219500Y-131095725D01*
X168219500Y-131321681D01*
X168200593Y-131379872D01*
X168151093Y-131415836D01*
X168089907Y-131415836D01*
X168050496Y-131391685D01*
X162557496Y-125898685D01*
X162529719Y-125844168D01*
X162528500Y-125828681D01*
X162528500Y-124800500D01*
X162547407Y-124742309D01*
X162596907Y-124706345D01*
X162627500Y-124701500D01*
X163055521Y-124701500D01*
X163113712Y-124720407D01*
X163125525Y-124730496D01*
X164649895Y-126254866D01*
X164671523Y-126287392D01*
X164673896Y-126293196D01*
X164692244Y-126361667D01*
X164722010Y-126413224D01*
X164731805Y-126430189D01*
X165139811Y-126838195D01*
X165139813Y-126838196D01*
X165139815Y-126838198D01*
X165208330Y-126877755D01*
X165208328Y-126877755D01*
X165208332Y-126877756D01*
X165208334Y-126877757D01*
X165270754Y-126894482D01*
X165315133Y-126920104D01*
X165950540Y-127555511D01*
X165950539Y-127555511D01*
X166006489Y-127611460D01*
X166075007Y-127651019D01*
X166075011Y-127651021D01*
X166151435Y-127671499D01*
X166151437Y-127671500D01*
X166151438Y-127671500D01*
X166230562Y-127671500D01*
X168202438Y-127671500D01*
X168205521Y-127671500D01*
X168263712Y-127690407D01*
X168275525Y-127700496D01*
X169970504Y-129395475D01*
X169998281Y-129449992D01*
X169999500Y-129465479D01*
X169999500Y-129565892D01*
X170019286Y-129639735D01*
X170033609Y-129693190D01*
X170099496Y-129807309D01*
X170099498Y-129807311D01*
X170099500Y-129807314D01*
X170192686Y-129900500D01*
X170192688Y-129900501D01*
X170192690Y-129900503D01*
X170306810Y-129966390D01*
X170306808Y-129966390D01*
X170306812Y-129966391D01*
X170306814Y-129966392D01*
X170434108Y-130000500D01*
X170434110Y-130000500D01*
X170565890Y-130000500D01*
X170565892Y-130000500D01*
X170693186Y-129966392D01*
X170693188Y-129966390D01*
X170693190Y-129966390D01*
X170807309Y-129900503D01*
X170807309Y-129900502D01*
X170807314Y-129900500D01*
X170900500Y-129807314D01*
X170937957Y-129742437D01*
X170966390Y-129693190D01*
X170966390Y-129693188D01*
X170966392Y-129693186D01*
X171000500Y-129565892D01*
X171000500Y-129434108D01*
X170966392Y-129306814D01*
X170966390Y-129306811D01*
X170966390Y-129306809D01*
X170900503Y-129192690D01*
X170900501Y-129192688D01*
X170900500Y-129192686D01*
X170807314Y-129099500D01*
X170807311Y-129099498D01*
X170807309Y-129099496D01*
X170693189Y-129033609D01*
X170693191Y-129033609D01*
X170643799Y-129020375D01*
X170565892Y-128999500D01*
X170465479Y-128999500D01*
X170407288Y-128980593D01*
X170395475Y-128970504D01*
X169490861Y-128065890D01*
X168555511Y-127130540D01*
X168555508Y-127130538D01*
X168486992Y-127090980D01*
X168486988Y-127090978D01*
X168410564Y-127070500D01*
X168410562Y-127070500D01*
X168281562Y-127070500D01*
X166356479Y-127070500D01*
X166298288Y-127051593D01*
X166286475Y-127041504D01*
X165954662Y-126709691D01*
X165602246Y-126357275D01*
X165602243Y-126357273D01*
X165533727Y-126317715D01*
X165533725Y-126317714D01*
X165471302Y-126300987D01*
X165426923Y-126275365D01*
X165294634Y-126143076D01*
X165269011Y-126098694D01*
X165267650Y-126093616D01*
X165258956Y-126061167D01*
X165258956Y-126061166D01*
X165258956Y-126061165D01*
X165252287Y-126036278D01*
X165252287Y-126036277D01*
X165212725Y-125967754D01*
X165212723Y-125967752D01*
X165195867Y-125950895D01*
X165168090Y-125896378D01*
X165177663Y-125835946D01*
X165220929Y-125792682D01*
X165240240Y-125785269D01*
X165257452Y-125780658D01*
X165371580Y-125714766D01*
X165464766Y-125621580D01*
X165530658Y-125507452D01*
X165564766Y-125380158D01*
X165564766Y-125248374D01*
X165530658Y-125121080D01*
X165530656Y-125121076D01*
X165530656Y-125121075D01*
X165464769Y-125006956D01*
X165464767Y-125006954D01*
X165464766Y-125006952D01*
X165399494Y-124941680D01*
X165371719Y-124887166D01*
X165370500Y-124871679D01*
X165370500Y-124025139D01*
X165389407Y-123966948D01*
X165438907Y-123930984D01*
X165500093Y-123930984D01*
X165539501Y-123955133D01*
X165650345Y-124065977D01*
X165822402Y-124180941D01*
X166013580Y-124260130D01*
X166216535Y-124300500D01*
X166216536Y-124300500D01*
X166423464Y-124300500D01*
X166423465Y-124300500D01*
X166626420Y-124260130D01*
X166817598Y-124180941D01*
X166989655Y-124065977D01*
X167100498Y-123955133D01*
X167155013Y-123927358D01*
X167215445Y-123936929D01*
G37*
%TD.AperFunction*%
%TA.AperFunction,Conductor*%
G36*
X188572992Y-93250681D02*
G01*
X188865309Y-93268362D01*
X188877164Y-93269802D01*
X189162281Y-93322051D01*
X189173883Y-93324911D01*
X189450623Y-93411147D01*
X189461786Y-93415380D01*
X189726119Y-93534347D01*
X189736704Y-93539903D01*
X189984758Y-93689856D01*
X189994583Y-93696638D01*
X190222755Y-93875399D01*
X190231704Y-93883326D01*
X190436673Y-94088295D01*
X190444600Y-94097244D01*
X190604059Y-94300779D01*
X190623356Y-94325409D01*
X190630147Y-94335248D01*
X190780096Y-94583295D01*
X190785652Y-94593880D01*
X190904616Y-94858206D01*
X190908855Y-94869384D01*
X190995087Y-95146113D01*
X190997948Y-95157721D01*
X191050196Y-95442828D01*
X191051637Y-95454695D01*
X191069319Y-95747006D01*
X191069500Y-95752984D01*
X191069500Y-134747015D01*
X191069319Y-134752993D01*
X191051637Y-135045304D01*
X191050196Y-135057171D01*
X190997948Y-135342278D01*
X190995087Y-135353886D01*
X190908855Y-135630615D01*
X190904616Y-135641793D01*
X190785652Y-135906119D01*
X190780096Y-135916704D01*
X190630147Y-136164751D01*
X190623356Y-136174590D01*
X190444600Y-136402755D01*
X190436673Y-136411704D01*
X190231704Y-136616673D01*
X190222755Y-136624600D01*
X189994590Y-136803356D01*
X189984751Y-136810147D01*
X189736704Y-136960096D01*
X189726119Y-136965652D01*
X189461793Y-137084616D01*
X189450615Y-137088855D01*
X189173886Y-137175087D01*
X189162278Y-137177948D01*
X188877171Y-137230196D01*
X188865304Y-137231637D01*
X188593993Y-137248048D01*
X188572991Y-137249319D01*
X188567015Y-137249500D01*
X181875901Y-137249500D01*
X181817710Y-137230593D01*
X181781746Y-137181093D01*
X181781746Y-137119907D01*
X181805897Y-137080496D01*
X182048633Y-136837760D01*
X182867138Y-136019253D01*
X182911514Y-135993633D01*
X183013186Y-135966392D01*
X183127314Y-135900500D01*
X183220500Y-135807314D01*
X183286392Y-135693186D01*
X183320500Y-135565892D01*
X183320500Y-135434108D01*
X183286392Y-135306814D01*
X183286390Y-135306810D01*
X183286390Y-135306809D01*
X183220503Y-135192690D01*
X183220501Y-135192688D01*
X183220500Y-135192686D01*
X183127314Y-135099500D01*
X183127311Y-135099498D01*
X183127309Y-135099496D01*
X183013189Y-135033609D01*
X183013191Y-135033609D01*
X182963799Y-135020375D01*
X182885892Y-134999500D01*
X182754108Y-134999500D01*
X182676200Y-135020375D01*
X182626809Y-135033609D01*
X182512690Y-135099496D01*
X182419496Y-135192690D01*
X182353609Y-135306810D01*
X182353607Y-135306814D01*
X182326365Y-135408482D01*
X182300743Y-135452862D01*
X181183103Y-136570504D01*
X181128586Y-136598281D01*
X181113099Y-136599500D01*
X144706901Y-136599500D01*
X144648710Y-136580593D01*
X144636897Y-136570504D01*
X142929496Y-134863103D01*
X142901719Y-134808586D01*
X142900500Y-134793099D01*
X142900500Y-134447274D01*
X142900500Y-134447273D01*
X142873207Y-134345413D01*
X142873207Y-134345412D01*
X142844520Y-134295725D01*
X162969500Y-134295725D01*
X162969500Y-134904274D01*
X162972353Y-134934694D01*
X162972355Y-134934703D01*
X163017207Y-135062883D01*
X163097845Y-135172144D01*
X163097847Y-135172146D01*
X163097850Y-135172150D01*
X163097853Y-135172152D01*
X163097855Y-135172154D01*
X163207116Y-135252792D01*
X163207117Y-135252792D01*
X163207118Y-135252793D01*
X163335301Y-135297646D01*
X163365725Y-135300499D01*
X163365727Y-135300500D01*
X163365734Y-135300500D01*
X164524273Y-135300500D01*
X164524273Y-135300499D01*
X164554699Y-135297646D01*
X164682882Y-135252793D01*
X164792150Y-135172150D01*
X164872793Y-135062882D01*
X164917646Y-134934699D01*
X164920499Y-134904273D01*
X164920500Y-134904273D01*
X164920500Y-134295727D01*
X164920499Y-134295725D01*
X168219500Y-134295725D01*
X168219500Y-134904274D01*
X168222353Y-134934694D01*
X168222355Y-134934703D01*
X168267207Y-135062883D01*
X168347845Y-135172144D01*
X168347847Y-135172146D01*
X168347850Y-135172150D01*
X168347853Y-135172152D01*
X168347855Y-135172154D01*
X168457116Y-135252792D01*
X168457117Y-135252792D01*
X168457118Y-135252793D01*
X168585301Y-135297646D01*
X168615725Y-135300499D01*
X168615727Y-135300500D01*
X168615734Y-135300500D01*
X169774273Y-135300500D01*
X169774273Y-135300499D01*
X169804699Y-135297646D01*
X169932882Y-135252793D01*
X170042150Y-135172150D01*
X170122793Y-135062882D01*
X170167646Y-134934699D01*
X170170499Y-134904273D01*
X170170500Y-134904273D01*
X170170500Y-134295727D01*
X170170499Y-134295725D01*
X170167646Y-134265305D01*
X170167646Y-134265301D01*
X170122793Y-134137118D01*
X170120567Y-134134102D01*
X170042154Y-134027855D01*
X170042152Y-134027853D01*
X170042150Y-134027850D01*
X170042146Y-134027847D01*
X170042144Y-134027845D01*
X169932883Y-133947207D01*
X169804703Y-133902355D01*
X169804694Y-133902353D01*
X169774274Y-133899500D01*
X169774266Y-133899500D01*
X168615734Y-133899500D01*
X168615725Y-133899500D01*
X168585305Y-133902353D01*
X168585296Y-133902355D01*
X168457116Y-133947207D01*
X168347855Y-134027845D01*
X168347845Y-134027855D01*
X168267207Y-134137116D01*
X168222355Y-134265296D01*
X168222353Y-134265305D01*
X168219500Y-134295725D01*
X164920499Y-134295725D01*
X164917646Y-134265305D01*
X164917646Y-134265301D01*
X164872793Y-134137118D01*
X164870567Y-134134102D01*
X164792154Y-134027855D01*
X164792152Y-134027853D01*
X164792150Y-134027850D01*
X164792146Y-134027847D01*
X164792144Y-134027845D01*
X164682883Y-133947207D01*
X164554703Y-133902355D01*
X164554694Y-133902353D01*
X164524274Y-133899500D01*
X164524266Y-133899500D01*
X163365734Y-133899500D01*
X163365725Y-133899500D01*
X163335305Y-133902353D01*
X163335296Y-133902355D01*
X163207116Y-133947207D01*
X163097855Y-134027845D01*
X163097845Y-134027855D01*
X163017207Y-134137116D01*
X162972355Y-134265296D01*
X162972353Y-134265305D01*
X162969500Y-134295725D01*
X142844520Y-134295725D01*
X142826957Y-134265305D01*
X142820483Y-134254091D01*
X142820479Y-134254086D01*
X142700496Y-134134102D01*
X142672719Y-134079586D01*
X142671500Y-134064099D01*
X142671500Y-133045725D01*
X151419500Y-133045725D01*
X151419500Y-133654274D01*
X151422353Y-133684694D01*
X151422355Y-133684703D01*
X151467207Y-133812883D01*
X151547845Y-133922144D01*
X151547847Y-133922146D01*
X151547850Y-133922150D01*
X151547853Y-133922152D01*
X151547855Y-133922154D01*
X151657116Y-134002792D01*
X151657117Y-134002792D01*
X151657118Y-134002793D01*
X151785301Y-134047646D01*
X151815725Y-134050499D01*
X151815727Y-134050500D01*
X151815734Y-134050500D01*
X152974273Y-134050500D01*
X152974273Y-134050499D01*
X153004699Y-134047646D01*
X153132882Y-134002793D01*
X153242150Y-133922150D01*
X153322793Y-133812882D01*
X153367646Y-133684699D01*
X153370499Y-133654273D01*
X153370500Y-133654273D01*
X153370500Y-133045727D01*
X153370499Y-133045725D01*
X156669500Y-133045725D01*
X156669500Y-133654274D01*
X156672353Y-133684694D01*
X156672355Y-133684703D01*
X156717207Y-133812883D01*
X156797845Y-133922144D01*
X156797847Y-133922146D01*
X156797850Y-133922150D01*
X156797853Y-133922152D01*
X156797855Y-133922154D01*
X156907116Y-134002792D01*
X156907117Y-134002792D01*
X156907118Y-134002793D01*
X157035301Y-134047646D01*
X157065725Y-134050499D01*
X157065727Y-134050500D01*
X157065734Y-134050500D01*
X158224273Y-134050500D01*
X158224273Y-134050499D01*
X158254699Y-134047646D01*
X158382882Y-134002793D01*
X158492150Y-133922150D01*
X158572793Y-133812882D01*
X158617646Y-133684699D01*
X158620499Y-133654273D01*
X158620500Y-133654273D01*
X158620500Y-133045727D01*
X158620499Y-133045725D01*
X174519500Y-133045725D01*
X174519500Y-133654274D01*
X174522353Y-133684694D01*
X174522355Y-133684703D01*
X174567207Y-133812883D01*
X174647845Y-133922144D01*
X174647847Y-133922146D01*
X174647850Y-133922150D01*
X174647853Y-133922152D01*
X174647855Y-133922154D01*
X174757116Y-134002792D01*
X174757117Y-134002792D01*
X174757118Y-134002793D01*
X174885301Y-134047646D01*
X174915725Y-134050499D01*
X174915727Y-134050500D01*
X174915734Y-134050500D01*
X176074273Y-134050500D01*
X176074273Y-134050499D01*
X176104699Y-134047646D01*
X176232882Y-134002793D01*
X176342150Y-133922150D01*
X176422793Y-133812882D01*
X176467646Y-133684699D01*
X176470499Y-133654273D01*
X176470500Y-133654273D01*
X176470500Y-133045727D01*
X176470499Y-133045725D01*
X179769500Y-133045725D01*
X179769500Y-133654274D01*
X179772353Y-133684694D01*
X179772355Y-133684703D01*
X179817207Y-133812883D01*
X179897845Y-133922144D01*
X179897847Y-133922146D01*
X179897850Y-133922150D01*
X179897853Y-133922152D01*
X179897855Y-133922154D01*
X180007116Y-134002792D01*
X180007117Y-134002792D01*
X180007118Y-134002793D01*
X180135301Y-134047646D01*
X180165725Y-134050499D01*
X180165727Y-134050500D01*
X180165734Y-134050500D01*
X181324273Y-134050500D01*
X181324273Y-134050499D01*
X181354699Y-134047646D01*
X181482882Y-134002793D01*
X181592150Y-133922150D01*
X181672793Y-133812882D01*
X181717646Y-133684699D01*
X181720499Y-133654273D01*
X181720500Y-133654273D01*
X181720500Y-133045727D01*
X181720499Y-133045725D01*
X181717646Y-133015305D01*
X181717646Y-133015301D01*
X181672793Y-132887118D01*
X181592150Y-132777850D01*
X181592146Y-132777847D01*
X181592144Y-132777845D01*
X181482883Y-132697207D01*
X181354703Y-132652355D01*
X181354694Y-132652353D01*
X181324274Y-132649500D01*
X181324266Y-132649500D01*
X180165734Y-132649500D01*
X180165725Y-132649500D01*
X180135305Y-132652353D01*
X180135296Y-132652355D01*
X180007116Y-132697207D01*
X179897855Y-132777845D01*
X179897845Y-132777855D01*
X179817207Y-132887116D01*
X179772355Y-133015296D01*
X179772353Y-133015305D01*
X179769500Y-133045725D01*
X176470499Y-133045725D01*
X176467646Y-133015305D01*
X176467646Y-133015301D01*
X176422793Y-132887118D01*
X176342150Y-132777850D01*
X176342146Y-132777847D01*
X176342144Y-132777845D01*
X176232883Y-132697207D01*
X176104703Y-132652355D01*
X176104694Y-132652353D01*
X176074274Y-132649500D01*
X176074266Y-132649500D01*
X174915734Y-132649500D01*
X174915725Y-132649500D01*
X174885305Y-132652353D01*
X174885296Y-132652355D01*
X174757116Y-132697207D01*
X174647855Y-132777845D01*
X174647845Y-132777855D01*
X174567207Y-132887116D01*
X174522355Y-133015296D01*
X174522353Y-133015305D01*
X174519500Y-133045725D01*
X158620499Y-133045725D01*
X158617646Y-133015305D01*
X158617646Y-133015301D01*
X158572793Y-132887118D01*
X158492150Y-132777850D01*
X158492146Y-132777847D01*
X158492144Y-132777845D01*
X158382883Y-132697207D01*
X158254703Y-132652355D01*
X158254694Y-132652353D01*
X158224274Y-132649500D01*
X158224266Y-132649500D01*
X157065734Y-132649500D01*
X157065725Y-132649500D01*
X157035305Y-132652353D01*
X157035296Y-132652355D01*
X156907116Y-132697207D01*
X156797855Y-132777845D01*
X156797845Y-132777855D01*
X156717207Y-132887116D01*
X156672355Y-133015296D01*
X156672353Y-133015305D01*
X156669500Y-133045725D01*
X153370499Y-133045725D01*
X153367646Y-133015305D01*
X153367646Y-133015301D01*
X153322793Y-132887118D01*
X153242150Y-132777850D01*
X153242146Y-132777847D01*
X153242144Y-132777845D01*
X153132883Y-132697207D01*
X153004703Y-132652355D01*
X153004694Y-132652353D01*
X152974274Y-132649500D01*
X152974266Y-132649500D01*
X151815734Y-132649500D01*
X151815725Y-132649500D01*
X151785305Y-132652353D01*
X151785296Y-132652355D01*
X151657116Y-132697207D01*
X151547855Y-132777845D01*
X151547845Y-132777855D01*
X151467207Y-132887116D01*
X151422355Y-133015296D01*
X151422353Y-133015305D01*
X151419500Y-133045725D01*
X142671500Y-133045725D01*
X142671500Y-131550001D01*
X162670001Y-131550001D01*
X162670001Y-131699986D01*
X162680492Y-131802687D01*
X162680495Y-131802699D01*
X162735643Y-131969124D01*
X162827680Y-132118340D01*
X162951659Y-132242319D01*
X163100875Y-132334356D01*
X163267306Y-132389506D01*
X163370012Y-132399999D01*
X163794998Y-132399999D01*
X163795000Y-132399998D01*
X163795000Y-131550001D01*
X164095000Y-131550001D01*
X164095000Y-132399998D01*
X164095001Y-132399999D01*
X164519986Y-132399999D01*
X164622687Y-132389507D01*
X164622699Y-132389504D01*
X164789124Y-132334356D01*
X164938340Y-132242319D01*
X165062319Y-132118340D01*
X165154356Y-131969124D01*
X165209506Y-131802693D01*
X165220000Y-131699987D01*
X165220000Y-131550001D01*
X165219999Y-131550000D01*
X164095001Y-131550000D01*
X164095000Y-131550001D01*
X163795000Y-131550001D01*
X163794999Y-131550000D01*
X162670002Y-131550000D01*
X162670001Y-131550001D01*
X142671500Y-131550001D01*
X142671500Y-130300001D01*
X151120001Y-130300001D01*
X151120001Y-130449986D01*
X151130492Y-130552687D01*
X151130495Y-130552699D01*
X151185643Y-130719124D01*
X151277680Y-130868340D01*
X151401659Y-130992319D01*
X151550875Y-131084356D01*
X151717306Y-131139506D01*
X151820012Y-131149999D01*
X152244998Y-131149999D01*
X152245000Y-131149998D01*
X152245000Y-130300001D01*
X152545000Y-130300001D01*
X152545000Y-131149998D01*
X152545001Y-131149999D01*
X152969986Y-131149999D01*
X153072687Y-131139507D01*
X153072699Y-131139504D01*
X153191878Y-131100012D01*
X162670000Y-131100012D01*
X162670000Y-131249999D01*
X162670001Y-131250000D01*
X163794999Y-131250000D01*
X163795000Y-131249999D01*
X163795000Y-130400001D01*
X164095000Y-130400001D01*
X164095000Y-131249999D01*
X164095001Y-131250000D01*
X165219998Y-131250000D01*
X165219999Y-131249999D01*
X165219999Y-131100013D01*
X165209507Y-130997312D01*
X165209504Y-130997300D01*
X165154356Y-130830875D01*
X165062319Y-130681659D01*
X164938340Y-130557680D01*
X164789124Y-130465643D01*
X164622693Y-130410493D01*
X164519987Y-130400000D01*
X164095001Y-130400000D01*
X164095000Y-130400001D01*
X163795000Y-130400001D01*
X163794999Y-130400000D01*
X163370013Y-130400000D01*
X163267312Y-130410492D01*
X163267300Y-130410495D01*
X163100875Y-130465643D01*
X162951659Y-130557680D01*
X162827680Y-130681659D01*
X162735643Y-130830875D01*
X162680493Y-130997306D01*
X162670000Y-131100012D01*
X153191878Y-131100012D01*
X153239124Y-131084356D01*
X153354410Y-131013247D01*
X153354422Y-131013240D01*
X153388342Y-130992317D01*
X153512319Y-130868340D01*
X153604356Y-130719124D01*
X153659506Y-130552693D01*
X153670000Y-130449987D01*
X153670000Y-130300001D01*
X153669999Y-130300000D01*
X152545001Y-130300000D01*
X152545000Y-130300001D01*
X152245000Y-130300001D01*
X152244999Y-130300000D01*
X151120002Y-130300000D01*
X151120001Y-130300001D01*
X142671500Y-130300001D01*
X142671500Y-129850012D01*
X151120000Y-129850012D01*
X151120000Y-129999999D01*
X151120001Y-130000000D01*
X152244999Y-130000000D01*
X152245000Y-129999999D01*
X152245000Y-129150001D01*
X152545000Y-129150001D01*
X152545000Y-129999999D01*
X152545001Y-130000000D01*
X153669998Y-130000000D01*
X153669999Y-129999999D01*
X153669999Y-129850026D01*
X153669997Y-129850000D01*
X153669560Y-129845725D01*
X156669500Y-129845725D01*
X156669500Y-130454274D01*
X156672353Y-130484694D01*
X156672355Y-130484703D01*
X156717207Y-130612883D01*
X156797845Y-130722144D01*
X156797847Y-130722146D01*
X156797850Y-130722150D01*
X156797853Y-130722152D01*
X156797855Y-130722154D01*
X156907116Y-130802792D01*
X156907117Y-130802792D01*
X156907118Y-130802793D01*
X157035301Y-130847646D01*
X157065725Y-130850499D01*
X157065727Y-130850500D01*
X157065734Y-130850500D01*
X158224273Y-130850500D01*
X158224273Y-130850499D01*
X158254699Y-130847646D01*
X158382882Y-130802793D01*
X158492150Y-130722150D01*
X158572793Y-130612882D01*
X158617646Y-130484699D01*
X158620499Y-130454273D01*
X158620500Y-130454273D01*
X158620500Y-129845727D01*
X158620499Y-129845725D01*
X158617646Y-129815305D01*
X158617646Y-129815301D01*
X158592150Y-129742437D01*
X158590777Y-129681267D01*
X158615591Y-129639735D01*
X158925831Y-129329496D01*
X158980347Y-129301719D01*
X158995834Y-129300500D01*
X159801679Y-129300500D01*
X159859870Y-129319407D01*
X159871676Y-129329490D01*
X159942686Y-129400500D01*
X159942688Y-129400501D01*
X159942690Y-129400503D01*
X160056810Y-129466390D01*
X160056808Y-129466390D01*
X160056812Y-129466391D01*
X160056814Y-129466392D01*
X160184108Y-129500500D01*
X160184110Y-129500500D01*
X160315890Y-129500500D01*
X160315892Y-129500500D01*
X160443186Y-129466392D01*
X160443188Y-129466390D01*
X160443190Y-129466390D01*
X160557309Y-129400503D01*
X160557309Y-129400502D01*
X160557314Y-129400500D01*
X160650500Y-129307314D01*
X160654434Y-129300500D01*
X160716390Y-129193190D01*
X160716390Y-129193188D01*
X160716392Y-129193186D01*
X160750500Y-129065892D01*
X160750500Y-128934108D01*
X160716392Y-128806814D01*
X160716390Y-128806811D01*
X160716390Y-128806809D01*
X160650503Y-128692690D01*
X160650501Y-128692688D01*
X160650500Y-128692686D01*
X160557314Y-128599500D01*
X160557311Y-128599498D01*
X160557309Y-128599496D01*
X160443189Y-128533609D01*
X160443191Y-128533609D01*
X160393799Y-128520375D01*
X160315892Y-128499500D01*
X160184108Y-128499500D01*
X160106200Y-128520375D01*
X160056809Y-128533609D01*
X159942690Y-128599496D01*
X159942689Y-128599497D01*
X159942686Y-128599499D01*
X159942686Y-128599500D01*
X159871680Y-128670505D01*
X159817166Y-128698281D01*
X159801679Y-128699500D01*
X158944189Y-128699500D01*
X158918565Y-128696126D01*
X158837855Y-128674499D01*
X158837853Y-128674499D01*
X158752148Y-128674499D01*
X158752145Y-128674499D01*
X158669362Y-128696681D01*
X158669358Y-128696683D01*
X158595143Y-128739531D01*
X158595138Y-128739535D01*
X157914168Y-129420504D01*
X157859652Y-129448281D01*
X157844165Y-129449500D01*
X157065725Y-129449500D01*
X157035305Y-129452353D01*
X157035296Y-129452355D01*
X156907116Y-129497207D01*
X156797855Y-129577845D01*
X156797845Y-129577855D01*
X156717207Y-129687116D01*
X156672355Y-129815296D01*
X156672353Y-129815305D01*
X156669500Y-129845725D01*
X153669560Y-129845725D01*
X153659507Y-129747312D01*
X153659504Y-129747300D01*
X153604356Y-129580875D01*
X153512319Y-129431659D01*
X153388340Y-129307680D01*
X153239124Y-129215643D01*
X153072693Y-129160493D01*
X152969987Y-129150000D01*
X152545001Y-129150000D01*
X152545000Y-129150001D01*
X152245000Y-129150001D01*
X152244999Y-129150000D01*
X151820013Y-129150000D01*
X151717312Y-129160492D01*
X151717300Y-129160495D01*
X151550875Y-129215643D01*
X151401659Y-129307680D01*
X151277680Y-129431659D01*
X151185643Y-129580875D01*
X151130493Y-129747306D01*
X151120000Y-129850012D01*
X142671500Y-129850012D01*
X142671500Y-125906381D01*
X154189500Y-125906381D01*
X154189500Y-126093618D01*
X154226026Y-126277249D01*
X154297677Y-126450229D01*
X154297681Y-126450238D01*
X154372065Y-126561559D01*
X154401698Y-126605908D01*
X154534092Y-126738302D01*
X154600463Y-126782649D01*
X154689761Y-126842318D01*
X154689767Y-126842320D01*
X154689769Y-126842322D01*
X154862749Y-126913973D01*
X155046384Y-126950500D01*
X155046385Y-126950500D01*
X155233615Y-126950500D01*
X155233616Y-126950500D01*
X155417251Y-126913973D01*
X155590231Y-126842322D01*
X155590234Y-126842319D01*
X155590238Y-126842318D01*
X155635187Y-126812282D01*
X155745908Y-126738302D01*
X155878302Y-126605908D01*
X155952282Y-126495187D01*
X155982318Y-126450238D01*
X155982319Y-126450234D01*
X155982322Y-126450231D01*
X156053973Y-126277251D01*
X156090500Y-126093616D01*
X156090500Y-125906384D01*
X156090499Y-125906381D01*
X156729500Y-125906381D01*
X156729500Y-126093618D01*
X156766026Y-126277249D01*
X156837677Y-126450229D01*
X156837681Y-126450238D01*
X156912065Y-126561559D01*
X156941698Y-126605908D01*
X157074092Y-126738302D01*
X157140463Y-126782649D01*
X157229761Y-126842318D01*
X157229767Y-126842320D01*
X157229769Y-126842322D01*
X157402749Y-126913973D01*
X157586384Y-126950500D01*
X157586385Y-126950500D01*
X157773615Y-126950500D01*
X157773616Y-126950500D01*
X157957251Y-126913973D01*
X158130231Y-126842322D01*
X158130234Y-126842319D01*
X158130238Y-126842318D01*
X158175187Y-126812282D01*
X158285908Y-126738302D01*
X158418302Y-126605908D01*
X158492282Y-126495187D01*
X158522318Y-126450238D01*
X158522319Y-126450234D01*
X158522322Y-126450231D01*
X158593973Y-126277251D01*
X158630500Y-126093616D01*
X158630500Y-125906384D01*
X158593973Y-125722749D01*
X158522322Y-125549769D01*
X158522320Y-125549767D01*
X158522318Y-125549761D01*
X158462649Y-125460463D01*
X158418302Y-125394092D01*
X158285908Y-125261698D01*
X158210816Y-125211523D01*
X158130238Y-125157681D01*
X158130229Y-125157677D01*
X157957249Y-125086026D01*
X157773618Y-125049500D01*
X157773616Y-125049500D01*
X157586384Y-125049500D01*
X157586381Y-125049500D01*
X157402750Y-125086026D01*
X157229770Y-125157677D01*
X157229761Y-125157681D01*
X157074092Y-125261698D01*
X157074088Y-125261701D01*
X156941701Y-125394088D01*
X156941698Y-125394092D01*
X156837681Y-125549761D01*
X156837677Y-125549770D01*
X156766026Y-125722750D01*
X156729500Y-125906381D01*
X156090499Y-125906381D01*
X156053973Y-125722749D01*
X155982322Y-125549769D01*
X155982320Y-125549767D01*
X155982318Y-125549761D01*
X155922649Y-125460463D01*
X155878302Y-125394092D01*
X155745908Y-125261698D01*
X155670816Y-125211523D01*
X155590238Y-125157681D01*
X155590229Y-125157677D01*
X155417249Y-125086026D01*
X155233618Y-125049500D01*
X155233616Y-125049500D01*
X155046384Y-125049500D01*
X155046381Y-125049500D01*
X154862750Y-125086026D01*
X154689770Y-125157677D01*
X154689761Y-125157681D01*
X154534092Y-125261698D01*
X154534088Y-125261701D01*
X154401701Y-125394088D01*
X154401698Y-125394092D01*
X154297681Y-125549761D01*
X154297677Y-125549770D01*
X154226026Y-125722750D01*
X154189500Y-125906381D01*
X142671500Y-125906381D01*
X142671500Y-123030515D01*
X148782000Y-123030515D01*
X148782000Y-123219484D01*
X148811558Y-123406113D01*
X148869953Y-123585832D01*
X148953600Y-123750000D01*
X148955740Y-123754199D01*
X149066810Y-123907073D01*
X149200427Y-124040690D01*
X149353301Y-124151760D01*
X149521668Y-124237547D01*
X149701382Y-124295940D01*
X149701383Y-124295940D01*
X149701386Y-124295941D01*
X149888016Y-124325500D01*
X149888019Y-124325500D01*
X150076984Y-124325500D01*
X150263613Y-124295941D01*
X150263614Y-124295940D01*
X150263618Y-124295940D01*
X150443332Y-124237547D01*
X150611699Y-124151760D01*
X150764573Y-124040690D01*
X150898190Y-123907073D01*
X151009260Y-123754199D01*
X151095047Y-123585832D01*
X151153440Y-123406118D01*
X151161779Y-123353467D01*
X151183000Y-123219484D01*
X151183000Y-123030515D01*
X151153441Y-122843886D01*
X151123716Y-122752402D01*
X151095047Y-122664168D01*
X151009260Y-122495801D01*
X150898190Y-122342927D01*
X150764573Y-122209310D01*
X150611699Y-122098240D01*
X150611698Y-122098239D01*
X150611696Y-122098238D01*
X150443332Y-122012453D01*
X150263613Y-121954058D01*
X150076984Y-121924500D01*
X150076981Y-121924500D01*
X149888019Y-121924500D01*
X149888016Y-121924500D01*
X149701386Y-121954058D01*
X149521667Y-122012453D01*
X149353303Y-122098238D01*
X149200428Y-122209309D01*
X149066809Y-122342928D01*
X148955738Y-122495803D01*
X148869953Y-122664167D01*
X148811558Y-122843886D01*
X148782000Y-123030515D01*
X142671500Y-123030515D01*
X142671500Y-120028389D01*
X161927500Y-120028389D01*
X161927500Y-126033724D01*
X161947978Y-126110148D01*
X161947979Y-126110149D01*
X161949441Y-126112680D01*
X161949447Y-126112705D01*
X161949453Y-126112702D01*
X161949454Y-126112703D01*
X161987540Y-126178671D01*
X168194380Y-132385511D01*
X168194379Y-132385511D01*
X168250329Y-132441460D01*
X168318847Y-132481019D01*
X168318851Y-132481021D01*
X168395275Y-132501499D01*
X168395277Y-132501500D01*
X168395278Y-132501500D01*
X169994723Y-132501500D01*
X169994723Y-132501499D01*
X170071149Y-132481021D01*
X170139671Y-132441460D01*
X170195620Y-132385511D01*
X171300635Y-131280496D01*
X171355152Y-131252719D01*
X171370639Y-131251500D01*
X176801679Y-131251500D01*
X176859870Y-131270407D01*
X176871676Y-131280490D01*
X176942686Y-131351500D01*
X176942688Y-131351501D01*
X176942690Y-131351503D01*
X177056810Y-131417390D01*
X177056808Y-131417390D01*
X177056812Y-131417391D01*
X177056814Y-131417392D01*
X177184108Y-131451500D01*
X177184110Y-131451500D01*
X177315890Y-131451500D01*
X177315892Y-131451500D01*
X177443186Y-131417392D01*
X177443188Y-131417390D01*
X177443190Y-131417390D01*
X177557309Y-131351503D01*
X177557309Y-131351502D01*
X177557314Y-131351500D01*
X177650500Y-131258314D01*
X177713036Y-131149999D01*
X177716390Y-131144190D01*
X177716390Y-131144188D01*
X177716392Y-131144186D01*
X177750500Y-131016892D01*
X177750500Y-130885108D01*
X177716392Y-130757814D01*
X177716390Y-130757811D01*
X177716390Y-130757809D01*
X177650503Y-130643690D01*
X177650501Y-130643688D01*
X177650500Y-130643686D01*
X177557314Y-130550500D01*
X177557311Y-130550498D01*
X177557309Y-130550496D01*
X177443189Y-130484609D01*
X177443191Y-130484609D01*
X177393799Y-130471375D01*
X177315892Y-130450500D01*
X177184108Y-130450500D01*
X177106200Y-130471375D01*
X177056809Y-130484609D01*
X176942690Y-130550496D01*
X176942687Y-130550498D01*
X176935683Y-130557503D01*
X176881165Y-130585278D01*
X176820733Y-130575704D01*
X176777470Y-130532437D01*
X176767195Y-130477431D01*
X176770000Y-130449983D01*
X176770000Y-130300001D01*
X176769999Y-130300000D01*
X175645001Y-130300000D01*
X175645000Y-130300001D01*
X175645000Y-130551500D01*
X175640155Y-130566411D01*
X175640155Y-130582093D01*
X175630938Y-130594778D01*
X175626093Y-130609691D01*
X175613407Y-130618907D01*
X175604191Y-130631593D01*
X175589278Y-130636438D01*
X175576593Y-130645655D01*
X175546000Y-130650500D01*
X175444000Y-130650500D01*
X175385809Y-130631593D01*
X175349845Y-130582093D01*
X175345000Y-130551500D01*
X175345000Y-130300001D01*
X175344999Y-130300000D01*
X174220002Y-130300000D01*
X174220001Y-130300001D01*
X174220001Y-130449985D01*
X174229344Y-130541438D01*
X174216449Y-130601249D01*
X174170861Y-130642058D01*
X174130857Y-130650500D01*
X171513479Y-130650500D01*
X171455288Y-130631593D01*
X171419324Y-130582093D01*
X171419324Y-130520907D01*
X171443475Y-130481496D01*
X172074959Y-129850012D01*
X174220000Y-129850012D01*
X174220000Y-129999999D01*
X174220001Y-130000000D01*
X175344999Y-130000000D01*
X175345000Y-129999999D01*
X175345000Y-129150001D01*
X175645000Y-129150001D01*
X175645000Y-129999999D01*
X175645001Y-130000000D01*
X176769998Y-130000000D01*
X176769999Y-129999999D01*
X176769999Y-129850013D01*
X176759507Y-129747312D01*
X176759504Y-129747300D01*
X176704356Y-129580875D01*
X176612319Y-129431659D01*
X176488340Y-129307680D01*
X176339124Y-129215643D01*
X176172693Y-129160493D01*
X176069987Y-129150000D01*
X175645001Y-129150000D01*
X175645000Y-129150001D01*
X175345000Y-129150001D01*
X175344999Y-129150000D01*
X174920013Y-129150000D01*
X174817312Y-129160492D01*
X174817300Y-129160495D01*
X174650875Y-129215643D01*
X174501659Y-129307680D01*
X174377680Y-129431659D01*
X174285643Y-129580875D01*
X174230493Y-129747306D01*
X174220000Y-129850012D01*
X172074959Y-129850012D01*
X172147474Y-129777497D01*
X173395474Y-128529496D01*
X173449991Y-128501719D01*
X173465478Y-128500500D01*
X173565890Y-128500500D01*
X173565892Y-128500500D01*
X173693186Y-128466392D01*
X173693188Y-128466390D01*
X173693190Y-128466390D01*
X173807309Y-128400503D01*
X173807309Y-128400502D01*
X173807314Y-128400500D01*
X173900500Y-128307314D01*
X173966392Y-128193186D01*
X174000500Y-128065892D01*
X174000500Y-127934108D01*
X173966392Y-127806814D01*
X173966390Y-127806811D01*
X173966390Y-127806809D01*
X173900503Y-127692690D01*
X173900501Y-127692688D01*
X173900500Y-127692686D01*
X173807314Y-127599500D01*
X173807311Y-127599498D01*
X173807309Y-127599496D01*
X173697739Y-127536236D01*
X173656798Y-127490767D01*
X173650402Y-127429917D01*
X173680995Y-127376929D01*
X173736891Y-127352042D01*
X173747239Y-127351500D01*
X177480521Y-127351500D01*
X177538712Y-127370407D01*
X177550525Y-127380496D01*
X179783573Y-129613544D01*
X179811350Y-129668061D01*
X179807014Y-129716244D01*
X179772354Y-129815298D01*
X179772353Y-129815305D01*
X179769500Y-129845725D01*
X179769500Y-130454274D01*
X179772353Y-130484694D01*
X179772355Y-130484703D01*
X179817207Y-130612883D01*
X179897845Y-130722144D01*
X179897847Y-130722146D01*
X179897850Y-130722150D01*
X179897853Y-130722152D01*
X179897855Y-130722154D01*
X180007116Y-130802792D01*
X180007117Y-130802792D01*
X180007118Y-130802793D01*
X180135301Y-130847646D01*
X180165725Y-130850499D01*
X180165727Y-130850500D01*
X180165734Y-130850500D01*
X181324273Y-130850500D01*
X181324273Y-130850499D01*
X181354699Y-130847646D01*
X181482882Y-130802793D01*
X181592150Y-130722150D01*
X181672793Y-130612882D01*
X181717646Y-130484699D01*
X181720499Y-130454273D01*
X181720500Y-130454273D01*
X181720500Y-129845727D01*
X181720499Y-129845725D01*
X181717646Y-129815305D01*
X181717646Y-129815301D01*
X181672793Y-129687118D01*
X181670846Y-129684480D01*
X181592154Y-129577855D01*
X181592152Y-129577853D01*
X181592150Y-129577850D01*
X181592146Y-129577847D01*
X181592144Y-129577845D01*
X181482883Y-129497207D01*
X181354703Y-129452355D01*
X181354694Y-129452353D01*
X181324274Y-129449500D01*
X181324266Y-129449500D01*
X180510479Y-129449500D01*
X180452288Y-129430593D01*
X180440475Y-129420504D01*
X178139475Y-127119504D01*
X178111698Y-127064987D01*
X178121269Y-127004555D01*
X178164534Y-126961290D01*
X178209479Y-126950500D01*
X178769747Y-126950500D01*
X178769748Y-126950500D01*
X178828231Y-126938867D01*
X178894552Y-126894552D01*
X178938867Y-126828231D01*
X178950500Y-126769748D01*
X178950500Y-125230252D01*
X178938867Y-125171769D01*
X178894552Y-125105448D01*
X178865487Y-125086027D01*
X178828233Y-125061134D01*
X178828231Y-125061133D01*
X178828228Y-125061132D01*
X178828227Y-125061132D01*
X178769758Y-125049501D01*
X178769748Y-125049500D01*
X177230252Y-125049500D01*
X177230251Y-125049500D01*
X177230241Y-125049501D01*
X177171772Y-125061132D01*
X177171766Y-125061134D01*
X177105451Y-125105445D01*
X177105445Y-125105451D01*
X177061134Y-125171766D01*
X177061132Y-125171772D01*
X177049501Y-125230241D01*
X177049500Y-125230253D01*
X177049500Y-126651500D01*
X177030593Y-126709691D01*
X176981093Y-126745655D01*
X176950500Y-126750500D01*
X176286904Y-126750500D01*
X176228713Y-126731593D01*
X176192749Y-126682093D01*
X176192749Y-126620907D01*
X176204587Y-126596501D01*
X176248745Y-126530413D01*
X176302318Y-126450238D01*
X176302319Y-126450234D01*
X176302322Y-126450231D01*
X176373973Y-126277251D01*
X176410500Y-126093616D01*
X176410500Y-125906384D01*
X176373973Y-125722749D01*
X176302322Y-125549769D01*
X176302320Y-125549767D01*
X176302318Y-125549761D01*
X176242649Y-125460463D01*
X176198302Y-125394092D01*
X176065908Y-125261698D01*
X175990816Y-125211523D01*
X175910238Y-125157681D01*
X175910229Y-125157677D01*
X175737249Y-125086026D01*
X175553618Y-125049500D01*
X175553616Y-125049500D01*
X175366384Y-125049500D01*
X175366381Y-125049500D01*
X175182750Y-125086026D01*
X175009770Y-125157677D01*
X175009761Y-125157681D01*
X174854092Y-125261698D01*
X174854088Y-125261701D01*
X174721701Y-125394088D01*
X174721698Y-125394092D01*
X174617681Y-125549761D01*
X174617677Y-125549770D01*
X174546026Y-125722750D01*
X174509500Y-125906381D01*
X174509500Y-126093618D01*
X174546026Y-126277249D01*
X174617677Y-126450229D01*
X174617681Y-126450238D01*
X174691007Y-126559975D01*
X174715411Y-126596499D01*
X174732020Y-126655386D01*
X174710843Y-126712790D01*
X174659969Y-126746783D01*
X174633096Y-126750500D01*
X170286479Y-126750500D01*
X170228288Y-126731593D01*
X170216475Y-126721504D01*
X168149496Y-124654525D01*
X168121719Y-124600008D01*
X168120500Y-124584521D01*
X168120500Y-124204523D01*
X168139407Y-124146332D01*
X168188907Y-124110368D01*
X168250093Y-124110368D01*
X168274499Y-124122206D01*
X168362402Y-124180941D01*
X168553580Y-124260130D01*
X168756535Y-124300500D01*
X168756536Y-124300500D01*
X168963464Y-124300500D01*
X168963465Y-124300500D01*
X169166420Y-124260130D01*
X169357598Y-124180941D01*
X169529655Y-124065977D01*
X169675977Y-123919655D01*
X169790941Y-123747598D01*
X169870130Y-123556420D01*
X169910500Y-123353465D01*
X169910500Y-123146535D01*
X169910499Y-123146532D01*
X170349500Y-123146532D01*
X170349500Y-123353467D01*
X170389869Y-123556418D01*
X170469058Y-123747597D01*
X170575616Y-123907073D01*
X170584023Y-123919655D01*
X170730345Y-124065977D01*
X170902402Y-124180941D01*
X171093580Y-124260130D01*
X171296535Y-124300500D01*
X171296536Y-124300500D01*
X171503464Y-124300500D01*
X171503465Y-124300500D01*
X171706420Y-124260130D01*
X171897598Y-124180941D01*
X172069655Y-124065977D01*
X172215977Y-123919655D01*
X172330941Y-123747598D01*
X172410130Y-123556420D01*
X172450500Y-123353465D01*
X172450500Y-123146535D01*
X172450499Y-123146532D01*
X172889500Y-123146532D01*
X172889500Y-123353467D01*
X172929869Y-123556418D01*
X173009058Y-123747597D01*
X173115616Y-123907073D01*
X173124023Y-123919655D01*
X173270345Y-124065977D01*
X173442402Y-124180941D01*
X173633580Y-124260130D01*
X173836535Y-124300500D01*
X173836536Y-124300500D01*
X174043464Y-124300500D01*
X174043465Y-124300500D01*
X174246420Y-124260130D01*
X174437598Y-124180941D01*
X174609655Y-124065977D01*
X174755977Y-123919655D01*
X174870941Y-123747598D01*
X174950130Y-123556420D01*
X174990500Y-123353465D01*
X174990500Y-123146535D01*
X174990499Y-123146532D01*
X175429500Y-123146532D01*
X175429500Y-123353467D01*
X175469869Y-123556418D01*
X175549058Y-123747597D01*
X175655616Y-123907073D01*
X175664023Y-123919655D01*
X175810345Y-124065977D01*
X175982402Y-124180941D01*
X176173580Y-124260130D01*
X176376535Y-124300500D01*
X176376536Y-124300500D01*
X176583464Y-124300500D01*
X176583465Y-124300500D01*
X176786420Y-124260130D01*
X176977598Y-124180941D01*
X177149655Y-124065977D01*
X177295977Y-123919655D01*
X177410941Y-123747598D01*
X177490130Y-123556420D01*
X177499762Y-123507996D01*
X177529656Y-123454613D01*
X177585221Y-123428996D01*
X177645231Y-123440932D01*
X177686764Y-123485861D01*
X177694640Y-123511822D01*
X177703241Y-123566122D01*
X177768904Y-123768215D01*
X177865375Y-123957551D01*
X177964240Y-124093626D01*
X178576328Y-123481536D01*
X178619901Y-123557007D01*
X178712993Y-123650099D01*
X178788460Y-123693670D01*
X178176372Y-124305758D01*
X178176372Y-124305759D01*
X178312440Y-124404619D01*
X178312446Y-124404623D01*
X178501784Y-124501095D01*
X178703878Y-124566759D01*
X178913750Y-124600000D01*
X179126250Y-124600000D01*
X179336121Y-124566759D01*
X179538215Y-124501095D01*
X179727553Y-124404623D01*
X179727559Y-124404619D01*
X179863626Y-124305759D01*
X179863626Y-124305758D01*
X179251538Y-123693670D01*
X179327007Y-123650099D01*
X179420099Y-123557007D01*
X179463670Y-123481538D01*
X180075758Y-124093626D01*
X180075759Y-124093626D01*
X180174619Y-123957559D01*
X180174623Y-123957553D01*
X180271095Y-123768215D01*
X180336759Y-123566121D01*
X180370000Y-123356250D01*
X180370000Y-123143749D01*
X180336759Y-122933878D01*
X180271095Y-122731784D01*
X180174623Y-122542446D01*
X180174619Y-122542440D01*
X180075759Y-122406372D01*
X180075758Y-122406372D01*
X179463670Y-123018460D01*
X179420099Y-122942993D01*
X179327007Y-122849901D01*
X179251536Y-122806328D01*
X179863626Y-122194240D01*
X179727551Y-122095375D01*
X179538215Y-121998904D01*
X179336121Y-121933240D01*
X179126250Y-121900000D01*
X178913750Y-121900000D01*
X178703878Y-121933240D01*
X178501784Y-121998904D01*
X178312446Y-122095376D01*
X178312442Y-122095378D01*
X178176372Y-122194239D01*
X178788461Y-122806328D01*
X178712993Y-122849901D01*
X178619901Y-122942993D01*
X178576328Y-123018461D01*
X177964239Y-122406372D01*
X177865378Y-122542442D01*
X177865376Y-122542446D01*
X177768904Y-122731784D01*
X177703241Y-122933877D01*
X177694640Y-122988177D01*
X177666862Y-123042694D01*
X177612345Y-123070470D01*
X177551913Y-123060898D01*
X177508649Y-123017633D01*
X177499762Y-122992006D01*
X177490130Y-122943580D01*
X177410941Y-122752402D01*
X177295977Y-122580345D01*
X177149655Y-122434023D01*
X177149651Y-122434020D01*
X176977597Y-122319058D01*
X176786418Y-122239869D01*
X176583467Y-122199500D01*
X176583465Y-122199500D01*
X176376535Y-122199500D01*
X176376532Y-122199500D01*
X176173581Y-122239869D01*
X175982402Y-122319058D01*
X175810348Y-122434020D01*
X175664020Y-122580348D01*
X175549058Y-122752402D01*
X175469869Y-122943581D01*
X175429500Y-123146532D01*
X174990499Y-123146532D01*
X174950130Y-122943580D01*
X174870941Y-122752402D01*
X174755977Y-122580345D01*
X174609655Y-122434023D01*
X174609651Y-122434020D01*
X174437597Y-122319058D01*
X174246418Y-122239869D01*
X174043467Y-122199500D01*
X174043465Y-122199500D01*
X173836535Y-122199500D01*
X173836532Y-122199500D01*
X173633581Y-122239869D01*
X173442402Y-122319058D01*
X173270348Y-122434020D01*
X173124020Y-122580348D01*
X173009058Y-122752402D01*
X172929869Y-122943581D01*
X172889500Y-123146532D01*
X172450499Y-123146532D01*
X172410130Y-122943580D01*
X172330941Y-122752402D01*
X172215977Y-122580345D01*
X172069655Y-122434023D01*
X172069651Y-122434020D01*
X171897597Y-122319058D01*
X171706418Y-122239869D01*
X171503467Y-122199500D01*
X171503465Y-122199500D01*
X171296535Y-122199500D01*
X171296532Y-122199500D01*
X171093581Y-122239869D01*
X170902402Y-122319058D01*
X170730348Y-122434020D01*
X170584020Y-122580348D01*
X170469058Y-122752402D01*
X170389869Y-122943581D01*
X170349500Y-123146532D01*
X169910499Y-123146532D01*
X169870130Y-122943580D01*
X169790941Y-122752402D01*
X169675977Y-122580345D01*
X169529655Y-122434023D01*
X169529651Y-122434020D01*
X169357597Y-122319058D01*
X169166418Y-122239869D01*
X168963467Y-122199500D01*
X168963465Y-122199500D01*
X168756535Y-122199500D01*
X168756532Y-122199500D01*
X168553581Y-122239869D01*
X168362402Y-122319058D01*
X168190348Y-122434020D01*
X168190345Y-122434022D01*
X168190345Y-122434023D01*
X168044023Y-122580345D01*
X168044021Y-122580347D01*
X168040584Y-122583785D01*
X168039127Y-122582328D01*
X167994462Y-122610897D01*
X167933384Y-122607273D01*
X167886101Y-122568440D01*
X167870500Y-122515096D01*
X167870500Y-120165478D01*
X167889407Y-120107287D01*
X167899490Y-120095480D01*
X169025460Y-118969511D01*
X169065021Y-118900988D01*
X169065894Y-118897728D01*
X169072756Y-118887589D01*
X169077522Y-118883876D01*
X169084739Y-118873073D01*
X169150500Y-118807314D01*
X169216392Y-118693186D01*
X169250500Y-118565892D01*
X169250500Y-118434108D01*
X169216392Y-118306814D01*
X169216390Y-118306811D01*
X169216390Y-118306809D01*
X169150503Y-118192690D01*
X169150501Y-118192688D01*
X169150500Y-118192686D01*
X169057314Y-118099500D01*
X169057311Y-118099498D01*
X169057309Y-118099496D01*
X168943189Y-118033609D01*
X168943191Y-118033609D01*
X168931150Y-118030383D01*
X168815892Y-117999500D01*
X168684108Y-117999500D01*
X168606200Y-118020375D01*
X168556809Y-118033609D01*
X168442690Y-118099496D01*
X168349498Y-118192688D01*
X168335736Y-118216525D01*
X168290266Y-118257465D01*
X168229416Y-118263860D01*
X168176428Y-118233267D01*
X168164264Y-118216525D01*
X168150501Y-118192688D01*
X168150500Y-118192686D01*
X168057314Y-118099500D01*
X168057311Y-118099498D01*
X168057309Y-118099496D01*
X167943189Y-118033609D01*
X167943191Y-118033609D01*
X167893799Y-118020375D01*
X167815892Y-117999500D01*
X167684108Y-117999500D01*
X167606200Y-118020375D01*
X167556809Y-118033609D01*
X167442690Y-118099496D01*
X167442689Y-118099497D01*
X167442686Y-118099499D01*
X167442686Y-118099500D01*
X167390501Y-118151684D01*
X167369848Y-118162207D01*
X167351093Y-118175834D01*
X167343104Y-118175834D01*
X167335987Y-118179460D01*
X167313092Y-118175834D01*
X167289907Y-118175834D01*
X167283444Y-118171138D01*
X167275555Y-118169889D01*
X167259163Y-118153497D01*
X167240407Y-118139870D01*
X167237938Y-118132272D01*
X167232290Y-118126624D01*
X167221500Y-118081679D01*
X167221500Y-117994478D01*
X167240407Y-117936287D01*
X167242575Y-117933749D01*
X182495000Y-117933749D01*
X182495000Y-118146250D01*
X182528240Y-118356121D01*
X182593904Y-118558215D01*
X182690375Y-118747551D01*
X182789240Y-118883626D01*
X183401328Y-118271536D01*
X183444901Y-118347007D01*
X183537993Y-118440099D01*
X183613460Y-118483670D01*
X183001372Y-119095758D01*
X183001372Y-119095759D01*
X183137440Y-119194619D01*
X183137446Y-119194623D01*
X183326784Y-119291095D01*
X183528878Y-119356759D01*
X183738750Y-119390000D01*
X183951250Y-119390000D01*
X184161121Y-119356759D01*
X184363215Y-119291095D01*
X184552553Y-119194623D01*
X184552559Y-119194619D01*
X184688626Y-119095759D01*
X184688626Y-119095758D01*
X184076538Y-118483670D01*
X184152007Y-118440099D01*
X184245099Y-118347007D01*
X184288670Y-118271538D01*
X184900758Y-118883626D01*
X184900759Y-118883626D01*
X184999619Y-118747559D01*
X184999623Y-118747553D01*
X185096095Y-118558215D01*
X185161759Y-118356121D01*
X185195000Y-118146250D01*
X185195000Y-117933749D01*
X185161759Y-117723878D01*
X185096095Y-117521784D01*
X184999623Y-117332446D01*
X184999619Y-117332440D01*
X184900759Y-117196372D01*
X184900758Y-117196372D01*
X184288670Y-117808460D01*
X184245099Y-117732993D01*
X184152007Y-117639901D01*
X184076536Y-117596328D01*
X184688626Y-116984240D01*
X184552551Y-116885375D01*
X184363215Y-116788904D01*
X184223951Y-116743655D01*
X184174451Y-116707691D01*
X184155544Y-116649500D01*
X184174451Y-116591309D01*
X184223951Y-116555345D01*
X184254544Y-116550500D01*
X184714747Y-116550500D01*
X184714748Y-116550500D01*
X184773231Y-116538867D01*
X184839552Y-116494552D01*
X184883867Y-116428231D01*
X184895500Y-116369748D01*
X184895500Y-114630252D01*
X184883867Y-114571769D01*
X184839552Y-114505448D01*
X184839548Y-114505445D01*
X184773233Y-114461134D01*
X184773231Y-114461133D01*
X184773228Y-114461132D01*
X184773227Y-114461132D01*
X184714758Y-114449501D01*
X184714748Y-114449500D01*
X182975252Y-114449500D01*
X182975251Y-114449500D01*
X182975241Y-114449501D01*
X182916772Y-114461132D01*
X182916766Y-114461134D01*
X182850451Y-114505445D01*
X182850445Y-114505451D01*
X182806134Y-114571766D01*
X182806132Y-114571772D01*
X182794501Y-114630241D01*
X182794500Y-114630253D01*
X182794500Y-116369746D01*
X182794501Y-116369758D01*
X182806132Y-116428227D01*
X182806134Y-116428233D01*
X182820999Y-116450479D01*
X182850448Y-116494552D01*
X182916769Y-116538867D01*
X182961231Y-116547711D01*
X182975241Y-116550498D01*
X182975246Y-116550498D01*
X182975252Y-116550500D01*
X182975253Y-116550500D01*
X183435456Y-116550500D01*
X183493647Y-116569407D01*
X183529611Y-116618907D01*
X183529611Y-116680093D01*
X183493647Y-116729593D01*
X183466049Y-116743655D01*
X183326784Y-116788904D01*
X183137446Y-116885376D01*
X183137442Y-116885378D01*
X183001372Y-116984239D01*
X183613461Y-117596328D01*
X183537993Y-117639901D01*
X183444901Y-117732993D01*
X183401328Y-117808461D01*
X182789239Y-117196372D01*
X182690378Y-117332442D01*
X182690376Y-117332446D01*
X182593904Y-117521784D01*
X182528240Y-117723878D01*
X182495000Y-117933749D01*
X167242575Y-117933749D01*
X167250496Y-117924474D01*
X168190731Y-116984239D01*
X169310460Y-115864511D01*
X169314906Y-115856811D01*
X169350021Y-115795989D01*
X169370500Y-115719562D01*
X169370500Y-111960438D01*
X169350022Y-111884012D01*
X169350020Y-111884009D01*
X169350020Y-111884007D01*
X169310463Y-111815493D01*
X169310459Y-111815488D01*
X169099496Y-111604524D01*
X169071719Y-111550008D01*
X169070500Y-111534521D01*
X169070500Y-111434109D01*
X169070500Y-111434108D01*
X169036392Y-111306814D01*
X169036390Y-111306811D01*
X169036390Y-111306809D01*
X168970503Y-111192690D01*
X168970501Y-111192688D01*
X168970500Y-111192686D01*
X168877314Y-111099500D01*
X168877311Y-111099498D01*
X168877309Y-111099496D01*
X168763189Y-111033609D01*
X168763191Y-111033609D01*
X168713799Y-111020375D01*
X168635892Y-110999500D01*
X168504108Y-110999500D01*
X168426200Y-111020375D01*
X168376809Y-111033609D01*
X168262690Y-111099496D01*
X168169496Y-111192690D01*
X168103609Y-111306809D01*
X168103608Y-111306814D01*
X168069500Y-111434108D01*
X168069500Y-111565892D01*
X168099579Y-111678151D01*
X168103609Y-111693190D01*
X168169496Y-111807309D01*
X168169498Y-111807311D01*
X168169500Y-111807314D01*
X168262686Y-111900500D01*
X168262688Y-111900501D01*
X168262690Y-111900503D01*
X168376810Y-111966390D01*
X168376808Y-111966390D01*
X168376812Y-111966391D01*
X168376814Y-111966392D01*
X168504108Y-112000500D01*
X168504110Y-112000500D01*
X168604521Y-112000500D01*
X168612118Y-112002968D01*
X168620008Y-112001719D01*
X168640663Y-112012243D01*
X168662712Y-112019407D01*
X168674525Y-112029496D01*
X168740504Y-112095475D01*
X168768281Y-112149992D01*
X168769500Y-112165479D01*
X168769500Y-115514521D01*
X168750593Y-115572712D01*
X168740504Y-115584525D01*
X166650459Y-117674570D01*
X166650458Y-117674569D01*
X166594507Y-117730520D01*
X166590561Y-117735665D01*
X166589338Y-117734726D01*
X166549575Y-117770524D01*
X166488724Y-117776914D01*
X166483712Y-117775710D01*
X166385892Y-117749500D01*
X166254108Y-117749500D01*
X166176200Y-117770375D01*
X166126809Y-117783609D01*
X166012690Y-117849496D01*
X165919496Y-117942690D01*
X165853609Y-118056809D01*
X165842171Y-118099497D01*
X165820746Y-118179460D01*
X165819500Y-118184109D01*
X165819500Y-118284520D01*
X165800593Y-118342711D01*
X165790504Y-118354524D01*
X162697504Y-121447524D01*
X162642987Y-121475301D01*
X162582555Y-121465730D01*
X162539290Y-121422465D01*
X162528500Y-121377520D01*
X162528500Y-120233432D01*
X162547407Y-120175241D01*
X162557490Y-120163434D01*
X165990460Y-116730465D01*
X166030021Y-116661943D01*
X166050500Y-116585516D01*
X166050500Y-116211433D01*
X166069407Y-116153242D01*
X166079496Y-116141429D01*
X166382061Y-115838864D01*
X166436578Y-115811087D01*
X166452065Y-115809868D01*
X166780195Y-115809868D01*
X166780195Y-115809867D01*
X166856621Y-115789389D01*
X166870896Y-115781147D01*
X166901006Y-115763764D01*
X166950506Y-115750500D01*
X167065890Y-115750500D01*
X167065892Y-115750500D01*
X167193186Y-115716392D01*
X167193188Y-115716390D01*
X167193190Y-115716390D01*
X167307309Y-115650503D01*
X167307309Y-115650502D01*
X167307314Y-115650500D01*
X167400500Y-115557314D01*
X167466392Y-115443186D01*
X167500500Y-115315892D01*
X167500500Y-115184108D01*
X167466392Y-115056814D01*
X167466390Y-115056811D01*
X167466390Y-115056809D01*
X167400503Y-114942690D01*
X167400501Y-114942688D01*
X167400500Y-114942686D01*
X167307314Y-114849500D01*
X167307311Y-114849498D01*
X167307309Y-114849496D01*
X167193189Y-114783609D01*
X167193191Y-114783609D01*
X167143799Y-114770375D01*
X167065892Y-114749500D01*
X166934108Y-114749500D01*
X166856200Y-114770375D01*
X166806809Y-114783609D01*
X166692690Y-114849496D01*
X166599496Y-114942690D01*
X166533609Y-115056809D01*
X166512527Y-115135491D01*
X166479203Y-115186805D01*
X166422081Y-115208732D01*
X166416900Y-115208868D01*
X166335516Y-115208868D01*
X166256392Y-115208868D01*
X166179966Y-115229346D01*
X166179965Y-115229346D01*
X166179963Y-115229347D01*
X166111441Y-115268909D01*
X166087496Y-115292853D01*
X166066997Y-115308582D01*
X166056124Y-115314859D01*
X165565489Y-115805494D01*
X165565488Y-115805493D01*
X165509539Y-115861443D01*
X165469980Y-115929961D01*
X165469978Y-115929965D01*
X165449500Y-116006389D01*
X165449500Y-116380475D01*
X165430593Y-116438666D01*
X165420504Y-116450479D01*
X162043489Y-119827494D01*
X162043488Y-119827493D01*
X161987539Y-119883443D01*
X161947980Y-119951961D01*
X161947978Y-119951965D01*
X161927500Y-120028389D01*
X142671500Y-120028389D01*
X142671500Y-116566134D01*
X142690407Y-116507943D01*
X142700490Y-116496136D01*
X144691373Y-114505253D01*
X148782000Y-114505253D01*
X148782000Y-116544746D01*
X148782001Y-116544758D01*
X148793632Y-116603227D01*
X148793634Y-116603233D01*
X148837945Y-116669548D01*
X148837948Y-116669552D01*
X148904269Y-116713867D01*
X148948731Y-116722711D01*
X148962741Y-116725498D01*
X148962746Y-116725498D01*
X148962752Y-116725500D01*
X148962753Y-116725500D01*
X151002247Y-116725500D01*
X151002248Y-116725500D01*
X151060731Y-116713867D01*
X151127052Y-116669552D01*
X151171367Y-116603231D01*
X151183000Y-116544748D01*
X151183000Y-114505252D01*
X151171367Y-114446769D01*
X151127052Y-114380448D01*
X151127048Y-114380445D01*
X151060733Y-114336134D01*
X151060731Y-114336133D01*
X151060728Y-114336132D01*
X151060727Y-114336132D01*
X151002258Y-114324501D01*
X151002248Y-114324500D01*
X148962752Y-114324500D01*
X148962751Y-114324500D01*
X148962741Y-114324501D01*
X148904272Y-114336132D01*
X148904266Y-114336134D01*
X148837951Y-114380445D01*
X148837945Y-114380451D01*
X148793634Y-114446766D01*
X148793632Y-114446772D01*
X148782001Y-114505241D01*
X148782000Y-114505253D01*
X144691373Y-114505253D01*
X146654410Y-112542216D01*
X146654413Y-112542215D01*
X146728980Y-112467648D01*
X146781707Y-112376322D01*
X146788894Y-112349500D01*
X146809001Y-112274462D01*
X146809001Y-112169008D01*
X146809001Y-112162946D01*
X146809000Y-112162928D01*
X146809000Y-109470514D01*
X146809000Y-109470513D01*
X146781707Y-109368653D01*
X146770647Y-109349497D01*
X146728980Y-109277327D01*
X146654413Y-109202759D01*
X146654413Y-109202760D01*
X145577989Y-108126336D01*
X145550212Y-108071819D01*
X145559783Y-108011387D01*
X145565673Y-108001337D01*
X145599822Y-107950231D01*
X145671473Y-107777251D01*
X145708000Y-107593616D01*
X145708000Y-107434108D01*
X154319500Y-107434108D01*
X154319500Y-107565892D01*
X154349579Y-107678151D01*
X154353609Y-107693190D01*
X154419496Y-107807309D01*
X154419498Y-107807311D01*
X154419500Y-107807314D01*
X154512686Y-107900500D01*
X154512688Y-107900501D01*
X154512690Y-107900503D01*
X154626810Y-107966390D01*
X154626808Y-107966390D01*
X154626812Y-107966391D01*
X154626814Y-107966392D01*
X154754108Y-108000500D01*
X154754110Y-108000500D01*
X154885890Y-108000500D01*
X154885892Y-108000500D01*
X155013186Y-107966392D01*
X155013188Y-107966390D01*
X155013190Y-107966390D01*
X155127309Y-107900503D01*
X155127309Y-107900502D01*
X155127314Y-107900500D01*
X155198319Y-107829494D01*
X155252834Y-107801719D01*
X155268321Y-107800500D01*
X160654521Y-107800500D01*
X160712712Y-107819407D01*
X160724525Y-107829496D01*
X162885489Y-109990460D01*
X162885491Y-109990461D01*
X162885492Y-109990462D01*
X162885493Y-109990463D01*
X162954008Y-110030020D01*
X162954006Y-110030020D01*
X162954010Y-110030021D01*
X162954012Y-110030022D01*
X163030438Y-110050500D01*
X163109562Y-110050500D01*
X165121679Y-110050500D01*
X165129276Y-110052968D01*
X165137166Y-110051719D01*
X165157821Y-110062243D01*
X165179870Y-110069407D01*
X165191676Y-110079490D01*
X165211638Y-110099452D01*
X165239414Y-110153967D01*
X165229843Y-110214399D01*
X165186578Y-110257664D01*
X165141633Y-110268454D01*
X158918023Y-110268454D01*
X158859832Y-110249547D01*
X158848025Y-110239463D01*
X158777016Y-110168454D01*
X158777013Y-110168452D01*
X158777011Y-110168450D01*
X158662891Y-110102563D01*
X158662893Y-110102563D01*
X158613501Y-110089329D01*
X158535594Y-110068454D01*
X158403810Y-110068454D01*
X158325902Y-110089329D01*
X158276511Y-110102563D01*
X158162392Y-110168450D01*
X158069198Y-110261644D01*
X158003311Y-110375763D01*
X157999083Y-110391542D01*
X157969202Y-110503062D01*
X157969202Y-110634846D01*
X157981435Y-110680499D01*
X158003311Y-110762144D01*
X158069198Y-110876263D01*
X158069200Y-110876265D01*
X158069202Y-110876268D01*
X158162388Y-110969454D01*
X158162390Y-110969455D01*
X158162392Y-110969457D01*
X158276512Y-111035344D01*
X158276510Y-111035344D01*
X158276514Y-111035345D01*
X158276516Y-111035346D01*
X158403810Y-111069454D01*
X158403812Y-111069454D01*
X158535592Y-111069454D01*
X158535594Y-111069454D01*
X158662888Y-111035346D01*
X158662890Y-111035344D01*
X158662892Y-111035344D01*
X158777011Y-110969457D01*
X158777011Y-110969456D01*
X158777016Y-110969454D01*
X158848021Y-110898448D01*
X158902536Y-110870673D01*
X158918023Y-110869454D01*
X166690633Y-110869454D01*
X166748824Y-110888361D01*
X166760630Y-110898444D01*
X166762686Y-110900500D01*
X166762688Y-110900501D01*
X166762690Y-110900503D01*
X166876810Y-110966390D01*
X166876808Y-110966390D01*
X166876812Y-110966391D01*
X166876814Y-110966392D01*
X167004108Y-111000500D01*
X167004110Y-111000500D01*
X167135890Y-111000500D01*
X167135892Y-111000500D01*
X167263186Y-110966392D01*
X167263188Y-110966390D01*
X167263190Y-110966390D01*
X167377309Y-110900503D01*
X167377309Y-110900502D01*
X167377314Y-110900500D01*
X167470500Y-110807314D01*
X167536392Y-110693186D01*
X167570500Y-110565892D01*
X167570500Y-110434108D01*
X167536392Y-110306814D01*
X167536390Y-110306811D01*
X167536390Y-110306809D01*
X167470503Y-110192690D01*
X167470501Y-110192688D01*
X167470500Y-110192686D01*
X167377314Y-110099500D01*
X167377311Y-110099498D01*
X167377309Y-110099496D01*
X167263189Y-110033609D01*
X167263191Y-110033609D01*
X167213799Y-110020375D01*
X167135892Y-109999500D01*
X167004108Y-109999500D01*
X166926200Y-110020375D01*
X166876809Y-110033609D01*
X166762690Y-110099496D01*
X166669498Y-110192688D01*
X166654335Y-110218953D01*
X166608866Y-110259894D01*
X166568598Y-110268454D01*
X165998367Y-110268454D01*
X165940176Y-110249547D01*
X165904212Y-110200047D01*
X165904212Y-110138861D01*
X165928361Y-110099452D01*
X165970500Y-110057314D01*
X166009097Y-109990462D01*
X166036390Y-109943190D01*
X166036390Y-109943188D01*
X166036392Y-109943186D01*
X166070500Y-109815892D01*
X166070500Y-109684108D01*
X166036392Y-109556814D01*
X166036390Y-109556811D01*
X166036390Y-109556809D01*
X165970503Y-109442690D01*
X165970501Y-109442688D01*
X165970500Y-109442686D01*
X165877314Y-109349500D01*
X165877311Y-109349498D01*
X165877309Y-109349496D01*
X165763189Y-109283609D01*
X165763191Y-109283609D01*
X165713799Y-109270375D01*
X165635892Y-109249500D01*
X165504108Y-109249500D01*
X165426200Y-109270375D01*
X165376809Y-109283609D01*
X165262690Y-109349496D01*
X165262689Y-109349497D01*
X165262686Y-109349499D01*
X165262686Y-109349500D01*
X165191680Y-109420505D01*
X165137166Y-109448281D01*
X165121679Y-109449500D01*
X163235479Y-109449500D01*
X163177288Y-109430593D01*
X163165475Y-109420504D01*
X162087289Y-108342318D01*
X161004511Y-107259540D01*
X160995066Y-107254087D01*
X160935989Y-107219979D01*
X160935988Y-107219978D01*
X160935987Y-107219978D01*
X160859564Y-107199500D01*
X160859562Y-107199500D01*
X155268321Y-107199500D01*
X155210130Y-107180593D01*
X155198323Y-107170509D01*
X155127314Y-107099500D01*
X155127311Y-107099498D01*
X155127309Y-107099496D01*
X155013189Y-107033609D01*
X155013191Y-107033609D01*
X154963799Y-107020375D01*
X154885892Y-106999500D01*
X154754108Y-106999500D01*
X154676200Y-107020375D01*
X154626809Y-107033609D01*
X154512690Y-107099496D01*
X154419496Y-107192690D01*
X154353609Y-107306809D01*
X154346741Y-107332442D01*
X154319500Y-107434108D01*
X145708000Y-107434108D01*
X145708000Y-107406384D01*
X145671473Y-107222749D01*
X145599822Y-107049769D01*
X145599820Y-107049767D01*
X145599818Y-107049761D01*
X145540149Y-106960463D01*
X145495802Y-106894092D01*
X145363408Y-106761698D01*
X145319059Y-106732065D01*
X145207738Y-106657681D01*
X145207729Y-106657677D01*
X145167380Y-106640964D01*
X145120855Y-106601227D01*
X145106571Y-106541733D01*
X145129986Y-106485205D01*
X145182155Y-106453235D01*
X145205266Y-106450500D01*
X145527247Y-106450500D01*
X145527248Y-106450500D01*
X145585731Y-106438867D01*
X145652052Y-106394552D01*
X145696367Y-106328231D01*
X145708000Y-106269748D01*
X145708000Y-105684108D01*
X170319500Y-105684108D01*
X170319500Y-105815892D01*
X170346241Y-105915690D01*
X170353609Y-105943190D01*
X170419496Y-106057309D01*
X170419498Y-106057311D01*
X170419500Y-106057314D01*
X170512686Y-106150500D01*
X170512688Y-106150501D01*
X170512690Y-106150503D01*
X170626810Y-106216390D01*
X170626808Y-106216390D01*
X170626812Y-106216391D01*
X170626814Y-106216392D01*
X170754108Y-106250500D01*
X170754110Y-106250500D01*
X170885890Y-106250500D01*
X170885892Y-106250500D01*
X171013186Y-106216392D01*
X171013188Y-106216390D01*
X171013190Y-106216390D01*
X171127309Y-106150503D01*
X171127309Y-106150502D01*
X171127314Y-106150500D01*
X171220500Y-106057314D01*
X171238140Y-106026761D01*
X171286390Y-105943190D01*
X171286390Y-105943188D01*
X171286392Y-105943186D01*
X171320500Y-105815892D01*
X171320500Y-105715478D01*
X171339407Y-105657287D01*
X171349496Y-105645475D01*
X171752089Y-105242881D01*
X171806606Y-105215103D01*
X171867038Y-105224674D01*
X171880284Y-105232792D01*
X171903280Y-105249500D01*
X171940801Y-105276760D01*
X172109168Y-105362547D01*
X172288882Y-105420940D01*
X172288883Y-105420940D01*
X172288886Y-105420941D01*
X172475516Y-105450500D01*
X172475519Y-105450500D01*
X172664484Y-105450500D01*
X172851113Y-105420941D01*
X172851114Y-105420940D01*
X172851118Y-105420940D01*
X173030832Y-105362547D01*
X173199199Y-105276760D01*
X173352073Y-105165690D01*
X173395171Y-105122591D01*
X173438268Y-105079496D01*
X173492785Y-105051719D01*
X173508271Y-105050500D01*
X174254464Y-105050500D01*
X174312655Y-105069407D01*
X174324468Y-105079496D01*
X181240504Y-111995532D01*
X181268281Y-112050049D01*
X181269500Y-112065536D01*
X181269500Y-112301679D01*
X181250593Y-112359870D01*
X181240509Y-112371676D01*
X181169500Y-112442686D01*
X181169497Y-112442689D01*
X181169496Y-112442690D01*
X181103609Y-112556809D01*
X181103608Y-112556814D01*
X181069500Y-112684108D01*
X181069500Y-112815892D01*
X181099579Y-112928151D01*
X181103609Y-112943190D01*
X181169496Y-113057309D01*
X181169498Y-113057311D01*
X181169500Y-113057314D01*
X181262686Y-113150500D01*
X181262688Y-113150501D01*
X181262690Y-113150503D01*
X181376810Y-113216390D01*
X181376808Y-113216390D01*
X181376812Y-113216391D01*
X181376814Y-113216392D01*
X181504108Y-113250500D01*
X181504110Y-113250500D01*
X181635890Y-113250500D01*
X181635892Y-113250500D01*
X181763186Y-113216392D01*
X181763188Y-113216390D01*
X181763190Y-113216390D01*
X181877309Y-113150503D01*
X181877309Y-113150502D01*
X181877314Y-113150500D01*
X181970500Y-113057314D01*
X182036392Y-112943186D01*
X182070500Y-112815892D01*
X182070500Y-112684108D01*
X182036392Y-112556814D01*
X182036390Y-112556811D01*
X182036390Y-112556809D01*
X181970503Y-112442690D01*
X181970501Y-112442688D01*
X181970500Y-112442686D01*
X181899494Y-112371680D01*
X181871719Y-112317166D01*
X181870500Y-112301679D01*
X181870500Y-111860492D01*
X181867294Y-111848530D01*
X181867292Y-111848525D01*
X181850022Y-111784069D01*
X181810460Y-111715546D01*
X178028663Y-107933749D01*
X182495000Y-107933749D01*
X182495000Y-108146250D01*
X182528240Y-108356121D01*
X182593904Y-108558215D01*
X182690375Y-108747551D01*
X182789240Y-108883626D01*
X183401328Y-108271536D01*
X183444901Y-108347007D01*
X183537993Y-108440099D01*
X183613460Y-108483670D01*
X183001372Y-109095758D01*
X183001372Y-109095759D01*
X183137440Y-109194619D01*
X183137446Y-109194623D01*
X183326784Y-109291095D01*
X183528878Y-109356759D01*
X183738750Y-109390000D01*
X183951250Y-109390000D01*
X184161121Y-109356759D01*
X184363215Y-109291095D01*
X184552553Y-109194623D01*
X184552559Y-109194619D01*
X184688626Y-109095759D01*
X184688626Y-109095758D01*
X184076538Y-108483670D01*
X184152007Y-108440099D01*
X184245099Y-108347007D01*
X184288670Y-108271538D01*
X184900758Y-108883626D01*
X184900759Y-108883626D01*
X184999619Y-108747559D01*
X184999623Y-108747553D01*
X185096095Y-108558215D01*
X185161759Y-108356121D01*
X185195000Y-108146250D01*
X185195000Y-107933749D01*
X185161759Y-107723878D01*
X185096095Y-107521784D01*
X184999623Y-107332446D01*
X184999619Y-107332440D01*
X184900759Y-107196372D01*
X184900758Y-107196372D01*
X184288670Y-107808460D01*
X184245099Y-107732993D01*
X184152007Y-107639901D01*
X184076536Y-107596328D01*
X184688626Y-106984240D01*
X184552551Y-106885375D01*
X184363215Y-106788904D01*
X184223951Y-106743655D01*
X184174451Y-106707691D01*
X184155544Y-106649500D01*
X184174451Y-106591309D01*
X184223951Y-106555345D01*
X184254544Y-106550500D01*
X184714747Y-106550500D01*
X184714748Y-106550500D01*
X184773231Y-106538867D01*
X184839552Y-106494552D01*
X184883867Y-106428231D01*
X184895500Y-106369748D01*
X184895500Y-104630252D01*
X184883867Y-104571769D01*
X184839552Y-104505448D01*
X184786470Y-104469979D01*
X184773233Y-104461134D01*
X184773231Y-104461133D01*
X184773228Y-104461132D01*
X184773227Y-104461132D01*
X184714758Y-104449501D01*
X184714748Y-104449500D01*
X182975252Y-104449500D01*
X182975251Y-104449500D01*
X182975241Y-104449501D01*
X182916772Y-104461132D01*
X182916766Y-104461134D01*
X182850451Y-104505445D01*
X182850445Y-104505451D01*
X182806134Y-104571766D01*
X182806132Y-104571772D01*
X182794501Y-104630241D01*
X182794500Y-104630253D01*
X182794500Y-106369746D01*
X182794501Y-106369758D01*
X182806132Y-106428227D01*
X182806134Y-106428233D01*
X182821013Y-106450500D01*
X182850448Y-106494552D01*
X182916769Y-106538867D01*
X182961231Y-106547711D01*
X182975241Y-106550498D01*
X182975246Y-106550498D01*
X182975252Y-106550500D01*
X182975253Y-106550500D01*
X183435456Y-106550500D01*
X183493647Y-106569407D01*
X183529611Y-106618907D01*
X183529611Y-106680093D01*
X183493647Y-106729593D01*
X183466049Y-106743655D01*
X183326784Y-106788904D01*
X183137446Y-106885376D01*
X183137442Y-106885378D01*
X183001372Y-106984239D01*
X183613461Y-107596328D01*
X183537993Y-107639901D01*
X183444901Y-107732993D01*
X183401328Y-107808461D01*
X182789239Y-107196372D01*
X182690378Y-107332442D01*
X182690376Y-107332446D01*
X182593904Y-107521784D01*
X182528240Y-107723878D01*
X182495000Y-107933749D01*
X178028663Y-107933749D01*
X175000429Y-104905515D01*
X176869500Y-104905515D01*
X176869500Y-105094484D01*
X176899058Y-105281113D01*
X176957453Y-105460832D01*
X177006355Y-105556809D01*
X177043240Y-105629199D01*
X177154310Y-105782073D01*
X177287927Y-105915690D01*
X177440801Y-106026760D01*
X177609168Y-106112547D01*
X177788882Y-106170940D01*
X177788883Y-106170940D01*
X177788886Y-106170941D01*
X177975516Y-106200500D01*
X177975519Y-106200500D01*
X178164484Y-106200500D01*
X178351113Y-106170941D01*
X178351114Y-106170940D01*
X178351118Y-106170940D01*
X178530832Y-106112547D01*
X178699199Y-106026760D01*
X178852073Y-105915690D01*
X178985690Y-105782073D01*
X179096760Y-105629199D01*
X179182547Y-105460832D01*
X179240940Y-105281118D01*
X179241631Y-105276756D01*
X179270500Y-105094484D01*
X179270500Y-104905515D01*
X179240941Y-104718886D01*
X179220502Y-104655981D01*
X179182547Y-104539168D01*
X179096760Y-104370801D01*
X178985690Y-104217927D01*
X178852073Y-104084310D01*
X178699199Y-103973240D01*
X178699198Y-103973239D01*
X178699196Y-103973238D01*
X178530832Y-103887453D01*
X178351113Y-103829058D01*
X178164484Y-103799500D01*
X178164481Y-103799500D01*
X177975519Y-103799500D01*
X177975516Y-103799500D01*
X177788886Y-103829058D01*
X177609167Y-103887453D01*
X177440803Y-103973238D01*
X177287928Y-104084309D01*
X177154309Y-104217928D01*
X177043238Y-104370803D01*
X176957453Y-104539167D01*
X176899058Y-104718886D01*
X176869500Y-104905515D01*
X175000429Y-104905515D01*
X174604454Y-104509540D01*
X174604448Y-104509536D01*
X174604446Y-104509535D01*
X174597365Y-104505447D01*
X174597363Y-104505446D01*
X174571397Y-104490455D01*
X174535931Y-104469978D01*
X174459507Y-104449500D01*
X174459505Y-104449500D01*
X173869333Y-104449500D01*
X173811142Y-104430593D01*
X173775178Y-104381093D01*
X173771301Y-104348371D01*
X173770500Y-104348371D01*
X173770500Y-104155515D01*
X173740941Y-103968886D01*
X173718305Y-103899219D01*
X173682547Y-103789168D01*
X173596760Y-103620801D01*
X173485690Y-103467927D01*
X173352073Y-103334310D01*
X173199199Y-103223240D01*
X173199198Y-103223239D01*
X173199196Y-103223238D01*
X173030832Y-103137453D01*
X172851113Y-103079058D01*
X172664484Y-103049500D01*
X172664481Y-103049500D01*
X172475519Y-103049500D01*
X172475516Y-103049500D01*
X172288886Y-103079058D01*
X172109167Y-103137453D01*
X171940803Y-103223238D01*
X171787928Y-103334309D01*
X171654309Y-103467928D01*
X171543238Y-103620803D01*
X171457453Y-103789167D01*
X171399058Y-103968886D01*
X171369500Y-104155515D01*
X171369500Y-104344484D01*
X171399059Y-104531115D01*
X171433001Y-104635581D01*
X171433000Y-104696766D01*
X171408850Y-104736176D01*
X170924524Y-105220503D01*
X170870007Y-105248281D01*
X170854520Y-105249500D01*
X170754108Y-105249500D01*
X170676200Y-105270375D01*
X170626809Y-105283609D01*
X170512690Y-105349496D01*
X170419496Y-105442690D01*
X170353609Y-105556809D01*
X170353608Y-105556814D01*
X170319500Y-105684108D01*
X145708000Y-105684108D01*
X145708000Y-104730252D01*
X145696367Y-104671769D01*
X145652052Y-104605448D01*
X145646635Y-104597341D01*
X145648149Y-104596328D01*
X145625793Y-104552450D01*
X145635364Y-104492018D01*
X145665379Y-104456874D01*
X145754719Y-104391966D01*
X145899466Y-104247219D01*
X145979680Y-104136813D01*
X146019785Y-104081613D01*
X146019787Y-104081610D01*
X146112720Y-103899219D01*
X146175977Y-103704534D01*
X146189239Y-103620803D01*
X146208000Y-103502355D01*
X146208000Y-103297644D01*
X146175978Y-103095470D01*
X146170646Y-103079060D01*
X146112720Y-102900781D01*
X146019787Y-102718390D01*
X146019785Y-102718386D01*
X145899470Y-102552786D01*
X145899468Y-102552784D01*
X145899466Y-102552781D01*
X145754719Y-102408034D01*
X145754715Y-102408031D01*
X145754713Y-102408029D01*
X145589113Y-102287714D01*
X145589109Y-102287712D01*
X145406719Y-102194780D01*
X145212029Y-102131521D01*
X145009855Y-102099500D01*
X145009852Y-102099500D01*
X143505148Y-102099500D01*
X143505145Y-102099500D01*
X143302970Y-102131521D01*
X143108280Y-102194780D01*
X142925890Y-102287712D01*
X142925886Y-102287714D01*
X142760286Y-102408029D01*
X142615529Y-102552786D01*
X142495214Y-102718386D01*
X142495212Y-102718390D01*
X142402280Y-102900780D01*
X142339021Y-103095470D01*
X142307000Y-103297644D01*
X142307000Y-103502355D01*
X142339021Y-103704529D01*
X142402280Y-103899219D01*
X142495212Y-104081609D01*
X142495214Y-104081613D01*
X142615529Y-104247213D01*
X142615531Y-104247215D01*
X142615534Y-104247219D01*
X142760281Y-104391966D01*
X142760284Y-104391968D01*
X142760286Y-104391970D01*
X142801922Y-104422220D01*
X142849615Y-104456870D01*
X142885579Y-104506369D01*
X142885580Y-104567555D01*
X142867629Y-104596849D01*
X142868365Y-104597341D01*
X142818634Y-104671766D01*
X142818632Y-104671772D01*
X142807001Y-104730241D01*
X142807000Y-104730253D01*
X142807000Y-106269746D01*
X142807001Y-106269758D01*
X142818632Y-106328227D01*
X142818633Y-106328231D01*
X142862948Y-106394552D01*
X142929269Y-106438867D01*
X142973731Y-106447711D01*
X142987741Y-106450498D01*
X142987746Y-106450498D01*
X142987752Y-106450500D01*
X142987753Y-106450500D01*
X143309734Y-106450500D01*
X143367925Y-106469407D01*
X143403889Y-106518907D01*
X143403889Y-106580093D01*
X143367925Y-106629593D01*
X143347620Y-106640964D01*
X143307270Y-106657677D01*
X143307261Y-106657681D01*
X143151592Y-106761698D01*
X143151588Y-106761701D01*
X143019201Y-106894088D01*
X143019198Y-106894092D01*
X142915181Y-107049761D01*
X142915177Y-107049770D01*
X142843526Y-107222750D01*
X142807000Y-107406381D01*
X142807000Y-107593618D01*
X142843526Y-107777249D01*
X142915177Y-107950229D01*
X142915181Y-107950238D01*
X142975159Y-108039999D01*
X143019198Y-108105908D01*
X143151592Y-108238302D01*
X143217963Y-108282649D01*
X143307261Y-108342318D01*
X143307267Y-108342320D01*
X143307269Y-108342322D01*
X143467124Y-108408536D01*
X143513649Y-108448273D01*
X143527933Y-108507767D01*
X143504518Y-108564295D01*
X143467125Y-108591463D01*
X143400246Y-108619165D01*
X143307270Y-108657677D01*
X143307261Y-108657681D01*
X143151592Y-108761698D01*
X143151588Y-108761701D01*
X143019201Y-108894088D01*
X143019198Y-108894092D01*
X142915181Y-109049761D01*
X142915177Y-109049770D01*
X142843526Y-109222750D01*
X142807000Y-109406381D01*
X142807000Y-109593618D01*
X142843526Y-109777249D01*
X142915177Y-109950229D01*
X142915181Y-109950238D01*
X142989565Y-110061559D01*
X143019198Y-110105908D01*
X143019201Y-110105911D01*
X143019205Y-110105916D01*
X143144838Y-110231548D01*
X143172616Y-110286065D01*
X143163045Y-110346497D01*
X143119780Y-110389761D01*
X143111796Y-110393069D01*
X143111886Y-110393286D01*
X143108293Y-110394774D01*
X142925890Y-110487712D01*
X142925886Y-110487714D01*
X142760286Y-110608029D01*
X142615529Y-110752786D01*
X142495214Y-110918386D01*
X142495212Y-110918390D01*
X142402280Y-111100780D01*
X142339021Y-111295470D01*
X142307000Y-111497644D01*
X142307000Y-111702355D01*
X142339021Y-111904529D01*
X142402280Y-112099219D01*
X142495212Y-112281609D01*
X142495214Y-112281613D01*
X142615529Y-112447213D01*
X142615531Y-112447215D01*
X142615534Y-112447219D01*
X142760281Y-112591966D01*
X142760284Y-112591968D01*
X142760286Y-112591970D01*
X142925886Y-112712285D01*
X142925890Y-112712287D01*
X143108281Y-112805220D01*
X143302966Y-112868477D01*
X143302967Y-112868477D01*
X143302970Y-112868478D01*
X143505145Y-112900500D01*
X144924333Y-112900500D01*
X144982524Y-112919407D01*
X145018488Y-112968907D01*
X145018488Y-113030093D01*
X144994337Y-113069504D01*
X142239504Y-115824337D01*
X142184987Y-115852114D01*
X142124555Y-115842543D01*
X142081290Y-115799278D01*
X142070500Y-115754333D01*
X142070500Y-95752984D01*
X142070681Y-95747007D01*
X142078461Y-95618380D01*
X142088362Y-95454688D01*
X142089801Y-95442837D01*
X142092817Y-95426381D01*
X154189500Y-95426381D01*
X154189500Y-95613618D01*
X154226026Y-95797249D01*
X154297677Y-95970229D01*
X154297681Y-95970238D01*
X154372065Y-96081559D01*
X154401698Y-96125908D01*
X154534092Y-96258302D01*
X154584576Y-96292034D01*
X154689761Y-96362318D01*
X154689767Y-96362320D01*
X154689769Y-96362322D01*
X154862749Y-96433973D01*
X155046384Y-96470500D01*
X155046385Y-96470500D01*
X155233615Y-96470500D01*
X155233616Y-96470500D01*
X155417251Y-96433973D01*
X155590231Y-96362322D01*
X155590234Y-96362319D01*
X155590238Y-96362318D01*
X155635187Y-96332282D01*
X155745908Y-96258302D01*
X155878302Y-96125908D01*
X155971836Y-95985925D01*
X155982318Y-95970238D01*
X155982319Y-95970234D01*
X155982322Y-95970231D01*
X156053973Y-95797251D01*
X156090500Y-95613616D01*
X156090500Y-95426384D01*
X156090499Y-95426381D01*
X156729500Y-95426381D01*
X156729500Y-95613618D01*
X156766026Y-95797249D01*
X156837677Y-95970229D01*
X156837681Y-95970238D01*
X156912065Y-96081559D01*
X156941698Y-96125908D01*
X157074092Y-96258302D01*
X157124576Y-96292034D01*
X157229761Y-96362318D01*
X157229767Y-96362320D01*
X157229769Y-96362322D01*
X157402749Y-96433973D01*
X157586384Y-96470500D01*
X157586385Y-96470500D01*
X157773615Y-96470500D01*
X157773616Y-96470500D01*
X157957251Y-96433973D01*
X158130231Y-96362322D01*
X158130234Y-96362319D01*
X158130238Y-96362318D01*
X158175187Y-96332282D01*
X158285908Y-96258302D01*
X158418302Y-96125908D01*
X158511836Y-95985925D01*
X158522318Y-95970238D01*
X158522319Y-95970234D01*
X158522322Y-95970231D01*
X158593973Y-95797251D01*
X158630500Y-95613616D01*
X158630500Y-95426384D01*
X158630499Y-95426381D01*
X159269500Y-95426381D01*
X159269500Y-95613618D01*
X159306026Y-95797249D01*
X159377677Y-95970229D01*
X159377681Y-95970238D01*
X159452065Y-96081559D01*
X159481698Y-96125908D01*
X159614092Y-96258302D01*
X159664576Y-96292034D01*
X159769761Y-96362318D01*
X159769767Y-96362320D01*
X159769769Y-96362322D01*
X159942749Y-96433973D01*
X160126384Y-96470500D01*
X160126385Y-96470500D01*
X160313615Y-96470500D01*
X160313616Y-96470500D01*
X160497251Y-96433973D01*
X160670231Y-96362322D01*
X160670234Y-96362319D01*
X160670238Y-96362318D01*
X160715187Y-96332282D01*
X160825908Y-96258302D01*
X160958302Y-96125908D01*
X161051836Y-95985925D01*
X161062318Y-95970238D01*
X161062319Y-95970234D01*
X161062322Y-95970231D01*
X161133973Y-95797251D01*
X161170500Y-95613616D01*
X161170500Y-95426384D01*
X161169552Y-95421619D01*
X161510000Y-95421619D01*
X161510000Y-95618380D01*
X161540778Y-95812710D01*
X161540779Y-95812714D01*
X161601576Y-95999826D01*
X161601578Y-95999829D01*
X161690903Y-96175142D01*
X161690907Y-96175148D01*
X161775831Y-96292034D01*
X161775832Y-96292034D01*
X162316328Y-95751537D01*
X162359901Y-95827007D01*
X162452993Y-95920099D01*
X162528460Y-95963670D01*
X161987964Y-96504167D01*
X162104851Y-96589092D01*
X162104857Y-96589096D01*
X162280170Y-96678421D01*
X162280173Y-96678423D01*
X162467285Y-96739220D01*
X162467289Y-96739221D01*
X162661620Y-96770000D01*
X162858380Y-96770000D01*
X163052710Y-96739221D01*
X163052714Y-96739220D01*
X163239826Y-96678423D01*
X163239829Y-96678421D01*
X163415145Y-96589094D01*
X163532034Y-96504167D01*
X162991538Y-95963671D01*
X163067007Y-95920099D01*
X163160099Y-95827007D01*
X163203671Y-95751538D01*
X163744167Y-96292034D01*
X163829094Y-96175145D01*
X163918421Y-95999829D01*
X163918423Y-95999826D01*
X163979220Y-95812714D01*
X163979221Y-95812710D01*
X164010000Y-95618380D01*
X164010000Y-95426381D01*
X164349500Y-95426381D01*
X164349500Y-95613618D01*
X164386026Y-95797249D01*
X164457677Y-95970229D01*
X164457681Y-95970238D01*
X164532065Y-96081559D01*
X164561698Y-96125908D01*
X164694092Y-96258302D01*
X164744576Y-96292034D01*
X164849761Y-96362318D01*
X164849767Y-96362320D01*
X164849769Y-96362322D01*
X165022749Y-96433973D01*
X165206384Y-96470500D01*
X165206385Y-96470500D01*
X165393615Y-96470500D01*
X165393616Y-96470500D01*
X165577251Y-96433973D01*
X165750231Y-96362322D01*
X165750234Y-96362319D01*
X165750238Y-96362318D01*
X165795187Y-96332282D01*
X165905908Y-96258302D01*
X166038302Y-96125908D01*
X166131836Y-95985925D01*
X166142318Y-95970238D01*
X166142319Y-95970234D01*
X166142322Y-95970231D01*
X166213973Y-95797251D01*
X166250500Y-95613616D01*
X166250500Y-95426384D01*
X166250499Y-95426381D01*
X166889500Y-95426381D01*
X166889500Y-95613618D01*
X166926026Y-95797249D01*
X166997677Y-95970229D01*
X166997681Y-95970238D01*
X167072065Y-96081559D01*
X167101698Y-96125908D01*
X167234092Y-96258302D01*
X167284576Y-96292034D01*
X167389761Y-96362318D01*
X167389767Y-96362320D01*
X167389769Y-96362322D01*
X167562749Y-96433973D01*
X167746384Y-96470500D01*
X167746385Y-96470500D01*
X167933615Y-96470500D01*
X167933616Y-96470500D01*
X168117251Y-96433973D01*
X168290231Y-96362322D01*
X168290234Y-96362319D01*
X168290238Y-96362318D01*
X168335187Y-96332282D01*
X168445908Y-96258302D01*
X168578302Y-96125908D01*
X168671836Y-95985925D01*
X168682318Y-95970238D01*
X168682319Y-95970234D01*
X168682322Y-95970231D01*
X168753973Y-95797251D01*
X168790500Y-95613616D01*
X168790500Y-95426384D01*
X168790499Y-95426381D01*
X169429500Y-95426381D01*
X169429500Y-95613618D01*
X169466026Y-95797249D01*
X169537677Y-95970229D01*
X169537681Y-95970238D01*
X169612065Y-96081559D01*
X169641698Y-96125908D01*
X169774092Y-96258302D01*
X169824576Y-96292034D01*
X169929761Y-96362318D01*
X169929767Y-96362320D01*
X169929769Y-96362322D01*
X170102749Y-96433973D01*
X170286384Y-96470500D01*
X170286385Y-96470500D01*
X170473615Y-96470500D01*
X170473616Y-96470500D01*
X170657251Y-96433973D01*
X170830231Y-96362322D01*
X170830234Y-96362319D01*
X170830238Y-96362318D01*
X170875187Y-96332282D01*
X170985908Y-96258302D01*
X171118302Y-96125908D01*
X171211836Y-95985925D01*
X171222318Y-95970238D01*
X171222319Y-95970234D01*
X171222322Y-95970231D01*
X171293973Y-95797251D01*
X171330500Y-95613616D01*
X171330500Y-95426384D01*
X171330499Y-95426381D01*
X171969500Y-95426381D01*
X171969500Y-95613618D01*
X172006026Y-95797249D01*
X172077677Y-95970229D01*
X172077681Y-95970238D01*
X172152065Y-96081559D01*
X172181698Y-96125908D01*
X172314092Y-96258302D01*
X172364576Y-96292034D01*
X172469761Y-96362318D01*
X172469767Y-96362320D01*
X172469769Y-96362322D01*
X172642749Y-96433973D01*
X172826384Y-96470500D01*
X172826385Y-96470500D01*
X173013615Y-96470500D01*
X173013616Y-96470500D01*
X173197251Y-96433973D01*
X173370231Y-96362322D01*
X173370234Y-96362319D01*
X173370238Y-96362318D01*
X173415187Y-96332282D01*
X173525908Y-96258302D01*
X173658302Y-96125908D01*
X173751836Y-95985925D01*
X173762318Y-95970238D01*
X173762319Y-95970234D01*
X173762322Y-95970231D01*
X173833973Y-95797251D01*
X173870500Y-95613616D01*
X173870500Y-95426384D01*
X173869552Y-95421619D01*
X174210000Y-95421619D01*
X174210000Y-95618380D01*
X174240778Y-95812710D01*
X174240779Y-95812714D01*
X174301576Y-95999826D01*
X174301578Y-95999829D01*
X174390903Y-96175142D01*
X174390907Y-96175148D01*
X174475831Y-96292034D01*
X174475832Y-96292034D01*
X175016328Y-95751537D01*
X175059901Y-95827007D01*
X175152993Y-95920099D01*
X175228460Y-95963670D01*
X174687964Y-96504167D01*
X174804851Y-96589092D01*
X174804857Y-96589096D01*
X174980170Y-96678421D01*
X174980173Y-96678423D01*
X175167285Y-96739220D01*
X175167289Y-96739221D01*
X175361620Y-96770000D01*
X175558380Y-96770000D01*
X175752710Y-96739221D01*
X175752714Y-96739220D01*
X175939826Y-96678423D01*
X175939829Y-96678421D01*
X176115145Y-96589094D01*
X176232034Y-96504167D01*
X175691538Y-95963671D01*
X175767007Y-95920099D01*
X175860099Y-95827007D01*
X175903671Y-95751538D01*
X176444167Y-96292034D01*
X176529094Y-96175145D01*
X176618421Y-95999829D01*
X176618423Y-95999826D01*
X176679220Y-95812714D01*
X176679221Y-95812710D01*
X176710000Y-95618380D01*
X176710000Y-95426381D01*
X177049500Y-95426381D01*
X177049500Y-95613618D01*
X177086026Y-95797249D01*
X177157677Y-95970229D01*
X177157681Y-95970238D01*
X177232065Y-96081559D01*
X177261698Y-96125908D01*
X177394092Y-96258302D01*
X177444576Y-96292034D01*
X177549761Y-96362318D01*
X177549767Y-96362320D01*
X177549769Y-96362322D01*
X177722749Y-96433973D01*
X177906384Y-96470500D01*
X177906385Y-96470500D01*
X178093615Y-96470500D01*
X178093616Y-96470500D01*
X178277251Y-96433973D01*
X178450231Y-96362322D01*
X178450234Y-96362319D01*
X178450238Y-96362318D01*
X178495187Y-96332282D01*
X178605908Y-96258302D01*
X178738302Y-96125908D01*
X178831836Y-95985925D01*
X178842318Y-95970238D01*
X178842319Y-95970234D01*
X178842322Y-95970231D01*
X178913973Y-95797251D01*
X178950500Y-95613616D01*
X178950500Y-95426384D01*
X178913973Y-95242749D01*
X178842322Y-95069769D01*
X178842320Y-95069767D01*
X178842318Y-95069761D01*
X178782649Y-94980463D01*
X178738302Y-94914092D01*
X178605908Y-94781698D01*
X178561559Y-94752065D01*
X178450238Y-94677681D01*
X178450229Y-94677677D01*
X178277249Y-94606026D01*
X178093618Y-94569500D01*
X178093616Y-94569500D01*
X177906384Y-94569500D01*
X177906381Y-94569500D01*
X177722750Y-94606026D01*
X177549770Y-94677677D01*
X177549761Y-94677681D01*
X177394092Y-94781698D01*
X177394088Y-94781701D01*
X177261701Y-94914088D01*
X177261698Y-94914092D01*
X177157681Y-95069761D01*
X177157677Y-95069770D01*
X177086026Y-95242750D01*
X177049500Y-95426381D01*
X176710000Y-95426381D01*
X176710000Y-95421619D01*
X176679221Y-95227289D01*
X176679220Y-95227285D01*
X176618423Y-95040173D01*
X176618421Y-95040170D01*
X176529096Y-94864857D01*
X176529092Y-94864851D01*
X176444167Y-94747964D01*
X175903670Y-95288460D01*
X175860099Y-95212993D01*
X175767007Y-95119901D01*
X175691537Y-95076328D01*
X176232034Y-94535832D01*
X176232034Y-94535831D01*
X176115148Y-94450907D01*
X176115142Y-94450903D01*
X175939829Y-94361578D01*
X175939826Y-94361576D01*
X175752714Y-94300779D01*
X175752710Y-94300778D01*
X175558380Y-94270000D01*
X175361620Y-94270000D01*
X175167289Y-94300778D01*
X175167285Y-94300779D01*
X174980173Y-94361576D01*
X174980170Y-94361578D01*
X174804859Y-94450902D01*
X174687964Y-94535832D01*
X175228461Y-95076329D01*
X175152993Y-95119901D01*
X175059901Y-95212993D01*
X175016329Y-95288461D01*
X174475832Y-94747964D01*
X174390902Y-94864859D01*
X174301578Y-95040170D01*
X174301576Y-95040173D01*
X174240779Y-95227285D01*
X174240778Y-95227289D01*
X174210000Y-95421619D01*
X173869552Y-95421619D01*
X173833973Y-95242749D01*
X173762322Y-95069769D01*
X173762320Y-95069767D01*
X173762318Y-95069761D01*
X173702649Y-94980463D01*
X173658302Y-94914092D01*
X173525908Y-94781698D01*
X173481559Y-94752065D01*
X173370238Y-94677681D01*
X173370226Y-94677675D01*
X173339692Y-94665028D01*
X173339691Y-94665028D01*
X173197249Y-94606026D01*
X173013618Y-94569500D01*
X173013616Y-94569500D01*
X172826384Y-94569500D01*
X172826381Y-94569500D01*
X172642750Y-94606026D01*
X172469770Y-94677677D01*
X172469761Y-94677681D01*
X172314092Y-94781698D01*
X172314088Y-94781701D01*
X172181701Y-94914088D01*
X172181698Y-94914092D01*
X172077681Y-95069761D01*
X172077677Y-95069770D01*
X172006026Y-95242750D01*
X171969500Y-95426381D01*
X171330499Y-95426381D01*
X171293973Y-95242749D01*
X171222322Y-95069769D01*
X171222320Y-95069767D01*
X171222318Y-95069761D01*
X171162649Y-94980463D01*
X171118302Y-94914092D01*
X170985908Y-94781698D01*
X170941559Y-94752065D01*
X170830238Y-94677681D01*
X170830229Y-94677677D01*
X170657249Y-94606026D01*
X170473618Y-94569500D01*
X170473616Y-94569500D01*
X170286384Y-94569500D01*
X170286381Y-94569500D01*
X170102750Y-94606026D01*
X169929770Y-94677677D01*
X169929761Y-94677681D01*
X169774092Y-94781698D01*
X169774088Y-94781701D01*
X169641701Y-94914088D01*
X169641698Y-94914092D01*
X169537681Y-95069761D01*
X169537677Y-95069770D01*
X169466026Y-95242750D01*
X169429500Y-95426381D01*
X168790499Y-95426381D01*
X168753973Y-95242749D01*
X168682322Y-95069769D01*
X168682320Y-95069767D01*
X168682318Y-95069761D01*
X168622649Y-94980463D01*
X168578302Y-94914092D01*
X168445908Y-94781698D01*
X168401559Y-94752065D01*
X168290238Y-94677681D01*
X168290229Y-94677677D01*
X168117249Y-94606026D01*
X167933618Y-94569500D01*
X167933616Y-94569500D01*
X167746384Y-94569500D01*
X167746381Y-94569500D01*
X167562750Y-94606026D01*
X167389770Y-94677677D01*
X167389761Y-94677681D01*
X167234092Y-94781698D01*
X167234088Y-94781701D01*
X167101701Y-94914088D01*
X167101698Y-94914092D01*
X166997681Y-95069761D01*
X166997677Y-95069770D01*
X166926026Y-95242750D01*
X166889500Y-95426381D01*
X166250499Y-95426381D01*
X166213973Y-95242749D01*
X166142322Y-95069769D01*
X166142320Y-95069767D01*
X166142318Y-95069761D01*
X166082649Y-94980463D01*
X166038302Y-94914092D01*
X165905908Y-94781698D01*
X165861559Y-94752065D01*
X165750238Y-94677681D01*
X165750229Y-94677677D01*
X165577249Y-94606026D01*
X165393618Y-94569500D01*
X165393616Y-94569500D01*
X165206384Y-94569500D01*
X165206381Y-94569500D01*
X165022750Y-94606026D01*
X164849770Y-94677677D01*
X164849761Y-94677681D01*
X164694092Y-94781698D01*
X164694088Y-94781701D01*
X164561701Y-94914088D01*
X164561698Y-94914092D01*
X164457681Y-95069761D01*
X164457677Y-95069770D01*
X164386026Y-95242750D01*
X164349500Y-95426381D01*
X164010000Y-95426381D01*
X164010000Y-95421619D01*
X163979221Y-95227289D01*
X163979220Y-95227285D01*
X163918423Y-95040173D01*
X163918421Y-95040170D01*
X163829096Y-94864857D01*
X163829092Y-94864851D01*
X163744167Y-94747964D01*
X163203670Y-95288460D01*
X163160099Y-95212993D01*
X163067007Y-95119901D01*
X162991537Y-95076328D01*
X163532034Y-94535832D01*
X163532034Y-94535831D01*
X163415148Y-94450907D01*
X163415142Y-94450903D01*
X163239829Y-94361578D01*
X163239826Y-94361576D01*
X163052714Y-94300779D01*
X163052710Y-94300778D01*
X162858380Y-94270000D01*
X162661620Y-94270000D01*
X162467289Y-94300778D01*
X162467285Y-94300779D01*
X162280173Y-94361576D01*
X162280170Y-94361578D01*
X162104859Y-94450902D01*
X161987964Y-94535832D01*
X162528461Y-95076329D01*
X162452993Y-95119901D01*
X162359901Y-95212993D01*
X162316329Y-95288461D01*
X161775832Y-94747964D01*
X161690902Y-94864859D01*
X161601578Y-95040170D01*
X161601576Y-95040173D01*
X161540779Y-95227285D01*
X161540778Y-95227289D01*
X161510000Y-95421619D01*
X161169552Y-95421619D01*
X161133973Y-95242749D01*
X161062322Y-95069769D01*
X161062320Y-95069767D01*
X161062318Y-95069761D01*
X161002649Y-94980463D01*
X160958302Y-94914092D01*
X160825908Y-94781698D01*
X160781559Y-94752065D01*
X160670238Y-94677681D01*
X160670226Y-94677675D01*
X160639692Y-94665028D01*
X160639691Y-94665028D01*
X160497249Y-94606026D01*
X160313618Y-94569500D01*
X160313616Y-94569500D01*
X160126384Y-94569500D01*
X160126381Y-94569500D01*
X159942750Y-94606026D01*
X159769770Y-94677677D01*
X159769761Y-94677681D01*
X159614092Y-94781698D01*
X159614088Y-94781701D01*
X159481701Y-94914088D01*
X159481698Y-94914092D01*
X159377681Y-95069761D01*
X159377677Y-95069770D01*
X159306026Y-95242750D01*
X159269500Y-95426381D01*
X158630499Y-95426381D01*
X158593973Y-95242749D01*
X158522322Y-95069769D01*
X158522320Y-95069767D01*
X158522318Y-95069761D01*
X158462649Y-94980463D01*
X158418302Y-94914092D01*
X158285908Y-94781698D01*
X158241559Y-94752065D01*
X158130238Y-94677681D01*
X158130229Y-94677677D01*
X157957249Y-94606026D01*
X157773618Y-94569500D01*
X157773616Y-94569500D01*
X157586384Y-94569500D01*
X157586381Y-94569500D01*
X157402750Y-94606026D01*
X157229770Y-94677677D01*
X157229761Y-94677681D01*
X157074092Y-94781698D01*
X157074088Y-94781701D01*
X156941701Y-94914088D01*
X156941698Y-94914092D01*
X156837681Y-95069761D01*
X156837677Y-95069770D01*
X156766026Y-95242750D01*
X156729500Y-95426381D01*
X156090499Y-95426381D01*
X156053973Y-95242749D01*
X155982322Y-95069769D01*
X155982320Y-95069767D01*
X155982318Y-95069761D01*
X155922649Y-94980463D01*
X155878302Y-94914092D01*
X155745908Y-94781698D01*
X155701559Y-94752065D01*
X155590238Y-94677681D01*
X155590229Y-94677677D01*
X155417249Y-94606026D01*
X155233618Y-94569500D01*
X155233616Y-94569500D01*
X155046384Y-94569500D01*
X155046381Y-94569500D01*
X154862750Y-94606026D01*
X154689770Y-94677677D01*
X154689761Y-94677681D01*
X154534092Y-94781698D01*
X154534088Y-94781701D01*
X154401701Y-94914088D01*
X154401698Y-94914092D01*
X154297681Y-95069761D01*
X154297677Y-95069770D01*
X154226026Y-95242750D01*
X154189500Y-95426381D01*
X142092817Y-95426381D01*
X142142052Y-95157714D01*
X142144912Y-95146113D01*
X142153080Y-95119901D01*
X142231148Y-94869370D01*
X142235378Y-94858218D01*
X142354350Y-94593873D01*
X142359899Y-94583302D01*
X142509861Y-94335233D01*
X142516632Y-94325423D01*
X142695406Y-94097235D01*
X142703318Y-94088303D01*
X142908303Y-93883318D01*
X142917235Y-93875406D01*
X143145423Y-93696632D01*
X143155233Y-93689861D01*
X143403302Y-93539899D01*
X143413873Y-93534350D01*
X143678218Y-93415378D01*
X143689370Y-93411148D01*
X143966120Y-93324910D01*
X143977714Y-93322052D01*
X144262837Y-93269801D01*
X144274688Y-93268362D01*
X144567008Y-93250681D01*
X144572985Y-93250500D01*
X144635892Y-93250500D01*
X188504108Y-93250500D01*
X188567015Y-93250500D01*
X188572992Y-93250681D01*
G37*
%TD.AperFunction*%
%TD*%
M02*
