%TF.GenerationSoftware,KiCad,Pcbnew,9.0.7*%
%TF.CreationDate,2026-04-02T22:20:24+02:00*%
%TF.ProjectId,flow_monitor,666c6f77-5f6d-46f6-9e69-746f722e6b69,rev?*%
%TF.SameCoordinates,Original*%
%TF.FileFunction,Soldermask,Top*%
%TF.FilePolarity,Negative*%
%FSLAX46Y46*%
G04 Gerber Fmt 4.6, Leading zero omitted, Abs format (unit mm)*
G04 Created by KiCad (PCBNEW 9.0.7) date 2026-04-02 22:20:24*
%MOMM*%
%LPD*%
G01*
G04 APERTURE LIST*
G04 Aperture macros list*
%AMRoundRect*
0 Rectangle with rounded corners*
0 $1 Rounding radius*
0 $2 $3 $4 $5 $6 $7 $8 $9 X,Y pos of 4 corners*
0 Add a 4 corners polygon primitive as box body*
4,1,4,$2,$3,$4,$5,$6,$7,$8,$9,$2,$3,0*
0 Add four circle primitives for the rounded corners*
1,1,$1+$1,$2,$3*
1,1,$1+$1,$4,$5*
1,1,$1+$1,$6,$7*
1,1,$1+$1,$8,$9*
0 Add four rect primitives between the rounded corners*
20,1,$1+$1,$2,$3,$4,$5,0*
20,1,$1+$1,$4,$5,$6,$7,0*
20,1,$1+$1,$6,$7,$8,$9,0*
20,1,$1+$1,$8,$9,$2,$3,0*%
G04 Aperture macros list end*
%ADD10C,0.200000*%
%ADD11RoundRect,0.225000X0.225000X0.250000X-0.225000X0.250000X-0.225000X-0.250000X0.225000X-0.250000X0*%
%ADD12RoundRect,0.200000X-0.275000X0.200000X-0.275000X-0.200000X0.275000X-0.200000X0.275000X0.200000X0*%
%ADD13RoundRect,0.225000X-0.250000X0.225000X-0.250000X-0.225000X0.250000X-0.225000X0.250000X0.225000X0*%
%ADD14RoundRect,0.218750X-0.218750X-0.381250X0.218750X-0.381250X0.218750X0.381250X-0.218750X0.381250X0*%
%ADD15RoundRect,0.150000X0.587500X0.150000X-0.587500X0.150000X-0.587500X-0.150000X0.587500X-0.150000X0*%
%ADD16C,2.000000*%
%ADD17R,0.660001X0.249999*%
%ADD18R,0.700001X0.249999*%
%ADD19R,1.700000X1.700000*%
%ADD20C,1.700000*%
%ADD21RoundRect,0.200000X0.275000X-0.200000X0.275000X0.200000X-0.275000X0.200000X-0.275000X-0.200000X0*%
%ADD22RoundRect,0.200000X-0.200000X-0.275000X0.200000X-0.275000X0.200000X0.275000X-0.200000X0.275000X0*%
%ADD23O,3.500000X2.200000*%
%ADD24R,2.500000X1.500000*%
%ADD25O,2.500000X1.500000*%
%ADD26RoundRect,0.225000X-0.225000X-0.250000X0.225000X-0.250000X0.225000X0.250000X-0.225000X0.250000X0*%
%ADD27RoundRect,0.075000X0.662500X0.075000X-0.662500X0.075000X-0.662500X-0.075000X0.662500X-0.075000X0*%
%ADD28RoundRect,0.075000X0.075000X0.662500X-0.075000X0.662500X-0.075000X-0.662500X0.075000X-0.662500X0*%
%ADD29R,1.800000X1.000000*%
%ADD30RoundRect,0.225000X0.250000X-0.225000X0.250000X0.225000X-0.250000X0.225000X-0.250000X-0.225000X0*%
%ADD31R,2.000000X2.000000*%
%ADD32R,1.300000X0.300000*%
%ADD33R,3.000000X2.000000*%
%ADD34R,1.500000X1.500000*%
%ADD35C,1.500000*%
%ADD36C,3.200000*%
G04 APERTURE END LIST*
D10*
G36*
X148570000Y-135791000D02*
G01*
X148570000Y-133416959D01*
X149993599Y-133416959D01*
X150469232Y-133892756D01*
X150469232Y-134380259D01*
X149989313Y-133900175D01*
X149053051Y-133900175D01*
X149053051Y-135307783D01*
X149986181Y-135307783D01*
X149986181Y-134838251D01*
X150469232Y-134354870D01*
X150469232Y-135315202D01*
X149993599Y-135791000D01*
X148570000Y-135791000D01*
G37*
G36*
X152348351Y-135791000D02*
G01*
X152348351Y-135300364D01*
X152837502Y-135791000D01*
X152348351Y-135791000D01*
G37*
G36*
X151413902Y-135798418D02*
G01*
X150930851Y-135315202D01*
X150930851Y-133892756D01*
X151406483Y-133416959D01*
X152355770Y-133416959D01*
X152830083Y-133892756D01*
X152830083Y-134369708D01*
X152358902Y-134842372D01*
X152358902Y-135325754D01*
X151395932Y-134362289D01*
X152348351Y-134362289D01*
X152348351Y-133900175D01*
X151413902Y-133900175D01*
X151413902Y-135798418D01*
G37*
G36*
X153774754Y-135800562D02*
G01*
X153291702Y-135317345D01*
X153291702Y-134357013D01*
X153774754Y-134840394D01*
X153774754Y-135800562D01*
G37*
G36*
X153291702Y-133902318D02*
G01*
X153291702Y-133411683D01*
X153782172Y-133902318D01*
X153291702Y-133902318D01*
G37*
G36*
X156135275Y-133892756D02*
G01*
X156135275Y-134365586D01*
X155659643Y-134841383D01*
X154719094Y-134841383D01*
X154719094Y-135794132D01*
X154236043Y-135310916D01*
X154236043Y-134358167D01*
X154719094Y-134358167D01*
X155652224Y-134358167D01*
X155652224Y-133900175D01*
X154719094Y-133900175D01*
X154719094Y-134358167D01*
X154236043Y-134358167D01*
X154236043Y-133892756D01*
X154711675Y-133416959D01*
X155659643Y-133416959D01*
X156135275Y-133892756D01*
G37*
G36*
X157079945Y-135800562D02*
G01*
X156596894Y-135317345D01*
X156596894Y-134357013D01*
X157079945Y-134840394D01*
X157079945Y-135800562D01*
G37*
G36*
X156596894Y-133902318D02*
G01*
X156596894Y-133411683D01*
X157087364Y-133902318D01*
X156596894Y-133902318D01*
G37*
G36*
X158490851Y-135798418D02*
G01*
X158490851Y-133900175D01*
X157538432Y-133900175D01*
X158021483Y-133416959D01*
X159926321Y-133416959D01*
X159443270Y-133900175D01*
X158973902Y-133900175D01*
X158973902Y-135315202D01*
X158490851Y-135798418D01*
G37*
G36*
X162273489Y-133892756D02*
G01*
X162273489Y-135315202D01*
X161797856Y-135791000D01*
X160849889Y-135791000D01*
X160374256Y-135315202D01*
X160374256Y-135307783D01*
X160857308Y-135307783D01*
X161790437Y-135307783D01*
X161790437Y-133900175D01*
X160857308Y-133900175D01*
X160857308Y-135307783D01*
X160374256Y-135307783D01*
X160374256Y-133892756D01*
X160849889Y-133416959D01*
X161797856Y-133416959D01*
X162273489Y-133892756D01*
G37*
G36*
X164629064Y-135793143D02*
G01*
X163679448Y-134842537D01*
X163679448Y-133416959D01*
X164162500Y-133416959D01*
X164162500Y-134838251D01*
X164629064Y-135305640D01*
X165095629Y-134838251D01*
X165095629Y-133416959D01*
X165578681Y-133416959D01*
X165578681Y-134842537D01*
X164629064Y-135793143D01*
G37*
G36*
X166515932Y-135791000D02*
G01*
X166040300Y-135315202D01*
X166040300Y-134833964D01*
X166515932Y-134358167D01*
X167456481Y-134358167D01*
X167456481Y-133900175D01*
X166032881Y-133900175D01*
X166515932Y-133416959D01*
X167463900Y-133416959D01*
X167939532Y-133892756D01*
X167939532Y-134365586D01*
X167463900Y-134841383D01*
X166523351Y-134841383D01*
X166523351Y-135307783D01*
X167946951Y-135307783D01*
X167463900Y-135791000D01*
X166515932Y-135791000D01*
G37*
D11*
%TO.C,C3*%
X153120000Y-106500000D03*
X151570000Y-106500000D03*
%TD*%
D12*
%TO.C,R15*%
X186320000Y-104600000D03*
X186320000Y-106250000D03*
%TD*%
%TO.C,R16*%
X181320000Y-104425000D03*
X181320000Y-106075000D03*
%TD*%
D13*
%TO.C,C9*%
X160000000Y-98200000D03*
X160000000Y-99750000D03*
%TD*%
D14*
%TO.C,L1*%
X148195000Y-104750000D03*
X150320000Y-104750000D03*
%TD*%
D15*
%TO.C,Q1*%
X173507500Y-134450000D03*
X173507500Y-132550000D03*
X171632500Y-133500000D03*
%TD*%
D16*
%TO.C,BOT*%
X172570000Y-104250000D03*
%TD*%
D17*
%TO.C,U1*%
X151662500Y-104250002D03*
D18*
X151682502Y-104750001D03*
X151682502Y-105250000D03*
X152882500Y-105250000D03*
X152882500Y-104750001D03*
X152882500Y-104250002D03*
%TD*%
D13*
%TO.C,C13*%
X182820000Y-101225000D03*
X182820000Y-102775000D03*
%TD*%
%TO.C,C14*%
X161500000Y-98200000D03*
X161500000Y-99750000D03*
%TD*%
D19*
%TO.C,J1*%
X163780000Y-123250000D03*
D20*
X166320000Y-123250000D03*
X168860000Y-123250000D03*
X171400000Y-123250000D03*
X173940000Y-123250000D03*
X176480000Y-123250000D03*
X179020000Y-123250000D03*
%TD*%
D21*
%TO.C,R6*%
X179320000Y-136075000D03*
X179320000Y-134425000D03*
%TD*%
D11*
%TO.C,C12*%
X174507500Y-111500000D03*
X172957500Y-111500000D03*
%TD*%
D12*
%TO.C,R10*%
X157070000Y-109425000D03*
X157070000Y-111075000D03*
%TD*%
D22*
%TO.C,R8*%
X151495000Y-111000000D03*
X153145000Y-111000000D03*
%TD*%
D15*
%TO.C,Q3*%
X149757500Y-109950000D03*
X149757500Y-108050000D03*
X147882500Y-109000000D03*
%TD*%
D19*
%TO.C,J3*%
X183845000Y-105500000D03*
D20*
X183845000Y-108040000D03*
%TD*%
D12*
%TO.C,R13*%
X186320000Y-114425000D03*
X186320000Y-116075000D03*
%TD*%
D11*
%TO.C,C11*%
X174482500Y-110000000D03*
X172932500Y-110000000D03*
%TD*%
D23*
%TO.C,SW1*%
X144257500Y-103400000D03*
X144257500Y-111600000D03*
D24*
X144257500Y-105500000D03*
D25*
X144257500Y-107500000D03*
X144257500Y-109500000D03*
%TD*%
D15*
%TO.C,Q2*%
X182257500Y-133950000D03*
X182257500Y-132050000D03*
X180382500Y-133000000D03*
%TD*%
D26*
%TO.C,C1*%
X151545000Y-108000000D03*
X153095000Y-108000000D03*
%TD*%
D22*
%TO.C,R5*%
X148495000Y-106500000D03*
X150145000Y-106500000D03*
%TD*%
D11*
%TO.C,C2*%
X153095000Y-109500000D03*
X151545000Y-109500000D03*
%TD*%
%TO.C,C7*%
X176845000Y-113750000D03*
X175295000Y-113750000D03*
%TD*%
D21*
%TO.C,R18*%
X158232500Y-120825000D03*
X158232500Y-119175000D03*
%TD*%
D12*
%TO.C,R14*%
X181320000Y-114425000D03*
X181320000Y-116075000D03*
%TD*%
D22*
%TO.C,R4*%
X180995000Y-130500000D03*
X182645000Y-130500000D03*
%TD*%
%TO.C,R12*%
X169745000Y-126500000D03*
X171395000Y-126500000D03*
%TD*%
D16*
%TO.C,TP1*%
X178070000Y-105000000D03*
%TD*%
D27*
%TO.C,U2*%
X170895000Y-115250000D03*
X170895000Y-114750000D03*
X170895000Y-114250000D03*
X170895000Y-113750000D03*
X170895000Y-113250000D03*
X170895000Y-112750000D03*
X170895000Y-112250000D03*
X170895000Y-111750000D03*
X170895000Y-111250000D03*
X170895000Y-110750000D03*
X170895000Y-110250000D03*
X170895000Y-109750000D03*
D28*
X169482500Y-108337500D03*
X168982500Y-108337500D03*
X168482500Y-108337500D03*
X167982500Y-108337500D03*
X167482500Y-108337500D03*
X166982500Y-108337500D03*
X166482500Y-108337500D03*
X165982500Y-108337500D03*
X165482500Y-108337500D03*
X164982500Y-108337500D03*
X164482500Y-108337500D03*
X163982500Y-108337500D03*
D27*
X162570000Y-109750000D03*
X162570000Y-110250000D03*
X162570000Y-110750000D03*
X162570000Y-111250000D03*
X162570000Y-111750000D03*
X162570000Y-112250000D03*
X162570000Y-112750000D03*
X162570000Y-113250000D03*
X162570000Y-113750000D03*
X162570000Y-114250000D03*
X162570000Y-114750000D03*
X162570000Y-115250000D03*
D28*
X163982500Y-116662500D03*
X164482500Y-116662500D03*
X164982500Y-116662500D03*
X165482500Y-116662500D03*
X165982500Y-116662500D03*
X166482500Y-116662500D03*
X166982500Y-116662500D03*
X167482500Y-116662500D03*
X167982500Y-116662500D03*
X168482500Y-116662500D03*
X168982500Y-116662500D03*
X169482500Y-116662500D03*
%TD*%
D29*
%TO.C,Y1*%
X173320000Y-113500000D03*
X173320000Y-116000000D03*
%TD*%
D22*
%TO.C,R17*%
X156495000Y-114250000D03*
X158145000Y-114250000D03*
%TD*%
D30*
%TO.C,C16*%
X157000000Y-99750000D03*
X157000000Y-98200000D03*
%TD*%
D12*
%TO.C,R9*%
X157070000Y-106425000D03*
X157070000Y-108075000D03*
%TD*%
D22*
%TO.C,R1*%
X172245000Y-131000000D03*
X173895000Y-131000000D03*
%TD*%
D31*
%TO.C,BZ1*%
X149982500Y-115525000D03*
D16*
X149982500Y-123125000D03*
%TD*%
D22*
%TO.C,R11*%
X171245000Y-118750000D03*
X172895000Y-118750000D03*
%TD*%
D11*
%TO.C,C4*%
X153120000Y-103000000D03*
X151570000Y-103000000D03*
%TD*%
D30*
%TO.C,C15*%
X158500000Y-99775000D03*
X158500000Y-98225000D03*
%TD*%
D21*
%TO.C,R3*%
X170570000Y-132075000D03*
X170570000Y-130425000D03*
%TD*%
D11*
%TO.C,C6*%
X176845000Y-115750000D03*
X175295000Y-115750000D03*
%TD*%
D26*
%TO.C,C10*%
X172957500Y-108500000D03*
X174507500Y-108500000D03*
%TD*%
D13*
%TO.C,C8*%
X182819999Y-111336034D03*
X182819999Y-112886034D03*
%TD*%
D19*
%TO.C,J2*%
X183845000Y-115500000D03*
D20*
X183845000Y-118040000D03*
%TD*%
D21*
%TO.C,R7*%
X179320000Y-131575000D03*
X179320000Y-129925000D03*
%TD*%
D12*
%TO.C,R19*%
X158232500Y-115925000D03*
X158232500Y-117575000D03*
%TD*%
D15*
%TO.C,Q4*%
X159420000Y-124200000D03*
X159420000Y-122300000D03*
X157545000Y-123250000D03*
%TD*%
D32*
%TO.C,J4*%
X184520000Y-132500000D03*
X184520000Y-132000000D03*
X184520000Y-131500000D03*
X184520000Y-131000000D03*
X184520000Y-130500000D03*
X184520000Y-130000000D03*
D33*
X186870000Y-134150000D03*
X186870000Y-128350000D03*
%TD*%
D11*
%TO.C,C5*%
X162845000Y-120250000D03*
X161295000Y-120250000D03*
%TD*%
D21*
%TO.C,R2*%
X170570000Y-136575000D03*
X170570000Y-134925000D03*
%TD*%
D34*
%TO.C,U3*%
X178000000Y-126000000D03*
D35*
X175460000Y-126000000D03*
X157680000Y-126000000D03*
X155140000Y-126000000D03*
X155140000Y-95520000D03*
X157680000Y-95520000D03*
X160220000Y-95520000D03*
X162760000Y-95520000D03*
X165300000Y-95520000D03*
X167840000Y-95520000D03*
X170380000Y-95520000D03*
X172920000Y-95520000D03*
X175460000Y-95520000D03*
X178000000Y-95520000D03*
%TD*%
D36*
X145000000Y-134500000D03*
X189000000Y-95500000D03*
D16*
X145000000Y-130000000D03*
D36*
X144336941Y-95500000D03*
D16*
X189000000Y-100000000D03*
D36*
X189000000Y-123000000D03*
G36*
X161943039Y-105019685D02*
G01*
X161988794Y-105072489D01*
X162000000Y-105124000D01*
X162000000Y-105876000D01*
X161980315Y-105943039D01*
X161927511Y-105988794D01*
X161876000Y-106000000D01*
X161124000Y-106000000D01*
X161056961Y-105980315D01*
X161011206Y-105927511D01*
X161000000Y-105876000D01*
X161000000Y-105124000D01*
X161019685Y-105056961D01*
X161072489Y-105011206D01*
X161124000Y-105000000D01*
X161876000Y-105000000D01*
X161943039Y-105019685D01*
G37*
G36*
X161943039Y-102519685D02*
G01*
X161988794Y-102572489D01*
X162000000Y-102624000D01*
X162000000Y-103376000D01*
X161980315Y-103443039D01*
X161927511Y-103488794D01*
X161876000Y-103500000D01*
X161124000Y-103500000D01*
X161056961Y-103480315D01*
X161011206Y-103427511D01*
X161000000Y-103376000D01*
X161000000Y-102624000D01*
X161019685Y-102556961D01*
X161072489Y-102511206D01*
X161124000Y-102500000D01*
X161876000Y-102500000D01*
X161943039Y-102519685D01*
G37*
G36*
X164443039Y-102519685D02*
G01*
X164488794Y-102572489D01*
X164500000Y-102624000D01*
X164500000Y-103376000D01*
X164480315Y-103443039D01*
X164427511Y-103488794D01*
X164376000Y-103500000D01*
X163624000Y-103500000D01*
X163556961Y-103480315D01*
X163511206Y-103427511D01*
X163500000Y-103376000D01*
X163500000Y-102624000D01*
X163519685Y-102556961D01*
X163572489Y-102511206D01*
X163624000Y-102500000D01*
X164376000Y-102500000D01*
X164443039Y-102519685D01*
G37*
M02*
