ISO-10303-21;
HEADER;
/* Generated by software containing ST-Developer
 * from STEP Tools, Inc. (www.steptools.com) 
 */
/* OPTION: using custom renumber hook */

FILE_DESCRIPTION(
/* description */ ('STEP AP242 Edition 2',
'CAx-IF Rec.Pracs.---Representation and Presentation of Product Manufa
cturing Information (PMI)---4.0---2014-10-13',
'CAx-IF Rec.Pracs.---3D Tessellated Geometry---0.4---2014-09-14','2;1',
'CAx-IF Rec.Pracs.---User Defined Attributes---1.5---2016-08-15'),
/* implementation_level */ '2;1');

FILE_NAME(
/* name */ 'Assembly 1 - lock',
/* time_stamp */ '2026-05-14T07:47:13Z',
/* author */ (''),
/* organization */ (''),
/* preprocessor_version */ 'ST-DEVELOPER v20',
/* originating_system */ 'ONSHAPE BY PTC INC, 1.214',
/* authorisation */ '  ');

FILE_SCHEMA (('AP242_MANAGED_MODEL_BASED_3D_ENGINEERING_MIM_LF { 1 0 10303 442 3 1 4 }'));
ENDSEC;

DATA;
#10=SHAPE_REPRESENTATION_RELATIONSHIP('','',#323,#11);
#11=ADVANCED_BREP_SHAPE_REPRESENTATION('',(#321),#509);
#12=CYLINDRICAL_SURFACE('',#339,0.0005);
#13=CIRCLE('',#337,0.0005);
#14=CIRCLE('',#340,0.0005);
#15=ORIENTED_EDGE('',*,*,#99,.F.);
#16=ORIENTED_EDGE('',*,*,#100,.T.);
#17=ORIENTED_EDGE('',*,*,#101,.T.);
#18=ORIENTED_EDGE('',*,*,#102,.T.);
#19=ORIENTED_EDGE('',*,*,#103,.F.);
#20=ORIENTED_EDGE('',*,*,#104,.T.);
#21=ORIENTED_EDGE('',*,*,#105,.T.);
#22=ORIENTED_EDGE('',*,*,#100,.F.);
#23=ORIENTED_EDGE('',*,*,#106,.F.);
#24=ORIENTED_EDGE('',*,*,#107,.T.);
#25=ORIENTED_EDGE('',*,*,#108,.T.);
#26=ORIENTED_EDGE('',*,*,#104,.F.);
#27=ORIENTED_EDGE('',*,*,#109,.T.);
#28=ORIENTED_EDGE('',*,*,#110,.F.);
#29=ORIENTED_EDGE('',*,*,#101,.F.);
#30=ORIENTED_EDGE('',*,*,#105,.F.);
#31=ORIENTED_EDGE('',*,*,#108,.F.);
#32=ORIENTED_EDGE('',*,*,#111,.F.);
#33=ORIENTED_EDGE('',*,*,#112,.F.);
#34=ORIENTED_EDGE('',*,*,#113,.F.);
#35=ORIENTED_EDGE('',*,*,#111,.T.);
#36=ORIENTED_EDGE('',*,*,#107,.F.);
#37=ORIENTED_EDGE('',*,*,#114,.T.);
#38=ORIENTED_EDGE('',*,*,#115,.T.);
#39=ORIENTED_EDGE('',*,*,#116,.F.);
#40=ORIENTED_EDGE('',*,*,#117,.T.);
#41=ORIENTED_EDGE('',*,*,#118,.T.);
#42=ORIENTED_EDGE('',*,*,#119,.T.);
#43=ORIENTED_EDGE('',*,*,#120,.T.);
#44=ORIENTED_EDGE('',*,*,#121,.T.);
#45=ORIENTED_EDGE('',*,*,#102,.F.);
#46=ORIENTED_EDGE('',*,*,#110,.T.);
#47=ORIENTED_EDGE('',*,*,#114,.F.);
#48=ORIENTED_EDGE('',*,*,#106,.T.);
#49=ORIENTED_EDGE('',*,*,#103,.T.);
#50=ORIENTED_EDGE('',*,*,#99,.T.);
#51=ORIENTED_EDGE('',*,*,#121,.F.);
#52=ORIENTED_EDGE('',*,*,#122,.F.);
#53=ORIENTED_EDGE('',*,*,#123,.T.);
#54=ORIENTED_EDGE('',*,*,#124,.T.);
#55=ORIENTED_EDGE('',*,*,#125,.F.);
#56=ORIENTED_EDGE('',*,*,#112,.T.);
#57=ORIENTED_EDGE('',*,*,#117,.F.);
#58=ORIENTED_EDGE('',*,*,#126,.F.);
#59=ORIENTED_EDGE('',*,*,#127,.T.);
#60=ORIENTED_EDGE('',*,*,#113,.T.);
#61=ORIENTED_EDGE('',*,*,#125,.T.);
#62=ORIENTED_EDGE('',*,*,#128,.F.);
#63=ORIENTED_EDGE('',*,*,#129,.T.);
#64=ORIENTED_EDGE('',*,*,#126,.T.);
#65=ORIENTED_EDGE('',*,*,#116,.T.);
#66=ORIENTED_EDGE('',*,*,#130,.F.);
#67=ORIENTED_EDGE('',*,*,#131,.F.);
#68=ORIENTED_EDGE('',*,*,#132,.T.);
#69=ORIENTED_EDGE('',*,*,#133,.T.);
#70=ORIENTED_EDGE('',*,*,#118,.F.);
#71=ORIENTED_EDGE('',*,*,#109,.F.);
#72=ORIENTED_EDGE('',*,*,#129,.F.);
#73=ORIENTED_EDGE('',*,*,#134,.F.);
#74=ORIENTED_EDGE('',*,*,#135,.T.);
#75=ORIENTED_EDGE('',*,*,#130,.T.);
#76=ORIENTED_EDGE('',*,*,#115,.F.);
#77=ORIENTED_EDGE('',*,*,#124,.F.);
#78=ORIENTED_EDGE('',*,*,#136,.T.);
#79=ORIENTED_EDGE('',*,*,#137,.T.);
#80=ORIENTED_EDGE('',*,*,#119,.F.);
#81=ORIENTED_EDGE('',*,*,#133,.F.);
#82=ORIENTED_EDGE('',*,*,#138,.T.);
#83=ORIENTED_EDGE('',*,*,#134,.T.);
#84=ORIENTED_EDGE('',*,*,#123,.F.);
#85=ORIENTED_EDGE('',*,*,#139,.F.);
#86=ORIENTED_EDGE('',*,*,#120,.F.);
#87=ORIENTED_EDGE('',*,*,#137,.F.);
#88=ORIENTED_EDGE('',*,*,#140,.T.);
#89=ORIENTED_EDGE('',*,*,#139,.T.);
#90=ORIENTED_EDGE('',*,*,#122,.T.);
#91=ORIENTED_EDGE('',*,*,#140,.F.);
#92=ORIENTED_EDGE('',*,*,#136,.F.);
#93=ORIENTED_EDGE('',*,*,#132,.F.);
#94=ORIENTED_EDGE('',*,*,#128,.T.);
#95=ORIENTED_EDGE('',*,*,#127,.F.);
#96=ORIENTED_EDGE('',*,*,#131,.T.);
#97=ORIENTED_EDGE('',*,*,#135,.F.);
#98=ORIENTED_EDGE('',*,*,#138,.F.);
#99=EDGE_CURVE('',#141,#142,#169,.T.);
#100=EDGE_CURVE('',#141,#143,#170,.T.);
#101=EDGE_CURVE('',#143,#144,#171,.T.);
#102=EDGE_CURVE('',#144,#142,#172,.T.);
#103=EDGE_CURVE('',#145,#141,#173,.T.);
#104=EDGE_CURVE('',#145,#146,#174,.T.);
#105=EDGE_CURVE('',#146,#143,#175,.T.);
#106=EDGE_CURVE('',#147,#145,#176,.T.);
#107=EDGE_CURVE('',#147,#148,#177,.T.);
#108=EDGE_CURVE('',#148,#146,#178,.T.);
#109=EDGE_CURVE('',#149,#150,#179,.T.);
#110=EDGE_CURVE('',#144,#150,#180,.T.);
#111=EDGE_CURVE('',#151,#148,#181,.T.);
#112=EDGE_CURVE('',#152,#151,#182,.T.);
#113=EDGE_CURVE('',#149,#152,#183,.T.);
#114=EDGE_CURVE('',#147,#153,#184,.T.);
#115=EDGE_CURVE('',#153,#154,#185,.T.);
#116=EDGE_CURVE('',#155,#154,#186,.T.);
#117=EDGE_CURVE('',#155,#151,#187,.T.);
#118=EDGE_CURVE('',#150,#156,#188,.T.);
#119=EDGE_CURVE('',#156,#157,#189,.T.);
#120=EDGE_CURVE('',#157,#158,#190,.T.);
#121=EDGE_CURVE('',#158,#142,#191,.T.);
#122=EDGE_CURVE('',#159,#158,#192,.T.);
#123=EDGE_CURVE('',#159,#160,#193,.T.);
#124=EDGE_CURVE('',#160,#153,#194,.T.);
#125=EDGE_CURVE('',#152,#161,#195,.T.);
#126=EDGE_CURVE('',#162,#155,#196,.T.);
#127=EDGE_CURVE('',#162,#161,#197,.T.);
#128=EDGE_CURVE('',#163,#161,#198,.T.);
#129=EDGE_CURVE('',#163,#149,#199,.T.);
#130=EDGE_CURVE('',#164,#154,#200,.T.);
#131=EDGE_CURVE('',#162,#164,#201,.T.);
#132=EDGE_CURVE('',#163,#165,#202,.T.);
#133=EDGE_CURVE('',#165,#156,#203,.T.);
#134=EDGE_CURVE('',#166,#160,#13,.T.);
#135=EDGE_CURVE('',#166,#164,#204,.T.);
#136=EDGE_CURVE('',#165,#167,#205,.T.);
#137=EDGE_CURVE('',#167,#157,#206,.T.);
#138=EDGE_CURVE('',#168,#166,#207,.T.);
#139=EDGE_CURVE('',#168,#159,#14,.T.);
#140=EDGE_CURVE('',#167,#168,#208,.T.);
#141=VERTEX_POINT('',#424);
#142=VERTEX_POINT('',#425);
#143=VERTEX_POINT('',#427);
#144=VERTEX_POINT('',#429);
#145=VERTEX_POINT('',#433);
#146=VERTEX_POINT('',#435);
#147=VERTEX_POINT('',#439);
#148=VERTEX_POINT('',#441);
#149=VERTEX_POINT('',#445);
#150=VERTEX_POINT('',#446);
#151=VERTEX_POINT('',#449);
#152=VERTEX_POINT('',#451);
#153=VERTEX_POINT('',#455);
#154=VERTEX_POINT('',#457);
#155=VERTEX_POINT('',#459);
#156=VERTEX_POINT('',#463);
#157=VERTEX_POINT('',#465);
#158=VERTEX_POINT('',#467);
#159=VERTEX_POINT('',#471);
#160=VERTEX_POINT('',#473);
#161=VERTEX_POINT('',#477);
#162=VERTEX_POINT('',#479);
#163=VERTEX_POINT('',#483);
#164=VERTEX_POINT('',#487);
#165=VERTEX_POINT('',#491);
#166=VERTEX_POINT('',#495);
#167=VERTEX_POINT('',#499);
#168=VERTEX_POINT('',#503);
#169=LINE('',#423,#209);
#170=LINE('',#426,#210);
#171=LINE('',#428,#211);
#172=LINE('',#430,#212);
#173=LINE('',#432,#213);
#174=LINE('',#434,#214);
#175=LINE('',#436,#215);
#176=LINE('',#438,#216);
#177=LINE('',#440,#217);
#178=LINE('',#442,#218);
#179=LINE('',#444,#219);
#180=LINE('',#447,#220);
#181=LINE('',#448,#221);
#182=LINE('',#450,#222);
#183=LINE('',#452,#223);
#184=LINE('',#454,#224);
#185=LINE('',#456,#225);
#186=LINE('',#458,#226);
#187=LINE('',#460,#227);
#188=LINE('',#462,#228);
#189=LINE('',#464,#229);
#190=LINE('',#466,#230);
#191=LINE('',#468,#231);
#192=LINE('',#470,#232);
#193=LINE('',#472,#233);
#194=LINE('',#474,#234);
#195=LINE('',#476,#235);
#196=LINE('',#478,#236);
#197=LINE('',#480,#237);
#198=LINE('',#482,#238);
#199=LINE('',#484,#239);
#200=LINE('',#486,#240);
#201=LINE('',#488,#241);
#202=LINE('',#490,#242);
#203=LINE('',#492,#243);
#204=LINE('',#496,#244);
#205=LINE('',#498,#245);
#206=LINE('',#500,#246);
#207=LINE('',#502,#247);
#208=LINE('',#506,#248);
#209=VECTOR('',#347,1.);
#210=VECTOR('',#348,1.);
#211=VECTOR('',#349,1.);
#212=VECTOR('',#350,1.);
#213=VECTOR('',#353,1.);
#214=VECTOR('',#354,1.);
#215=VECTOR('',#355,1.);
#216=VECTOR('',#358,1.);
#217=VECTOR('',#359,1.);
#218=VECTOR('',#360,1.);
#219=VECTOR('',#363,1.);
#220=VECTOR('',#364,1.);
#221=VECTOR('',#365,1.);
#222=VECTOR('',#366,1.);
#223=VECTOR('',#367,1.);
#224=VECTOR('',#370,1.);
#225=VECTOR('',#371,1.);
#226=VECTOR('',#372,1.);
#227=VECTOR('',#373,1.);
#228=VECTOR('',#376,1.);
#229=VECTOR('',#377,1.);
#230=VECTOR('',#378,1.);
#231=VECTOR('',#379,1.);
#232=VECTOR('',#382,1.);
#233=VECTOR('',#383,1.);
#234=VECTOR('',#384,1.);
#235=VECTOR('',#387,1.);
#236=VECTOR('',#388,1.);
#237=VECTOR('',#389,1.);
#238=VECTOR('',#392,1.);
#239=VECTOR('',#393,1.);
#240=VECTOR('',#396,1.);
#241=VECTOR('',#397,1.);
#242=VECTOR('',#400,1.);
#243=VECTOR('',#401,1.);
#244=VECTOR('',#406,1.);
#245=VECTOR('',#409,1.);
#246=VECTOR('',#410,1.);
#247=VECTOR('',#413,1.);
#248=VECTOR('',#418,1.);
#249=EDGE_LOOP('',(#15,#16,#17,#18));
#250=EDGE_LOOP('',(#19,#20,#21,#22));
#251=EDGE_LOOP('',(#23,#24,#25,#26));
#252=EDGE_LOOP('',(#27,#28,#29,#30,#31,#32,#33,#34));
#253=EDGE_LOOP('',(#35,#36,#37,#38,#39,#40));
#254=EDGE_LOOP('',(#41,#42,#43,#44,#45,#46));
#255=EDGE_LOOP('',(#47,#48,#49,#50,#51,#52,#53,#54));
#256=EDGE_LOOP('',(#55,#56,#57,#58,#59));
#257=EDGE_LOOP('',(#60,#61,#62,#63));
#258=EDGE_LOOP('',(#64,#65,#66,#67));
#259=EDGE_LOOP('',(#68,#69,#70,#71,#72));
#260=EDGE_LOOP('',(#73,#74,#75,#76,#77));
#261=EDGE_LOOP('',(#78,#79,#80,#81));
#262=EDGE_LOOP('',(#82,#83,#84,#85));
#263=EDGE_LOOP('',(#86,#87,#88,#89,#90));
#264=EDGE_LOOP('',(#91,#92,#93,#94,#95,#96,#97,#98));
#265=FACE_BOUND('',#249,.T.);
#266=FACE_BOUND('',#250,.T.);
#267=FACE_BOUND('',#251,.T.);
#268=FACE_BOUND('',#252,.T.);
#269=FACE_BOUND('',#253,.T.);
#270=FACE_BOUND('',#254,.T.);
#271=FACE_BOUND('',#255,.T.);
#272=FACE_BOUND('',#256,.T.);
#273=FACE_BOUND('',#257,.T.);
#274=FACE_BOUND('',#258,.T.);
#275=FACE_BOUND('',#259,.T.);
#276=FACE_BOUND('',#260,.T.);
#277=FACE_BOUND('',#261,.T.);
#278=FACE_BOUND('',#262,.T.);
#279=FACE_BOUND('',#263,.T.);
#280=FACE_BOUND('',#264,.T.);
#281=PLANE('',#325);
#282=PLANE('',#326);
#283=PLANE('',#327);
#284=PLANE('',#328);
#285=PLANE('',#329);
#286=PLANE('',#330);
#287=PLANE('',#331);
#288=PLANE('',#332);
#289=PLANE('',#333);
#290=PLANE('',#334);
#291=PLANE('',#335);
#292=PLANE('',#336);
#293=PLANE('',#338);
#294=PLANE('',#341);
#295=PLANE('',#342);
#296=ADVANCED_FACE('',(#265),#281,.T.);
#297=ADVANCED_FACE('',(#266),#282,.T.);
#298=ADVANCED_FACE('',(#267),#283,.T.);
#299=ADVANCED_FACE('',(#268),#284,.F.);
#300=ADVANCED_FACE('',(#269),#285,.F.);
#301=ADVANCED_FACE('',(#270),#286,.F.);
#302=ADVANCED_FACE('',(#271),#287,.F.);
#303=ADVANCED_FACE('',(#272),#288,.F.);
#304=ADVANCED_FACE('',(#273),#289,.T.);
#305=ADVANCED_FACE('',(#274),#290,.F.);
#306=ADVANCED_FACE('',(#275),#291,.F.);
#307=ADVANCED_FACE('',(#276),#292,.F.);
#308=ADVANCED_FACE('',(#277),#293,.F.);
#309=ADVANCED_FACE('',(#278),#12,.T.);
#310=ADVANCED_FACE('',(#279),#294,.F.);
#311=ADVANCED_FACE('',(#280),#295,.T.);
#312=CLOSED_SHELL('',(#296,#297,#298,#299,#300,#301,#302,#303,#304,#305,
#306,#307,#308,#309,#310,#311));
#313=STYLED_ITEM('',(#314),#321);
#314=PRESENTATION_STYLE_ASSIGNMENT((#315));
#315=SURFACE_STYLE_USAGE(.BOTH.,#316);
#316=SURFACE_SIDE_STYLE('',(#317));
#317=SURFACE_STYLE_FILL_AREA(#318);
#318=FILL_AREA_STYLE('',(#319));
#319=FILL_AREA_STYLE_COLOUR('',#320);
#320=COLOUR_RGB('',0.0980392156862745,0.0980392156862745,0.0980392156862745);
#321=MANIFOLD_SOLID_BREP('lock',#312);
#322=SHAPE_DEFINITION_REPRESENTATION(#514,#323);
#323=SHAPE_REPRESENTATION('lock',(#324),#509);
#324=AXIS2_PLACEMENT_3D('',#421,#343,#344);
#325=AXIS2_PLACEMENT_3D('',#422,#345,#346);
#326=AXIS2_PLACEMENT_3D('',#431,#351,#352);
#327=AXIS2_PLACEMENT_3D('',#437,#356,#357);
#328=AXIS2_PLACEMENT_3D('',#443,#361,#362);
#329=AXIS2_PLACEMENT_3D('',#453,#368,#369);
#330=AXIS2_PLACEMENT_3D('',#461,#374,#375);
#331=AXIS2_PLACEMENT_3D('',#469,#380,#381);
#332=AXIS2_PLACEMENT_3D('',#475,#385,#386);
#333=AXIS2_PLACEMENT_3D('',#481,#390,#391);
#334=AXIS2_PLACEMENT_3D('',#485,#394,#395);
#335=AXIS2_PLACEMENT_3D('',#489,#398,#399);
#336=AXIS2_PLACEMENT_3D('',#493,#402,#403);
#337=AXIS2_PLACEMENT_3D('',#494,#404,#405);
#338=AXIS2_PLACEMENT_3D('',#497,#407,#408);
#339=AXIS2_PLACEMENT_3D('',#501,#411,#412);
#340=AXIS2_PLACEMENT_3D('',#504,#414,#415);
#341=AXIS2_PLACEMENT_3D('',#505,#416,#417);
#342=AXIS2_PLACEMENT_3D('',#507,#419,#420);
#343=DIRECTION('',(0.,0.,1.));
#344=DIRECTION('',(1.,0.,0.));
#345=DIRECTION('',(-3.330669073875E-16,-1.,0.));
#346=DIRECTION('',(0.,0.,-1.));
#347=DIRECTION('',(0.,0.,-1.));
#348=DIRECTION('',(-1.,3.330669073875E-16,0.));
#349=DIRECTION('',(0.,0.,-1.));
#350=DIRECTION('',(1.,-3.330669073875E-16,0.));
#351=DIRECTION('',(0.,0.,-1.));
#352=DIRECTION('',(3.330669073875E-16,1.,0.));
#353=DIRECTION('',(3.330669073875E-16,1.,0.));
#354=DIRECTION('',(-1.,3.330669073875E-16,0.));
#355=DIRECTION('',(3.330669073875E-16,1.,0.));
#356=DIRECTION('',(3.330669073875E-16,1.,0.));
#357=DIRECTION('',(0.,0.,1.));
#358=DIRECTION('',(0.,0.,1.));
#359=DIRECTION('',(-1.,3.330669073875E-16,0.));
#360=DIRECTION('',(0.,0.,1.));
#361=DIRECTION('',(1.,-3.330669073875E-16,0.));
#362=DIRECTION('',(3.330669073875E-16,1.,0.));
#363=DIRECTION('',(0.,0.,-1.));
#364=DIRECTION('',(3.330669073875E-16,1.,0.));
#365=DIRECTION('',(3.330669073875E-16,1.,0.));
#366=DIRECTION('',(0.,0.,-1.));
#367=DIRECTION('',(-3.330669073875E-16,-1.,-2.22044604925E-16));
#368=DIRECTION('',(0.,0.,1.));
#369=DIRECTION('',(-1.,3.330669073875E-16,0.));
#370=DIRECTION('',(-3.330669073875E-16,-1.,0.));
#371=DIRECTION('',(-1.,3.330669073875E-16,0.));
#372=DIRECTION('',(-3.330669073875E-16,-1.,0.));
#373=DIRECTION('',(-1.,3.330669073875E-16,0.));
#374=DIRECTION('',(0.,0.,1.));
#375=DIRECTION('',(-1.,3.330669073875E-16,0.));
#376=DIRECTION('',(1.,-3.330669073875E-16,0.));
#377=DIRECTION('',(3.330669073875E-16,1.,0.));
#378=DIRECTION('',(1.,-3.330669073875E-16,0.));
#379=DIRECTION('',(-3.330669073875E-16,-1.,0.));
#380=DIRECTION('',(-1.,3.330669073875E-16,0.));
#381=DIRECTION('',(-3.330669073875E-16,-1.,0.));
#382=DIRECTION('',(0.,0.,-1.));
#383=DIRECTION('',(-3.330669073875E-16,-1.,0.));
#384=DIRECTION('',(0.,0.,-1.));
#385=DIRECTION('',(3.330669073875E-16,1.,0.));
#386=DIRECTION('',(-1.,3.330669073875E-16,0.));
#387=DIRECTION('',(0.98480775301219,-3.28006872667003E-16,0.173648177667033));
#388=DIRECTION('',(0.,0.,-1.));
#389=DIRECTION('',(-1.,3.330669073875E-16,0.));
#390=DIRECTION('',(-0.173648177667033,-1.60834786935708E-16,0.98480775301219));
#391=DIRECTION('',(0.98480775301219,-3.66564513673031E-16,0.173648177667033));
#392=DIRECTION('',(9.262106236685E-16,-1.,0.));
#393=DIRECTION('',(-0.98480775301219,3.28006872667003E-16,-0.173648177667033));
#394=DIRECTION('',(1.,-3.330669073875E-16,0.));
#395=DIRECTION('',(3.330669073875E-16,1.,0.));
#396=DIRECTION('',(0.,0.,-1.));
#397=DIRECTION('',(-3.330669073875E-16,-1.,0.));
#398=DIRECTION('',(-3.330669073875E-16,-1.,0.));
#399=DIRECTION('',(1.,-3.330669073875E-16,0.));
#400=DIRECTION('',(1.,-3.330669073875E-16,0.));
#401=DIRECTION('',(0.,0.,-1.));
#402=DIRECTION('',(3.330669073875E-16,1.,0.));
#403=DIRECTION('',(-1.,3.330669073875E-16,0.));
#404=DIRECTION('',(3.330669073875E-16,1.,0.));
#405=DIRECTION('',(0.,0.,1.));
#406=DIRECTION('',(-1.,3.330669073875E-16,0.));
#407=DIRECTION('',(1.,-3.330669073875E-16,0.));
#408=DIRECTION('',(3.330669073875E-16,1.,0.));
#409=DIRECTION('',(3.330669073875E-16,1.,0.));
#410=DIRECTION('',(0.,0.,-1.));
#411=DIRECTION('',(-3.330669073875E-16,-1.,0.));
#412=DIRECTION('',(0.,0.,1.));
#413=DIRECTION('',(-3.330669073875E-16,-1.,0.));
#414=DIRECTION('',(3.330669073875E-16,1.,0.));
#415=DIRECTION('',(0.,0.,1.));
#416=DIRECTION('',(-3.330669073875E-16,-1.,0.));
#417=DIRECTION('',(1.,-3.330669073875E-16,0.));
#418=DIRECTION('',(1.,-3.330669073875E-16,0.));
#419=DIRECTION('',(0.,0.,1.));
#420=DIRECTION('',(-1.,3.330669073875E-16,0.));
#421=CARTESIAN_POINT('',(0.,0.,0.));
#422=CARTESIAN_POINT('',(0.19052,-0.129465,0.002345));
#423=CARTESIAN_POINT('',(0.19052,-0.129465,0.002345));
#424=CARTESIAN_POINT('',(0.19052,-0.129465,0.002345));
#425=CARTESIAN_POINT('',(0.19052,-0.129465,0.001745));
#426=CARTESIAN_POINT('',(0.19052,-0.129465,0.002345));
#427=CARTESIAN_POINT('',(0.18752,-0.129465,0.002345));
#428=CARTESIAN_POINT('',(0.18752,-0.129465,0.00297));
#429=CARTESIAN_POINT('',(0.18752,-0.129465,0.001745));
#430=CARTESIAN_POINT('',(0.18982256869773,-0.129465,0.001745));
#431=CARTESIAN_POINT('',(0.19052,-0.133035,0.002345));
#432=CARTESIAN_POINT('',(0.19052,-0.133035,0.002345));
#433=CARTESIAN_POINT('',(0.19052,-0.133035,0.002345));
#434=CARTESIAN_POINT('',(0.19052,-0.133035,0.002345));
#435=CARTESIAN_POINT('',(0.18752,-0.133035,0.002345));
#436=CARTESIAN_POINT('',(0.18752,-0.133285,0.002345));
#437=CARTESIAN_POINT('',(0.19052,-0.133035,0.001595));
#438=CARTESIAN_POINT('',(0.19052,-0.133035,0.001595));
#439=CARTESIAN_POINT('',(0.19052,-0.133035,0.001745));
#440=CARTESIAN_POINT('',(0.18982256869773,-0.133035,0.001745));
#441=CARTESIAN_POINT('',(0.18752,-0.133035,0.001745));
#442=CARTESIAN_POINT('',(0.18752,-0.133035,0.002595));
#443=CARTESIAN_POINT('',(0.18752,-0.133535,0.003595));
#444=CARTESIAN_POINT('',(0.18752,-0.128965,0.003595));
#445=CARTESIAN_POINT('',(0.18752,-0.128965,0.003316019057875));
#446=CARTESIAN_POINT('',(0.18752,-0.128965,0.001745));
#447=CARTESIAN_POINT('',(0.18752,-0.133535,0.001745));
#448=CARTESIAN_POINT('',(0.18752,-0.133535,0.001745));
#449=CARTESIAN_POINT('',(0.18752,-0.133535,0.001745));
#450=CARTESIAN_POINT('',(0.18752,-0.133535,0.003595));
#451=CARTESIAN_POINT('',(0.18752,-0.133535,0.003316019057875));
#452=CARTESIAN_POINT('',(0.18752,-0.13105,0.003316019057875));
#453=CARTESIAN_POINT('',(0.18912513739546,-0.13125,0.001745));
#454=CARTESIAN_POINT('',(0.19052,-0.128565,0.001745));
#455=CARTESIAN_POINT('',(0.19052,-0.133935,0.001745));
#456=CARTESIAN_POINT('',(0.19052,-0.133935,0.001745));
#457=CARTESIAN_POINT('',(0.18972,-0.133935,0.001745));
#458=CARTESIAN_POINT('',(0.18972,-0.133535,0.001745));
#459=CARTESIAN_POINT('',(0.18972,-0.133535,0.001745));
#460=CARTESIAN_POINT('',(0.18972,-0.133535,0.001745));
#461=CARTESIAN_POINT('',(0.18912513739546,-0.13125,0.001745));
#462=CARTESIAN_POINT('',(0.18752,-0.128965,0.001745));
#463=CARTESIAN_POINT('',(0.18972,-0.128965,0.001745));
#464=CARTESIAN_POINT('',(0.18972,-0.128965,0.001745));
#465=CARTESIAN_POINT('',(0.18972,-0.128565,0.001745));
#466=CARTESIAN_POINT('',(0.18972,-0.128565,0.001745));
#467=CARTESIAN_POINT('',(0.19052,-0.128565,0.001745));
#468=CARTESIAN_POINT('',(0.19052,-0.128565,0.001745));
#469=CARTESIAN_POINT('',(0.19052,-0.128565,0.003595));
#470=CARTESIAN_POINT('',(0.19052,-0.128565,0.003595));
#471=CARTESIAN_POINT('',(0.19052,-0.128565,0.003095));
#472=CARTESIAN_POINT('',(0.19052,-0.128565,0.003095));
#473=CARTESIAN_POINT('',(0.19052,-0.133935,0.003095));
#474=CARTESIAN_POINT('',(0.19052,-0.133935,0.003595));
#475=CARTESIAN_POINT('',(0.18972,-0.133535,0.003595));
#476=CARTESIAN_POINT('',(0.188141069710861,-0.133535,0.0034255304048));
#477=CARTESIAN_POINT('',(0.189102179545096,-0.133535,0.003595));
#478=CARTESIAN_POINT('',(0.18972,-0.133535,0.003595));
#479=CARTESIAN_POINT('',(0.18972,-0.133535,0.003595));
#480=CARTESIAN_POINT('',(0.18972,-0.133535,0.003595));
#481=CARTESIAN_POINT('',(0.186580768987951,-0.128565,0.003150407289332));
#482=CARTESIAN_POINT('',(0.189102179545096,-0.1299075,0.003595));
#483=CARTESIAN_POINT('',(0.189102179545096,-0.128965,0.003595));
#484=CARTESIAN_POINT('',(0.187074238769428,-0.128965,0.003237419325971));
#485=CARTESIAN_POINT('',(0.18972,-0.128965,0.003595));
#486=CARTESIAN_POINT('',(0.18972,-0.133935,0.003595));
#487=CARTESIAN_POINT('',(0.18972,-0.133935,0.003595));
#488=CARTESIAN_POINT('',(0.18972,-0.133535,0.003595));
#489=CARTESIAN_POINT('',(0.18752,-0.128965,0.003595));
#490=CARTESIAN_POINT('',(0.18752,-0.128965,0.003595));
#491=CARTESIAN_POINT('',(0.18972,-0.128965,0.003595));
#492=CARTESIAN_POINT('',(0.18972,-0.128965,0.003595));
#493=CARTESIAN_POINT('',(0.19052,-0.133935,0.003595));
#494=CARTESIAN_POINT('',(0.19002,-0.133935,0.003095));
#495=CARTESIAN_POINT('',(0.19002,-0.133935,0.003595));
#496=CARTESIAN_POINT('',(0.19052,-0.133935,0.003595));
#497=CARTESIAN_POINT('',(0.18972,-0.128965,0.003595));
#498=CARTESIAN_POINT('',(0.18972,-0.128965,0.003595));
#499=CARTESIAN_POINT('',(0.18972,-0.128565,0.003595));
#500=CARTESIAN_POINT('',(0.18972,-0.128565,0.003595));
#501=CARTESIAN_POINT('',(0.19002,-0.128565,0.003095));
#502=CARTESIAN_POINT('',(0.19002,-0.128565,0.003595));
#503=CARTESIAN_POINT('',(0.19002,-0.128565,0.003595));
#504=CARTESIAN_POINT('',(0.19002,-0.128565,0.003095));
#505=CARTESIAN_POINT('',(0.18972,-0.128565,0.003595));
#506=CARTESIAN_POINT('',(0.18972,-0.128565,0.003595));
#507=CARTESIAN_POINT('',(0.18912513739546,-0.13125,0.003595));
#508=MECHANICAL_DESIGN_GEOMETRIC_PRESENTATION_REPRESENTATION('',(#313),
#509);
#509=(
GEOMETRIC_REPRESENTATION_CONTEXT(3)
GLOBAL_UNCERTAINTY_ASSIGNED_CONTEXT((#510))
GLOBAL_UNIT_ASSIGNED_CONTEXT((#513,#512,#511))
REPRESENTATION_CONTEXT('lock','TOP_LEVEL_ASSEMBLY_PART')
);
#510=UNCERTAINTY_MEASURE_WITH_UNIT(LENGTH_MEASURE(1.E-6),#513,
'DISTANCE_ACCURACY_VALUE','Maximum Tolerance applied to model');
#511=(
NAMED_UNIT(*)
SI_UNIT($,.STERADIAN.)
SOLID_ANGLE_UNIT()
);
#512=(
NAMED_UNIT(*)
PLANE_ANGLE_UNIT()
SI_UNIT($,.RADIAN.)
);
#513=(
LENGTH_UNIT()
NAMED_UNIT(*)
SI_UNIT($,.METRE.)
);
#514=PRODUCT_DEFINITION_SHAPE('','',#515);
#515=PRODUCT_DEFINITION('','',#517,#516);
#516=PRODUCT_DEFINITION_CONTEXT('',#523,'design');
#517=PRODUCT_DEFINITION_FORMATION_WITH_SPECIFIED_SOURCE('','',#519,
 .NOT_KNOWN.);
#518=PRODUCT_RELATED_PRODUCT_CATEGORY('','',(#519));
#519=PRODUCT('lock','lock','lock',(#521));
#520=PRODUCT_CATEGORY('','');
#521=PRODUCT_CONTEXT('',#523,'mechanical');
#522=APPLICATION_PROTOCOL_DEFINITION('international standard',
'ap242_managed_model_based_3d_engineering',2020,#523);
#523=APPLICATION_CONTEXT('managed model based 3d engineering');
ENDSEC;
END-ISO-10303-21;
